<svg xmlns="http://www.w3.org/2000/svg" width="200" height="200" viewBox="0 0 52.917 52.917"><g fill="#F9F9FA" fill-opacity=".8"><path paint-order="fill markers stroke" d="M31.75 31.75h15.875v5.292H31.75zm15.875 5.292h5.292v5.292h-5.292zm-15.875 0h5.292v5.292H31.75zm0 5.292h15.875v5.292H31.75zM31.75 0h21.167v5.292H31.75zm15.875 5.292h5.292v10.583h-5.292zm-15.875 0h5.292v15.875H31.75zm5.292 10.583h15.875v5.292H37.042zm2.646-7.937h5.292v5.292h-5.292z"/><path paint-order="fill markers stroke" d="M31.75 26.459h5.292v5.292H31.75zM0 0h21.167v5.292H0zm15.875 5.292h5.292v10.583h-5.292zM0 5.292h5.292v15.875H0zm5.292 10.583h15.875v5.292H5.292zm2.646-7.937h5.292v5.292H7.938zM0 31.75h21.167v5.292H0zm15.875 5.292h5.292v10.583h-5.292zM0 37.042h5.292v15.875H0zm5.292 10.583h15.875v5.292H5.292zm2.646-7.937h5.292v5.292H7.938zm34.395 7.937h5.292v5.292h-5.292zm-15.875 0h5.292v5.292h-5.292z"/><path paint-order="fill markers stroke" d="M26.458 42.334h5.292v5.292h-5.292zm21.167 5.291h5.292v5.292h-5.292zm-5.292-26.458h5.292v5.292h-5.292zM21.167 37.042h5.292v5.292h-5.292zm5.291-10.583h5.292v5.292h-5.292zm-10.583 0h5.292v5.292h-5.292zM5.292 21.167h5.292v5.292H5.292zm15.875-10.583h5.292v5.292h-5.292zm5.291-5.292h5.292v5.292h-5.292zm21.167 21.167h5.292v5.292h-5.292z"/></g></svg>
