<?xml version="1.0" encoding="UTF-8" standalone="no"?>
<!-- Created with Inkscape (http://www.inkscape.org/) -->

<svg
   xmlns:dc="http://purl.org/dc/elements/1.1/"
   xmlns:cc="http://creativecommons.org/ns#"
   xmlns:rdf="http://www.w3.org/1999/02/22-rdf-syntax-ns#"
   xmlns:svg="http://www.w3.org/2000/svg"
   xmlns="http://www.w3.org/2000/svg"
   xmlns:sodipodi="http://sodipodi.sourceforge.net/DTD/sodipodi-0.dtd"
   xmlns:inkscape="http://www.inkscape.org/namespaces/inkscape"
   width="96.308342mm"
   height="96.308334mm"
   viewBox="0 0 96.308342 96.308334"
   version="1.1"
   id="svg8"
   inkscape:version="0.92.2 (5c3e80d, 2017-08-06)"
   sodipodi:docname="qr-grey.svg">
  <defs
     id="defs2" />
  <sodipodi:namedview
     id="base"
     pagecolor="#ffffff"
     bordercolor="#666666"
     borderopacity="1.0"
     inkscape:pageopacity="0.0"
     inkscape:pageshadow="2"
     inkscape:zoom="0.9899495"
     inkscape:cx="57.247462"
     inkscape:cy="184.56665"
     inkscape:document-units="mm"
     inkscape:current-layer="layer1"
     showgrid="false"
     inkscape:window-width="1920"
     inkscape:window-height="1016"
     inkscape:window-x="0"
     inkscape:window-y="27"
     inkscape:window-maximized="1" />
  <metadata
     id="metadata5">
    <rdf:RDF>
      <cc:Work
         rdf:about="">
        <dc:format>image/svg+xml</dc:format>
        <dc:type
           rdf:resource="http://purl.org/dc/dcmitype/StillImage" />
        <dc:title></dc:title>
      </cc:Work>
    </rdf:RDF>
  </metadata>
  <g
     inkscape:label="Ebene 1"
     inkscape:groupmode="layer"
     id="layer1"
     transform="translate(-39.394568,-82.819787)">
    <path
       style="fill:#000000;stroke-width:0.26458335;fill-opacity:0.50397879"
       d="m 39.394568,163.12083 v -16.0073 h 16.007293 16.007293 v 16.0073 16.00729 H 55.401861 39.394568 Z m 27.516669,0 V 151.61145 H 55.401861 43.892485 v 11.50938 11.50937 h 11.509376 11.509376 z m -18.344446,6.83506 -0.176389,-0.17638 v -6.70278 -6.70278 h 6.879167 6.879167 v 6.87917 6.87916 H 55.445958 48.74318 Z m 36.600697,6.92327 v -2.24896 h -2.248959 -2.248958 v -2.24896 -2.24896 h -2.248959 -2.248958 v -6.87916 -6.87917 h 6.879167 6.879167 v -2.38125 -2.38125 h 2.248959 2.248958 v 2.38125 2.38125 h 4.630208 4.630217 v -2.38125 -2.38125 h 2.24896 2.24896 v -2.24896 -2.24896 h 2.38125 2.38125 v 2.24896 2.24896 h -2.38125 -2.38125 v 2.38125 2.38125 h 2.38125 2.38125 v 4.49792 4.49791 h -2.38125 -2.38125 v -4.49791 -4.49792 h -2.24896 -2.24896 v 9.12813 9.12812 h -2.24271 -2.242717 l -0.0724,-4.56406 -0.0724,-4.56406 -2.3151,-0.0764 -2.315108,-0.0765 v 6.88947 6.88947 h -4.630209 -4.630208 z m 4.7625,-4.49792 v -2.24896 h -2.38125 -2.38125 v -2.23865 -2.23866 l 2.315104,-0.0764 2.315104,-0.0764 0.07645,-2.31511 0.07645,-2.3151 h -4.640511 -4.640509 v 4.63021 4.6302 h 2.248958 2.248959 v 2.24896 2.24896 h 2.38125 2.38125 z m 23.018762,4.49792 v -2.24896 h -2.38125 -2.38125 v -2.24896 -2.24896 h 2.38125 2.38125 v -2.24271 -2.24271 l 4.56406,-0.0724 4.56406,-0.0724 0.0724,-4.56407 0.0724,-4.56406 h 2.24271 2.24271 v 9.12813 9.12812 h 2.24896 2.24896 v 2.24896 2.24896 h -9.12813 -9.12812 z m 9.26041,-4.49792 v -2.24896 h -2.38125 -2.38125 v 2.24896 2.24896 h 2.38125 2.38125 z m -4.7625,-18.38854 v -2.38125 h 2.24896 2.24896 v 2.38125 2.38125 h -2.24896 -2.24896 z m 13.93473,2.20486 -0.17639,-0.17639 v -2.20486 -2.20486 h -2.24896 -2.24896 v -4.49792 -4.49791 h 4.49792 4.49791 v 2.24895 2.24896 h -2.24895 -2.24896 v 2.24896 2.24896 h 2.24896 2.24895 v 2.38125 2.38125 h -2.07256 -2.07258 z M 76.171654,144.86457 v -2.24895 h 2.248958 2.248959 v 2.24895 2.24896 h -2.248959 -2.248958 z m 9.175639,2.07599 -0.179805,-0.1798 v -2.20487 -2.20486 h -2.248959 -2.248958 v -2.24896 -2.24895 h -2.38125 -2.38125 v 2.24895 2.24896 H 62.148736 48.390402 v -6.87917 -6.87916 h -4.497917 -4.497917 v -2.24896 -2.24896 h 4.497917 4.497917 v -2.24896 -2.24896 h 6.879167 6.879167 v 2.24896 2.24896 h 2.381251 2.38125 v -2.24896 -2.24896 h 2.248958 2.248959 v 2.24896 2.24896 h 2.38125 2.38125 v -9.26042 -9.26041 h 2.248958 2.248959 v -4.63021 -4.630201 h -2.248959 -2.248958 v -6.746876 -6.746876 h 2.248958 2.248959 v 4.497917 4.497917 h 2.248958 2.248959 v -2.248958 -2.248959 h 2.38125 2.38125 v -2.248958 -2.248959 h 4.497917 4.497918 v 4.497917 4.497917 h -2.24896 -2.248958 v 2.242708 2.24271 l -4.564063,0.0724 -4.564062,0.0724 -0.07235,4.553661 -0.07235,4.55367 2.321306,0.0765 2.321308,0.0765 0.07239,4.56406 0.0724,4.56406 h 2.242709 2.242712 v -6.87916 -6.87917 h 2.248958 2.24896 v 6.87917 6.87916 h -2.24896 -2.248958 v 2.24896 2.24896 h -4.630209 -4.630208 v -4.49792 -4.49791 h -2.248959 -2.248958 v 9.12812 9.12813 h -4.630209 -4.630208 v 2.38125 2.38125 h 6.879167 6.879167 v 2.24896 2.24896 h 4.630208 4.630209 v -2.24896 -2.24896 h -2.248958 -2.248959 v -2.38118 -2.38125 h -2.38125 -2.38125 v -2.24896 -2.24896 h 4.630208 4.630209 v -2.24896 -2.24896 h 9.260425 9.26042 v 4.49792 4.49792 h 2.24896 2.24895 v 6.87916 6.87917 h -2.24895 -2.24896 v -2.24896 -2.24895 h -4.62397 -4.62395 l -0.0724,4.56406 -0.0724,4.56406 -9.014475,0.0696 -9.014463,0.0696 z m -27.696474,-11.3364 v -2.24896 h -2.38125 -2.38125 v 2.24896 2.24896 h 2.38125 2.38125 z m 13.758335,0 v -2.24896 h -4.630209 -4.630209 v 2.24896 2.24896 h 4.630209 4.630209 z m 32.279176,-4.63021 v -2.38125 h -4.630217 -4.630208 v 2.38125 2.38125 h 4.630208 4.630217 z m 9.26042,0 v -2.38125 h -2.38125 -2.38125 v 2.38125 2.38125 h 2.38125 2.38125 z m -50.800014,-4.63021 v -2.24896 h -6.879167 -6.879167 v 2.24896 2.24896 h 6.879167 6.879167 z m 9.260418,0 v -2.24896 h -2.248959 -2.248958 v 2.24896 2.24896 h 2.248958 2.248959 z M 94.427905,89.566663 v -2.248959 h -2.248958 -2.248959 v 2.248959 2.248958 h 2.248959 2.248958 z m 23.018755,55.297907 v -2.24895 h 2.24896 2.24896 v 2.24895 2.24896 h -2.24896 -2.24896 z m -78.052092,-4.7625 v -2.24895 h 2.248959 2.248958 v 2.24895 2.24896 h -2.248958 -2.248959 z m 82.814592,-2.24895 v -4.49792 h 2.24896 2.24896 v -2.38125 -2.38125 h -2.24896 -2.24896 v -4.49792 -4.49792 h 6.74688 6.74687 v 4.49792 4.49792 h -2.24895 -2.24896 v 4.63021 4.63021 h -2.24896 -2.24896 v 2.24895 2.24896 h -2.24896 -2.24896 z M 39.394568,98.827074 V 82.819787 H 55.401861 71.409154 V 98.827074 114.83436 H 55.401861 39.394568 Z m 27.516669,0 V 87.317704 H 55.401861 43.892485 v 11.50937 11.509376 h 11.509376 11.509376 z m -18.459156,-0.0661 0.07061,-6.813021 6.813021,-0.07061 6.813021,-0.07061 v 6.883581 6.883636 h -6.88363 -6.883634 z m 55.236249,0.0661 V 82.819787 h 16.00729 16.00729 v 16.007287 16.007286 h -16.00729 -16.00729 z m 27.51667,0 v -11.50937 h -11.50938 -11.50937 v 11.50937 11.509376 h 11.50937 11.50938 z m -18.25625,-0.13676 v -6.883626 l 6.81302,0.07061 6.81302,0.07061 0.0706,6.813026 0.0706,6.813016 h -6.88363 -6.88363 z"
       id="path826"
       inkscape:connector-curvature="0" />
  </g>
</svg>
