<svg width="200" height="200" viewBox="0 0 52.917 52.917" xmlns="http://www.w3.org/2000/svg"><defs><radialGradient id="a" cx="-15.88" cy="249.4" r="26.46" gradientTransform="matrix(-1.819 1.053 -1.1 -1.9 295.7 737.3)" gradientUnits="userSpaceOnUse"><stop stop-color="#00feff" offset="0"/><stop stop-color="#0c0c0d" stop-opacity="0" offset="1"/></radialGradient><radialGradient id="b" cx="21.1" cy="256.3" r="26.46" gradientTransform="matrix(.5485 1.463 -1.6 .6 403.9 64.72)" gradientUnits="userSpaceOnUse"><stop stop-color="#30e60b" offset="0"/><stop stop-color="#0c0c0d" stop-opacity="0" offset="1"/></radialGradient><radialGradient id="c" cx="47.66" cy="262.1" r="26.46" gradientTransform="matrix(2.2 -1 .7071 1.556 -279.6 -68.41)" gradientUnits="userSpaceOnUse"><stop stop-color="#ff0039" offset="0"/><stop stop-color="#0c0c0d" stop-opacity="0" offset="1"/></radialGradient></defs><g fill="#0c0c0d" fill-opacity=".8"><path paint-order="fill markers stroke" d="M31.75 31.7h15.88v5.292H31.75zM47.62 37h5.292v5.292H47.62zm-15.87 0h5.292v5.292H31.75zm0 5.3h15.88v5.292H31.75zm0-42.3h21.17v5.292H31.75zm15.87 5.3h5.292v10.58H47.62zm-15.87 0h5.292v15.88H31.75z"/><path paint-order="fill markers stroke" d="M37.04 15.9h15.88v5.292H37.04zm2.65-8h5.292v5.292H39.69zm-7.94 18.5h5.292v5.292H31.75zM0 0h21.17v5.292H0zm15.87 5.3h5.292v10.58H15.87zM0 5.3h5.292v15.88H0z"/><path paint-order="fill markers stroke" d="M5.29 15.9h15.88v5.292H5.29zm2.65-8h5.292v5.292H7.94zM0 31.75h21.17v5.292H0zm15.87 5.3h5.292v10.58H15.87zM0 37.05h5.292v15.88H0z"/><path paint-order="fill markers stroke" d="M5.29 47.65h15.88v5.292H5.29zm2.65-8h5.292v5.292H7.94zm34.39 7.95h5.292v5.292H42.33zm-15.87 0h5.292v5.292H26.46zm0-5.3h5.292v5.292H26.46z"/><path paint-order="fill markers stroke" d="M47.62 47.6h5.292v5.292H47.62zm-5.29-26.5h5.292v5.292H42.33zM21.17 37h5.292v5.292H21.17zm5.29-10.6h5.292v5.292H26.46zm-10.59 0h5.292v5.292H15.87zM5.292 21.1h5.292v5.292H5.292zM21.17 10.6h5.292v5.292H21.17zm5.29-5.3h5.292v5.292H26.46zm21.16 21.1h5.292v5.292H47.62z"/></g><path d="M47.63 270.5h5.292v5.292H47.63zm-21.17-21.17h5.292v5.292H26.46zm-5.292 5.292h5.292v5.292h-5.292zm-15.88 10.58h5.292v5.292H5.288zm10.58 5.292h5.292v5.292h-5.292zm10.58 0h5.292v5.292h-5.292zm-5.292 10.58h5.292v5.292h-5.292zm21.17-15.88h5.292v5.292h-5.292zm5.292 26.46h5.292v5.292h-5.292zm-21.17-5.292h5.292v5.292h-5.292zm0 5.292h5.292v5.292h-5.292zm15.88 0h5.292v5.292h-5.292zm-34.4-7.938h5.292v5.292H7.928zm-2.646 7.938h15.88v5.292H5.282zm-5.292-10.58h5.292v15.88H-.01zm15.88 0h5.292v10.58H15.87zm-15.88-5.292h21.17v5.292H-.01zm7.938-23.81h5.292v5.292H7.928zm-2.646 7.938h15.88v5.292H5.282zM-.01 249.33h5.292v15.88H-.01zm15.88 0h5.292v10.58H15.87zm-15.88-5.292h21.17v5.292H-.01zm31.75 26.46h5.292v5.292H31.74zm7.938-18.52h5.292v5.292h-5.292zm-2.646 7.938h15.88v5.292h-15.88zm-5.292-10.58h5.292v15.88H31.74zm15.88 0h5.292v10.58H47.62zm-15.88-5.292h21.17v5.292H31.74zm0 42.33h15.88v5.292H31.74zm5.292 0v5.292zm-5.292-5.292h5.292v5.292H31.74zm15.88 0h5.292v5.292H47.62zm-15.88-5.292h15.88v5.292H31.74zm10.58-21.17v5.292z" fill="url(#a)" paint-order="fill markers stroke" transform="translate(0 -244.1)"/><path d="M47.62 270.5h5.292v5.292H47.62zm-21.17-21.17h5.292v5.292H26.45zm-5.292 5.292h5.292v5.292h-5.292zm-15.87 10.58h5.292v5.292H5.288zm10.58 5.292h5.292v5.292h-5.292zm10.58 0h5.292v5.292h-5.292zm-5.292 10.58h5.292v5.292h-5.292zm21.17-15.88h5.292v5.292h-5.292zm5.292 26.46h5.292v5.292h-5.292zm-21.17-5.292h5.292v5.292h-5.292zm0 5.292h5.292v5.292h-5.292zm15.87 0h5.292v5.292h-5.292zm-34.4-7.938h5.292v5.292H7.918zm-2.646 7.938h15.87v5.292H5.272zm-5.292-10.58h5.292v15.88H-.02zm15.88 0h5.292v10.58H15.86zm-15.87-5.292h21.17v5.292H-.01zm7.938-23.81h5.292v5.292H7.928zm-2.646 7.938h15.87v5.292H5.282zM-.01 249.33h5.292v15.88H-.01zm15.88 0h5.292v10.58H15.87zM0 244.038h21.17v5.292H0zm31.75 26.46h5.292v5.292H31.75zm7.937-18.52h5.292v5.292h-5.292zm-2.646 7.938h15.87v5.292h-15.87zm-5.292-10.58h5.292v15.88h-5.292zm15.88 0h5.292v10.58h-5.292zm-15.87-5.292h21.17v5.292h-21.17zm0 42.33h15.87v5.292h-15.87zm5.292 0v5.292zm-5.292-5.292h5.292v5.292h-5.292zm15.88 0h5.292v5.292h-5.292zm-15.88-5.292h15.87v5.292h-15.87zm10.58-21.17v5.292z" fill="url(#b)" paint-order="fill markers stroke" transform="translate(0 -244.1)"/><path d="M47.62 270.5h5.292v5.292H47.62zm-21.17-21.17h5.292v5.292H26.45zm-5.292 5.292h5.292v5.292h-5.292zm-15.87 10.58h5.292v5.292H5.288zm10.58 5.292h5.292v5.292h-5.292zm10.58 0h5.292v5.292h-5.292zm-5.292 10.58h5.292v5.292h-5.292zm21.17-15.88h5.292v5.292h-5.292zm5.292 26.46h5.292v5.292h-5.292zm-21.17-5.292h5.292v5.292h-5.292zm0 5.292h5.292v5.292h-5.292zm15.87 0h5.292v5.292h-5.292zm-34.4-7.938h5.292v5.292H7.918zm-2.646 7.938h15.87v5.292H5.272zm-5.292-10.58h5.292v15.88H-.02zm15.88 0h5.292v10.58H15.86zm-15.87-5.292h21.17v5.292H-.01zm7.938-23.81h5.292v5.292H7.928zm-2.646 7.938h15.87v5.292H5.282zM-.01 249.33h5.292v15.88H-.01zm15.88 0h5.292v10.58H15.87zM0 244.038h21.17v5.292H0zm31.75 26.46h5.292v5.292H31.75zm7.938-18.52h5.292v5.292h-5.292zm-2.646 7.938h15.88v5.292h-15.88zm-5.292-10.58h5.292v15.88H31.75zm15.88 0h5.292v10.58H47.63zm-15.88-5.292h21.17v5.292H31.75zm0 42.33h15.88v5.292H31.75zm5.292 0v5.292zm-5.292-5.292h5.292v5.292H31.75zm15.88 0h5.292v5.292H47.63zm-15.88-5.292h15.88v5.292H31.75zm10.58-21.17v5.292z" fill="url(#c)" paint-order="fill markers stroke" transform="translate(0 -244.1)"/><g fill="#00feff"><path paint-order="fill markers stroke" d="M31.75 0h21.17v5.292H31.75zm15.87 5.3h5.292v10.58H47.62zm-15.87 0h5.292v15.88H31.75z"/><path paint-order="fill markers stroke" d="M37.04 15.9h15.88v5.292H37.04zm2.65-8h5.292v5.292H39.69z"/></g><g fill="#30e60b"><path paint-order="fill markers stroke" d="M0 0h21.17v5.292H0zm15.87 5.3h5.292v10.58H15.87zM0 5.3h5.292v15.88H0z"/><path paint-order="fill markers stroke" d="M5.29 15.9h15.88v5.292H5.29zm2.65-8h5.292v5.292H7.94z"/></g><g fill="#ff0039"><path paint-order="fill markers stroke" d="M0 31.75h21.17v5.292H0zm15.87 5.3h5.292v10.58H15.87zM0 37.05h5.292v15.88H0z"/><path paint-order="fill markers stroke" d="M5.29 47.65h15.88v5.292H5.29zm2.65-8h5.292v5.292H7.94z"/></g></svg>