<svg width="356.5" height="356.5" viewBox="0 0 94.324 94.324" xmlns="http://www.w3.org/2000/svg"><defs><clipPath id="b"><path d="M-1.79 2.685h264.91v441.22H-1.79z"/></clipPath><clipPath id="a"><path d="M20.508 82.088v99.756h132.1V82.088zm66.783 21.481c6.245-.067 13.225 2.187 15.698 8.438 4.325 9.2-3.389 17.314-8.524 24.088-3.054 2.159 1.315 4.312-.687 6.582a30.088 30.088 0 0 1-3.344.656c2.115 1.045 3.85 2.833 4.604 5.117 3.364 8.477-8.355 15.495-14.846 9.92-5.534-3.683-4.06-11.728.85-14.811a44.717 44.717 0 0 1-3.138-.364c-3.464-6.743 2.722-14.364 7.85-18.653 2.405-.825 3.684-5.099.024-4.986-3.839-.43.034 5.078-3.75 5.209-4.134-.435-8.88 1.094-12.658-.721-2.79-9.967 6.238-20.887 16.683-20.431.408-.025.821-.04 1.238-.044z" fill-opacity=".506"/></clipPath></defs><g fill-opacity=".506"><path d="M40.681 178.79c-1.336-.676-1.332-.632-1.262-15.726l.066-14.082.603-.603.602-.602h28.871l1.29 1.5-.072 14.288-.073 14.288-1.484 1.277-13.942-.004c-10.652-.003-14.097-.082-14.598-.336zm24.962-4.856l.698-.697v-19.7l-1.396-1.394h-9.638c-9.84 0-10.36.048-11.117 1.035-.45.586-.479 19.375-.031 20.215.652 1.225.632 1.222 10.967 1.231l9.82.008zm-15.966-4.14c-1.224-.62-1.343-1.247-1.266-6.73.094-6.813-.463-6.291 6.715-6.291h5.44l.653.76.654.76-.163 10.565-.742.639c-.728.625-.84.637-5.689.634-3.435-.003-5.146-.106-5.602-.336zm35.983 8.996c-1.989-1.006-1.438-3.7.83-4.063 3.066-.49 3.066-4.198 0-4.688-1.271-.203-2-.987-2-2.154 0-1.167.729-1.95 2-2.154 2.16-.345 3.06-2.478 1.642-3.895-.667-.668-.82-.698-3.56-.698-3.042 0-3.978.244-4.434 1.154-.156.311-.318 1.916-.36 3.566-.075 2.945-.09 3.012-.847 3.662-.895.77-2.046.693-2.933-.194-.495-.495-.53-.88-.53-5.939 0-7.167-.57-6.588 6.6-6.696 5.326-.08 5.405-.09 6.046-.73.357-.357.722-1.104.81-1.66.208-1.293.986-2 2.202-2 1.043 0 2.202 1.032 2.202 1.96 0 .798.539 1.767 1.153 2.075.312.156 1.917.318 3.567.36 2.93.075 3.015.094 3.65.832l.649.756-.156 15.072-.77.662c-.895.77-2.046.693-2.933-.193-.46-.458-.542-.95-.618-3.683-.083-2.972-.127-3.193-.764-3.83-1.02-1.021-2.843-.77-3.48.478-.171.337-.317 2.695-.36 5.815l-.07 5.249-.743.638c-.68.585-.968.638-3.44.634-1.63-.002-2.956-.135-3.353-.336zm26.988 0c-.73-.369-1.318-1.35-1.324-2.204-.006-.828-1.191-1.865-2.343-2.049-1.272-.203-2-.988-2-2.154 0-1.167.728-1.95 2-2.154 1.289-.206 2.228-1.145 2.434-2.434.28-1.75.833-2.014 4.415-2.115 2.922-.082 3.179-.132 3.788-.742.61-.61.66-.865.742-3.808.08-2.844.146-3.211.677-3.742.87-.868 2.339-.802 3.15.14.626.729.627.732.627 8.008 0 8.563.07 8.828 2.425 9.204 2.01.322 2.648 2.46 1.132 3.794-.666.587-.784.596-7.872.592-5.24-.003-7.373-.094-7.851-.336zm6.97-4.856c1.804-1.804-.312-4.69-2.56-3.492-1.197.637-1.557 1.777-.932 2.95.756 1.421 2.364 1.67 3.492.542zm-38.46.356c-2.055-1.04-1.334-3.997.973-3.997 2.04 0 2.834 2.36 1.26 3.744-.767.675-1.283.733-2.234.252zm26.992-8.994c-1.12-.567-1.351-1.38-1.27-4.482.066-2.526.139-2.902.664-3.426.88-.879 2.338-.803 3.17.165.621.722.646.888.562 3.781-.086 2.94-.11 3.044-.83 3.664-.834.716-1.34.782-2.296.298zm-4.503-8.998c-2.054-1.04-1.334-3.997.974-3.997 2.04 0 2.834 2.36 1.26 3.744-.767.675-1.284.734-2.234.253zm13.494 0c-2.054-1.04-1.334-3.997.974-3.997 2.04 0 2.834 2.36 1.26 3.744-.767.675-1.284.734-2.234.253zm13.494 0c-2.054-1.04-1.334-3.997.974-3.997 2.04 0 2.834 2.36 1.26 3.744-.767.675-1.284.734-2.234.253zm-22.49-4.498c-2.054-1.039-1.334-3.997.974-3.997 2.04 0 2.834 2.36 1.26 3.744-.767.675-1.284.734-2.234.253zm17.997.003c-1.12-.567-1.351-1.38-1.27-4.482.067-2.546.136-2.9.677-3.44.56-.56.827-.602 3.793-.602h3.19l.664.771c.514.598.628.954.506 1.588-.18.94-1.264 2.007-2.04 2.007-1.277 0-2.22.93-2.459 2.425-.098.613-.415 1.18-.853 1.525-.8.63-1.285.675-2.208.208zm-49.482-4.5c-2.054-1.04-1.334-3.997.974-3.997 2.04 0 2.834 2.359 1.26 3.743-.767.676-1.284.734-2.234.253zm9.001.002c-.73-.369-1.318-1.349-1.324-2.203-.006-.813-1.181-1.862-2.288-2.041-1.27-.207-1.923-.844-2.119-2.072-.295-1.847-1.889-2.812-3.353-2.032-.814.433-1.168.99-1.348 2.117-.1.618-.416 1.18-.863 1.533-.698.549-.86.555-12.693.482l-11.986-.074-.603-.603c-.587-.588-.602-.736-.602-6.012 0-7.167-.571-6.588 6.6-6.695 5.326-.08 5.404-.09 6.045-.73.357-.358.722-1.105.811-1.66.207-1.294.985-2 2.202-2 1.056 0 2.201 1.034 2.201 1.99 0 1.276.93 2.218 2.425 2.457 2.01.321 2.649 2.46 1.132 3.794-.61.537-.95.595-3.457.595-2.773 0-3.622.207-4.259 1.036-.626.816-.279 2.374.697 3.123.272.21 1.495.325 3.492.33 2.934.009 3.103-.02 3.737-.655.366-.366.737-1.118.826-1.675.306-1.913.62-2.017 6.348-2.097 3.721-.052 5.24.02 5.72.268.698.363 1.217 1.209 1.455 2.375.08.396.406.962.723 1.257.51.475.927.536 3.664.536 2.946 0 3.12-.03 3.754-.664.366-.366.736-1.118.825-1.675.28-1.749.833-2.014 4.416-2.114 2.95-.083 3.174-.128 3.81-.764.913-.914.905-2.154-.022-3.081-.669-.669-.818-.698-3.59-.698-3.735 0-4.49.38-4.817 2.425-.43 2.69-3.862 2.622-4.294-.085-.207-1.29-1.146-2.228-2.435-2.434-.556-.09-1.233-.408-1.505-.708-.69-.764-.644-2.234.094-2.974.531-.531.898-.598 3.743-.677 2.927-.082 3.2-.134 3.797-.73.353-.354.715-1.098.804-1.654.088-.556.414-1.24.722-1.518.526-.476 1.04-.508 8.23-.508h7.667l.639.742c.585.68.638.967.634 3.44-.005 3.576-.436 4.343-2.7 4.805-1.482.303-2.194 1.806-1.486 3.135 1.118 2.1 3.887 1.389 4.285-1.1.323-2.021 2.509-2.744 3.791-1.253.64.744.642.764.561 6.03l-.081 5.282-.77.663c-1.36 1.167-3.197.356-3.5-1.545-.09-.558-.46-1.31-.827-1.676-.627-.627-.823-.664-3.526-.664-3.042 0-3.98.244-4.435 1.154-.156.311-.318 1.916-.36 3.566-.074 2.918-.096 3.018-.818 3.638l-.743.638-7.195-.004c-5.24-.003-7.373-.094-7.851-.336zm-29.013-9.353c1.804-1.804-.312-4.69-2.56-3.493-1.197.637-1.557 1.778-.932 2.95.756 1.422 2.364 1.671 3.492.543zm60.493 9.35c-2.054-1.038-1.334-3.996.974-3.996 2.04 0 2.834 2.36 1.26 3.744-.767.675-1.284.733-2.234.253zm-76.465-4.497c-2.054-1.04-1.334-3.997.974-3.997 2.04 0 2.834 2.36 1.26 3.744-.767.675-1.284.734-2.234.253zm80.968.003c-1.12-.566-1.351-1.382-1.27-4.462.085-3.236.387-3.825 2.1-4.1.558-.088 1.31-.459 1.676-.825 1.384-1.384.457-3.521-1.675-3.862-1.779-.284-2.027-.826-2.027-4.424 0-4.546-.308-4.345 6.645-4.345h5.44l.638.743c.586.68.638.966.635 3.44-.005 3.576-.436 4.343-2.701 4.805-1.484.303-1.793 1.006-1.797 4.093-.005 3.683-.421 4.438-2.701 4.903-.995.203-1.7 1.042-1.894 2.254-.106.66-.411 1.217-.861 1.571-.8.63-1.285.676-2.208.209zm-80.968-13.496a2.163 2.163 0 0 1-.477-3.54c.453-.411 1.006-.483 3.703-.483h3.17l.663.77c.814.947.688 2.107-.327 3-.607.535-.95.595-3.373.591-1.642-.002-2.956-.135-3.359-.338zm31.491.003c-1.989-1.006-1.438-3.7.83-4.063.557-.09 1.305-.456 1.664-.815l.653-.653.078-7.62c.087-8.585.086-8.581 2.103-8.904.558-.089 1.31-.46 1.676-.826.633-.634.664-.807.664-3.767s-.03-3.133-.664-3.767c-.366-.366-1.118-.737-1.676-.826-1.945-.31-2.026-.576-2.026-6.672 0-5.22.019-5.407.59-5.978.868-.869 2.338-.804 3.149.14.573.666.627.965.627 3.51 0 3.572.496 4.57 2.279 4.589 1.083.01 2.103-1.017 2.314-2.331.206-1.293.984-2 2.201-2 1.056 0 2.202 1.035 2.202 1.99 0 1.277.93 2.219 2.424 2.458 2.011.321 2.65 2.46 1.133 3.794-.61.537-.95.595-3.457.595-4.278 0-4.578.282-4.59 4.317-.01 3.702.372 4.46 2.417 4.788 1.686.27 2.073 1.073 2.073 4.31 0 3.592.398 4.361 2.424 4.685 2.028.325 2.648 2.462 1.108 3.816-.662.582-.873.612-3.698.53-4.113-.121-4.169-.18-4.288-4.447-.083-2.972-.127-3.193-.764-3.83-1.02-1.02-2.84-.77-3.482.479-.186.362-.316 3.267-.36 8.063l-.069 7.498-.742.638c-.68.585-.967.638-3.44.635-1.63-.002-2.956-.135-3.353-.336zm-22.495-4.5a2.163 2.163 0 0 1-.477-3.542c.479-.433 1.079-.482 5.952-.482h5.419l.663.77c.814.947.688 2.108-.327 3-.65.573-.867.595-5.622.592-3.456-.003-5.146-.105-5.608-.339zm17.992 0c-2.054-1.04-1.334-3.998.974-3.998 2.04 0 2.834 2.36 1.26 3.744-.767.676-1.284.734-2.234.253zm-26.982-8.995c-1.336-.676-1.332-.633-1.262-15.726l.066-14.082 1.206-1.205h28.87l1.29 1.5-.072 14.288-.073 14.288-1.484 1.276-13.942-.004c-10.652-.003-14.097-.082-14.598-.335zm24.962-4.856l.698-.698V90.567l-.698-.697-.697-.698h-9.639c-9.84 0-10.359.049-11.117 1.036-.45.585-.479 19.375-.031 20.215.652 1.224.632 1.222 10.967 1.23l9.82.009zm-15.966-4.14c-1.224-.62-1.343-1.248-1.266-6.731.094-6.813-.463-6.29 6.715-6.29h5.44l.653.76.654.759-.163 10.566-.742.638c-.728.625-.84.638-5.688.634-3.436-.003-5.147-.105-5.603-.336zm44.98 8.996c-1.225-.62-1.344-1.248-1.267-6.731.067-4.86.096-5.113.66-5.676.876-.875 2.338-.802 3.164.158.64.744.642.764.56 6.03l-.08 5.282-.743.638c-.833.717-1.339.782-2.295.299zm8.995 0c-1.336-.676-1.333-.633-1.262-15.726l.066-14.082.603-.603.602-.602h28.871l1.29 1.5-.072 14.288-.073 14.288-1.485 1.276-13.942-.004c-10.652-.003-14.097-.082-14.598-.336zm24.962-4.856l.697-.698V90.567l-.697-.697-.698-.698h-9.638c-9.84 0-10.36.049-11.117 1.036-.45.585-.479 19.375-.032 20.215.653 1.224.632 1.222 10.967 1.23l9.82.009zm-15.966-4.14c-1.225-.62-1.343-1.248-1.267-6.731.095-6.813-.462-6.29 6.716-6.29h5.44l1.307 1.52-.163 10.565-.742.638c-.728.626-.84.638-5.689.634-3.435-.003-5.146-.105-5.602-.336zM94.657 93.33c-.73-.37-1.318-1.35-1.324-2.204-.006-.829-1.191-1.865-2.344-2.05-.556-.088-1.233-.407-1.505-.707-.691-.764-.644-2.234.095-2.974.544-.544.834-.589 3.78-.589h3.19l.661.768c.634.737.657.887.572 3.794-.085 2.94-.109 3.044-.83 3.664-.833.716-1.339.782-2.295.298z" clip-path="url(#a)" transform="translate(-39.395 -84.804)"/><path transform="matrix(.12025 0 0 .12025 31.45 20.227)" d="M2.35 145.99c0-81.217 45.306-143.7 146.83-139 101.52 4.643 115.56 74.953 109.35 118.69-6.265 43.741-71.094 106.72-84.35 135.92-13.313 29.142 3.076 31.211 4.642 39.042l-109.3 1.566c-4.698-92.18 88.993-128.09 93.691-157.79 4.7-29.646-12.473-37.476-35.91-42.175-23.437-4.698-45.307 20.304-34.4 43.741z" clip-path="url(#b)" fill-rule="evenodd"/><path transform="matrix(.12025 0 0 .12025 31.45 20.227)" d="M2.35 145.99c0-81.217 45.306-143.7 146.83-139 101.52 4.643 115.56 74.953 109.35 118.69-6.265 43.741-71.094 106.72-84.35 135.92-13.313 29.142 3.076 31.211 4.642 39.042l-109.3 1.566c-4.698-92.18 88.993-128.09 93.691-157.79 4.7-29.646-12.473-37.476-35.91-42.175-23.437-4.698-45.307 20.304-34.4 43.741z" clip-path="url(#b)"/><path d="M46.84 59.763c-3.988 0-7.216 3.026-7.216 6.76 0 3.733 3.229 6.76 7.217 6.76 3.989 0 7.224-3.027 7.224-6.76 0-3.733-3.236-6.76-7.224-6.76z" fill-rule="evenodd"/><path transform="matrix(.12025 0 0 .12025 31.45 20.227)" d="M127.98 328.79c-33.169 0-60.018 25.17-60.018 56.214s26.849 56.215 60.018 56.215c33.17 0 60.074-25.171 60.074-56.215S161.15 328.79 127.98 328.79" clip-path="url(#b)"/></g></svg>