<svg width="200" height="200" viewBox="0 0 96.044 96.044" xmlns="http://www.w3.org/2000/svg"><defs><radialGradient id="a" cx="166.88" cy="89.397" r="47.228" gradientTransform="matrix(1.5516 1.8972 -1.394 1.1401 -89.027 -329.36)" gradientUnits="userSpaceOnUse"><stop stop-color="#30e60b" offset="0"/><stop stop-color="#363959" stop-opacity=".749" offset="1"/></radialGradient><radialGradient id="c" cx="848.85" cy="122.03" r="47.228" gradientTransform="matrix(.82439 -.91963 1.341 1.2021 -815.03 802.52)" gradientUnits="userSpaceOnUse"><stop stop-color="#ff0039" offset="0"/><stop stop-color="red" stop-opacity="0" offset="1"/></radialGradient><radialGradient id="b" cx="925.53" cy="114.86" r="47.228" gradientTransform="matrix(-1.0476 .50592 -.78317 -1.6217 1184.4 -186.77)" gradientUnits="userSpaceOnUse"><stop stop-color="#00feff" offset="0"/><stop stop-color="#00f" stop-opacity="0" offset="1"/></radialGradient></defs><path d="M.773 95.268L0 94.495V66.103l.773-.774.773-.773h28.392l.774.773.773.774v28.392l-.773.773-.774.773H1.546zm25.517-4.422l.698-.698V70.45l-.698-.697-.698-.698H5.893l-.697.698-.698.697v19.7l.698.697.697.697h19.7zM9.769 86.272l-.773-.773v-10.4l.773-.774.773-.773h10.4l.774.773.773.774v10.4l-.773.773-.774.773h-10.4zm26.988 8.996c-.466-.466-.773-1.052-.773-1.476s.307-1.009.773-1.475c.762-.763.816-.774 3.724-.774s2.963.011 3.725.774c.466.466.773 1.052.773 1.475s-.307 1.01-.773 1.476c-.762.762-.816.773-3.725.773s-2.962-.01-3.724-.773zm13.494 0c-.466-.466-.773-1.052-.773-1.476 0-.928 1.32-2.249 2.249-2.249.928 0 2.249 1.321 2.249 2.25s-1.321 2.248-2.25 2.248c-.423 0-1.009-.307-1.475-.773zm8.996 0c-.466-.466-.774-1.052-.774-1.476 0-.928 1.321-2.249 2.25-2.249.928 0 2.248 1.321 2.248 2.25s-1.32 2.248-2.249 2.248c-.423 0-1.009-.307-1.475-.773zm13.494 0c-.504-.504-.774-1.044-.774-1.552 0-.487-.26-1.038-.697-1.475s-.988-.698-1.476-.698c-1.005 0-2.325-1.277-2.325-2.249 0-.972 1.32-2.249 2.325-2.249 1.036 0 2.173-1.137 2.173-2.173 0-.507.27-1.047.774-1.551.764-.765.807-.774 3.8-.774 2.918 0 3.052-.025 3.725-.697.672-.672.697-.807.697-3.725 0-2.992.01-3.035.774-3.8 1.003-1.004 1.947-1.004 2.95 0l.774.773v15.05l.698.698c.437.437.987.698 1.475.698 1.005 0 2.325 1.277 2.325 2.249 0 .423-.307 1.009-.773 1.475l-.774.774H73.514zm7.525-4.422c.465-.466.697-.982.697-1.552 0-.57-.232-1.086-.697-1.551-.466-.465-.982-.698-1.552-.698s-1.086.233-1.551.698c-.466.465-.698.982-.698 1.551 0 .57.232 1.086.698 1.552.465.465.982.697 1.551.697s1.086-.232 1.552-.697zm-43.508-4.574l-.774-.773V70.6l.774-.774c.762-.762.815-.773 3.724-.773s2.962.01 3.725.773c.466.466.773 1.053.773 1.476 0 .972-1.32 2.249-2.325 2.249-.488 0-1.038.26-1.475.697-.675.675-.698.801-.698 3.8 0 3 .023 3.127.698 3.801.437.438.987.698 1.475.698 1.005 0 2.325 1.277 2.325 2.249 0 .423-.307 1.009-.773 1.475-.763.763-.816.774-3.725.774s-2.962-.011-3.724-.774zm13.494 0c-.467-.466-.774-1.052-.774-1.476 0-.928 1.321-2.249 2.25-2.249.927 0 2.248 1.321 2.248 2.25 0 .928-1.32 2.248-2.249 2.248-.423 0-1.009-.307-1.475-.773zm8.995 0c-.466-.466-.773-1.052-.773-1.476 0-.928 1.32-2.249 2.25-2.249.927 0 2.248 1.321 2.248 2.25 0 .928-1.32 2.248-2.249 2.248-.423 0-1.01-.307-1.476-.773zm-13.494-4.498c-.762-.762-.773-.815-.773-3.724s.011-2.963.773-3.725c.467-.466 1.053-.773 1.476-.773s1.01.307 1.476.773c.762.762.773.816.773 3.725s-.01 2.962-.773 3.724c-.467.466-1.053.773-1.476.773s-1.01-.307-1.476-.773zm8.996 0c-.764-.765-.773-.807-.773-3.8 0-2.918-.025-3.053-.698-3.725-.437-.437-.987-.697-1.475-.697-1.005 0-2.325-1.277-2.325-2.25 0-.971 1.32-2.248 2.325-2.248 1.076 0 2.173-1.136 2.173-2.25 0-.57-.232-1.085-.698-1.55l-.697-.698H37.53l-.774-.774c-.504-.504-.773-1.044-.773-1.551 0-.488-.26-1.038-.698-1.476l-.697-.697H24.037l-.773-.774c-.763-.762-.774-.815-.774-3.724 0-2.91.011-2.962.774-3.725.466-.466 1.052-.773 1.475-.773.972 0 2.25 1.32 2.25 2.325 0 .488.26 1.038.697 1.475l.697.698h15.05l.774.773c.504.504.773 1.045.773 1.552 0 1.076 1.135 2.173 2.249 2.173s2.249-1.097 2.249-2.173c0-1.005 1.277-2.325 2.249-2.325.972 0 2.249 1.32 2.249 2.325 0 1.076 1.135 2.173 2.249 2.173s2.249-1.097 2.249-2.173c0-1.005 1.277-2.325 2.249-2.325.972 0 2.249 1.32 2.249 2.325 0 1.036 1.137 2.173 2.173 2.173 1.05 0 2.325 1.276 2.325 2.325 0 .487.26 1.038.697 1.475s.988.698 1.476.698c1.005 0 2.325 1.277 2.325 2.249 0 .972-1.32 2.249-2.325 2.249-.488 0-1.038.26-1.476.697s-.697.988-.697 1.476c0 .507-.27 1.047-.773 1.551-.765.765-.808.774-3.8.774-2.919 0-3.053.025-3.725.697-.673.673-.698.807-.698 3.725 0 2.993-.009 3.035-.773 3.8-.467.466-1.053.774-1.476.774s-1.01-.308-1.476-.774zm7.525-13.418c1.402-1.401.422-3.8-1.551-3.8-1.154 0-2.25 1.095-2.25 2.249 0 1.154 1.096 2.249 2.25 2.249.57 0 1.086-.232 1.551-.698zm5.969 13.418c-.762-.762-.773-.815-.773-3.724s.01-2.963.773-3.725c.466-.466 1.052-.773 1.476-.773s1.009.307 1.475.773c.763.762.774.816.774 3.725s-.011 2.962-.774 3.724c-.466.466-1.052.774-1.475.774s-1.01-.308-1.476-.774zm8.996-8.996c-.466-.466-.774-1.052-.774-1.475 0-.928 1.321-2.25 2.25-2.25.423 0 1.009.308 1.475.774.466.466.773 1.052.773 1.476s-.307 1.009-.773 1.475-1.052.774-1.476.774-1.009-.307-1.475-.774zm13.494 0c-.466-.466-.774-1.052-.774-1.475 0-.928 1.321-2.25 2.25-2.25.423 0 1.009.308 1.475.774.466.466.773 1.052.773 1.476s-.307 1.009-.773 1.475-1.052.774-1.476.774-1.009-.307-1.475-.774zm-4.498-4.498c-.762-.762-.774-.815-.774-3.724s.012-2.962.774-3.725c.762-.762.815-.773 3.724-.773s2.963.011 3.725.773c.466.467.773 1.053.773 1.476 0 .972-1.32 2.249-2.324 2.249-.488 0-1.039.26-1.476.698-.437.437-.698.987-.698 1.475 0 1.005-1.277 2.325-2.249 2.325-.423 0-1.009-.307-1.475-.773zm-8.996-4.498c-.466-.466-.773-1.052-.773-1.475 0-.928 1.32-2.25 2.249-2.25.423 0 1.009.308 1.475.774s.774 1.053.774 1.476c0 .928-1.321 2.249-2.25 2.249-.423 0-1.009-.307-1.475-.774zm-62.97-4.497c-.505-.505-.774-1.045-.774-1.552 0-.488-.26-1.038-.698-1.475l-.697-.698H1.548l-.774-.773c-.762-.763-.773-.816-.773-3.725 0-2.909.01-2.962.773-3.724.466-.467 1.053-.774 1.476-.774.972 0 2.249 1.32 2.249 2.325 0 1.076 1.135 2.173 2.249 2.173 1.113 0 2.249-1.097 2.249-2.173 0-1.05 1.276-2.325 2.325-2.325 1.076 0 2.173-1.135 2.173-2.249s-1.097-2.249-2.173-2.249c-1.005 0-2.325-1.277-2.325-2.249 0-.423.307-1.009.773-1.475l.774-.774H29.94l.773.774c.466.466.773 1.052.773 1.475 0 .972-1.32 2.25-2.324 2.25-.488 0-1.039.26-1.476.697s-.698.988-.698 1.475c0 1.05-1.275 2.325-2.324 2.325-1.036 0-2.173 1.137-2.173 2.173 0 1.05-1.276 2.325-2.325 2.325-.488 0-1.038.26-1.476.698-.672.672-.697.806-.697 3.724 0 2.993-.01 3.036-.774 3.8-.466.467-1.052.774-1.475.774s-1.01-.307-1.476-.773zm58.472 0c-.504-.505-.773-1.045-.773-1.552 0-1.036-1.138-2.173-2.173-2.173-1.005 0-2.325-1.277-2.325-2.249 0-.972 1.32-2.249 2.325-2.249 1.035 0 2.173-1.137 2.173-2.173 0-1.005 1.277-2.325 2.249-2.325.423 0 1.009.307 1.475.774l.774.773v10.4l-.774.773c-.466.467-1.052.774-1.475.774s-1.01-.307-1.476-.774zm8.996 0c-.762-.763-.773-.816-.773-3.725 0-2.909.01-2.962.773-3.724.504-.505 1.044-.774 1.551-.774 1.076 0 2.173-1.135 2.173-2.249s-1.097-2.249-2.173-2.249c-1.049 0-2.325-1.276-2.325-2.325 0-.487-.26-1.038-.697-1.475-.674-.675-.8-.698-3.8-.698s-3.126.023-3.8.698c-.438.437-.698.988-.698 1.475 0 1.005-1.277 2.325-2.25 2.325-.971 0-2.248-1.32-2.248-2.325 0-1.036-1.138-2.173-2.173-2.173-1.005 0-2.325-1.277-2.325-2.249 0-.423.307-1.009.773-1.475l.774-.774h19.396l.773.774c.504.504.773 1.044.773 1.551 0 .488.26 1.038.698 1.476.672.672.807.697 3.724.697 2.993 0 3.036.01 3.8.774.467.466.774 1.052.774 1.475 0 .972-1.32 2.25-2.325 2.25-.488 0-1.038.26-1.475.697-.673.672-.698.807-.698 3.724 0 2.993-.009 3.036-.773 3.8-.504.505-1.044.774-1.552.774-1.035 0-2.173 1.137-2.173 2.173 0 1.005-1.277 2.325-2.249 2.325-.423 0-1.009-.307-1.475-.773zm-53.975-8.996c-.466-.466-.774-1.053-.774-1.476s.308-1.01.774-1.475c.765-.765.807-.774 3.8-.774 2.918 0 3.052-.025 3.725-.697.437-.438.697-.988.697-1.476 0-.507.27-1.047.774-1.551l.773-.774h10.4l.774.774c.504.504.773 1.044.773 1.551 0 1.036 1.137 2.173 2.173 2.173 1.005 0 2.325 1.277 2.325 2.25 0 .422-.307 1.008-.774 1.475l-.773.773H28.535zm31.485 0c-.466-.466-.774-1.053-.774-1.476s.308-1.01.774-1.475 1.052-.774 1.475-.774c.929 0 2.25 1.321 2.25 2.25 0 .422-.308 1.008-.774 1.475-.466.466-1.052.773-1.476.773-.423 0-1.009-.307-1.475-.773zM5.272 45.79c-1.004-1.004-1.004-1.948 0-2.951.466-.466 1.052-.774 1.475-.774.929 0 2.25 1.321 2.25 2.25s-1.321 2.248-2.25 2.248c-.423 0-1.009-.307-1.475-.773zm49.477 0c-.765-.765-.774-.808-.774-3.8 0-2.918-.025-3.053-.697-3.725-.672-.672-.807-.698-3.725-.698-2.992 0-3.035-.009-3.8-.773-.762-.762-.773-.815-.773-3.724s.01-2.963.773-3.725c.466-.466 1.052-.773 1.476-.773.972 0 2.249 1.32 2.249 2.324 0 1.076 1.135 2.174 2.249 2.174.57 0 1.086-.232 1.551-.698.674-.674.698-.8.698-3.8s-.024-3.126-.698-3.8c-.437-.438-.988-.698-1.476-.698-1.049 0-2.324-1.276-2.324-2.325 0-1.076-1.136-2.173-2.25-2.173s-2.248 1.097-2.248 2.173c0 1.05-1.276 2.325-2.325 2.325-.488 0-1.038.26-1.476.697l-.697.698v10.552l-.774.773c-.466.466-1.052.774-1.475.774-.424 0-1.01-.308-1.476-.774l-.773-.773V12.128l.773-.774.774-.773h10.4l.773.773c.504.504.773 1.045.773 1.552 0 .488.26 1.038.698 1.475.672.673.807.698 3.724.698 2.993 0 3.036.009 3.8.773l.774.774v28.392l-.773.773c-.466.466-1.053.774-1.476.774s-1.01-.308-1.475-.774zM.774 41.293C.308 40.827 0 40.241 0 39.817c0-.928 1.321-2.249 2.25-2.249s2.248 1.321 2.248 2.25c0 .928-1.32 2.248-2.249 2.248-.423 0-1.009-.307-1.475-.773zm0-8.996L0 31.524V3.132l.774-.774.773-.773H29.94l.774.773.773.774v28.392l-.773.773-.774.774H1.547zm25.517-4.422l.697-.697v-19.7l-.697-.697-.698-.697H5.894l-.697.697-.698.698v19.699l.698.697.697.698h19.7zM9.77 23.301l-.774-.773v-10.4l.774-.773.773-.774h10.4l.774.774.773.773v10.4l-.773.773-.774.774h-10.4zm53.975 8.996l-.774-.773V3.132l.774-.774.773-.773H92.91l.774.773.773.774v28.392l-.773.773-.774.774H64.518zm25.517-4.422l.697-.697v-19.7l-.697-.697-.698-.697H68.865l-.697.697-.698.698v19.699l.698.697.697.698h19.7zM72.74 23.301l-.774-.773v-10.4l.774-.773.773-.774h10.4l.774.774.773.773v10.4l-.773.773-.774.774h-10.4zM50.25 9.807c-.762-.762-.774-.815-.774-3.724s.011-2.962.774-3.725c.762-.762.815-.773 3.724-.773 2.91 0 2.963.011 3.725.773.466.467.773 1.053.773 1.476 0 .972-1.32 2.249-2.325 2.249-1.035 0-2.173 1.137-2.173 2.173 0 1.005-1.277 2.325-2.249 2.325-.423 0-1.009-.307-1.475-.773zM41.255 5.31c-.466-.466-.773-1.052-.773-1.475 0-.928 1.32-2.25 2.249-2.25s2.249 1.322 2.249 2.25-1.321 2.249-2.25 2.249c-.423 0-1.009-.307-1.475-.774z" fill-opacity=".46"/><path d="M40.168 178.35l-.773-.773v-28.392l.773-.774.773-.773h28.392l.774.773.773.774v28.392l-.773.773-.774.773H40.941zm25.517-4.422l.698-.698v-19.699l-.698-.697-.698-.698H45.288l-.697.698-.698.697v19.7l.698.697.697.697h19.7zm-16.521-4.574l-.773-.773v-10.4l.773-.774.773-.773h10.4l.774.773.773.774v10.4l-.773.773-.774.773h-10.4zm26.988 8.996c-.466-.466-.773-1.052-.773-1.476s.307-1.009.773-1.475c.762-.763.816-.774 3.724-.774s2.963.011 3.725.774c.466.466.773 1.052.773 1.475s-.307 1.01-.773 1.476c-.762.762-.816.773-3.724.773s-2.963-.01-3.725-.773zm13.494 0c-.466-.466-.773-1.052-.773-1.476 0-.928 1.32-2.249 2.249-2.249.928 0 2.249 1.321 2.249 2.25s-1.321 2.248-2.25 2.248c-.423 0-1.009-.307-1.475-.773zm8.996 0c-.466-.466-.774-1.052-.774-1.476 0-.928 1.321-2.249 2.25-2.249.928 0 2.248 1.321 2.248 2.25s-1.32 2.248-2.249 2.248c-.423 0-1.009-.307-1.475-.773zm13.494 0c-.504-.504-.774-1.044-.774-1.552 0-.487-.26-1.038-.697-1.475s-.988-.698-1.476-.698c-1.005 0-2.325-1.277-2.325-2.249 0-.972 1.32-2.249 2.325-2.249 1.036 0 2.173-1.137 2.173-2.173 0-.507.27-1.047.774-1.551.764-.765.807-.774 3.8-.774 2.918 0 3.052-.025 3.725-.697.672-.672.697-.807.697-3.725 0-2.992.01-3.035.774-3.8 1.003-1.004 1.947-1.004 2.95 0l.774.773v15.05l.698.698c.437.437.987.698 1.475.698 1.005 0 2.325 1.277 2.325 2.249 0 .423-.307 1.009-.773 1.475l-.774.774H112.91zm7.525-4.422c.465-.466.697-.982.697-1.552s-.232-1.086-.697-1.551c-.466-.465-.982-.698-1.552-.698s-1.086.233-1.551.698c-.466.465-.698.982-.698 1.551s.232 1.086.698 1.552c.465.465.982.697 1.551.697s1.086-.232 1.552-.697zm-43.508-4.574l-.774-.773v-14.898l.774-.774c.762-.762.815-.773 3.724-.773s2.962.01 3.725.773c.466.466.773 1.053.773 1.476 0 .972-1.32 2.249-2.325 2.249-.488 0-1.038.26-1.475.697-.675.675-.698.801-.698 3.8 0 3 .023 3.127.698 3.801.437.438.987.698 1.475.698 1.005 0 2.325 1.277 2.325 2.249 0 .423-.307 1.009-.773 1.475-.763.763-.816.774-3.725.774s-2.962-.011-3.724-.774zm13.494 0c-.467-.466-.774-1.052-.774-1.476 0-.928 1.321-2.249 2.25-2.249.927 0 2.248 1.321 2.248 2.25 0 .928-1.32 2.248-2.249 2.248-.423 0-1.009-.307-1.475-.773zm8.996 0c-.467-.466-.774-1.052-.774-1.476 0-.928 1.32-2.249 2.25-2.249.927 0 2.248 1.321 2.248 2.25 0 .928-1.32 2.248-2.249 2.248-.423 0-1.01-.307-1.475-.773zm-13.494-4.498c-.763-.762-.774-.815-.774-3.724s.011-2.963.774-3.725c.466-.466 1.052-.773 1.475-.773s1.01.307 1.476.773c.762.762.773.816.773 3.725s-.01 2.962-.773 3.724c-.467.466-1.053.774-1.476.774s-1.01-.308-1.475-.774zm8.995 0c-.764-.765-.773-.807-.773-3.8 0-2.918-.025-3.053-.698-3.725-.437-.437-.987-.697-1.475-.697-1.005 0-2.325-1.277-2.325-2.25 0-.971 1.32-2.248 2.325-2.248 1.076 0 2.173-1.136 2.173-2.25 0-.57-.232-1.085-.698-1.55l-.697-.698h-15.05l-.774-.774c-.504-.504-.773-1.044-.773-1.551 0-.488-.26-1.038-.698-1.476l-.697-.697H63.432l-.773-.774c-.763-.762-.774-.815-.774-3.724 0-2.91.011-2.962.774-3.725.466-.466 1.052-.773 1.475-.773.972 0 2.25 1.32 2.25 2.325 0 .488.26 1.038.697 1.475l.697.698h15.05l.774.773c.504.504.773 1.045.773 1.552 0 1.076 1.135 2.173 2.249 2.173s2.249-1.097 2.249-2.173c0-1.005 1.277-2.325 2.249-2.325.972 0 2.249 1.32 2.249 2.325 0 1.076 1.135 2.173 2.249 2.173s2.249-1.097 2.249-2.173c0-1.005 1.277-2.325 2.249-2.325.972 0 2.249 1.32 2.249 2.325 0 1.036 1.137 2.173 2.173 2.173 1.05 0 2.325 1.276 2.325 2.325 0 .487.26 1.038.697 1.475s.988.698 1.476.698c1.005 0 2.325 1.277 2.325 2.249 0 .972-1.32 2.249-2.325 2.249-.488 0-1.038.26-1.476.697s-.697.988-.697 1.476c0 .507-.27 1.047-.773 1.551-.765.765-.808.774-3.8.774-2.919 0-3.053.025-3.725.697-.673.673-.698.807-.698 3.725 0 2.993-.009 3.035-.773 3.8-.467.466-1.053.774-1.476.774s-1.01-.308-1.476-.774zm7.525-13.418c1.402-1.401.422-3.8-1.551-3.8-1.154 0-2.25 1.094-2.25 2.249 0 1.154 1.096 2.249 2.25 2.249.57 0 1.086-.232 1.551-.698zm5.969 13.418c-.762-.762-.773-.815-.773-3.724s.01-2.963.773-3.725c.466-.466 1.052-.773 1.476-.773s1.009.307 1.475.773c.763.762.774.816.774 3.725s-.011 2.962-.774 3.724c-.466.466-1.052.774-1.475.774s-1.01-.308-1.476-.774zm8.996-8.996c-.466-.466-.774-1.052-.774-1.475 0-.928 1.321-2.25 2.25-2.25.423 0 1.009.308 1.475.774s.773 1.052.773 1.476-.307 1.009-.773 1.475-1.052.774-1.476.774-1.009-.307-1.475-.774zm13.494 0c-.466-.466-.774-1.052-.774-1.475 0-.928 1.321-2.25 2.25-2.25.423 0 1.009.308 1.475.774s.773 1.052.773 1.476-.307 1.009-.773 1.475-1.052.774-1.476.774-1.009-.307-1.475-.774zm-4.498-4.498c-.762-.762-.773-.815-.773-3.724s.01-2.962.773-3.725c.762-.762.815-.773 3.724-.773s2.963.011 3.725.773c.466.467.773 1.053.773 1.476 0 .972-1.32 2.249-2.324 2.249-.488 0-1.039.26-1.476.698-.437.437-.698.987-.698 1.475 0 1.005-1.277 2.325-2.249 2.325-.423 0-1.009-.307-1.475-.773zm-8.996-4.497c-.466-.467-.773-1.053-.773-1.476 0-.928 1.32-2.25 2.249-2.25.423 0 1.009.308 1.475.774s.774 1.053.774 1.476c0 .928-1.321 2.249-2.25 2.249-.423 0-1.009-.307-1.475-.773zm-62.97-4.498c-.505-.505-.774-1.045-.774-1.552 0-.488-.26-1.038-.698-1.475l-.697-.698H40.943l-.774-.773c-.762-.763-.773-.816-.773-3.725 0-2.909.01-2.962.773-3.724.466-.467 1.053-.774 1.476-.774.972 0 2.249 1.32 2.249 2.325 0 1.076 1.135 2.173 2.249 2.173 1.113 0 2.249-1.097 2.249-2.173 0-1.05 1.276-2.325 2.325-2.325 1.076 0 2.173-1.135 2.173-2.249s-1.097-2.249-2.173-2.249c-1.005 0-2.325-1.277-2.325-2.249 0-.423.307-1.009.773-1.475l.774-.774h19.396l.773.774c.466.466.773 1.052.773 1.475 0 .972-1.32 2.25-2.324 2.25-.488 0-1.039.26-1.476.697s-.698.988-.698 1.475c0 1.05-1.275 2.325-2.324 2.325-1.036 0-2.173 1.137-2.173 2.173 0 1.05-1.276 2.325-2.325 2.325-.488 0-1.038.26-1.476.698-.672.672-.697.806-.697 3.724 0 2.993-.01 3.036-.774 3.8-.466.467-1.052.774-1.475.774s-1.01-.307-1.476-.773zm58.472 0c-.504-.505-.773-1.045-.773-1.552 0-1.036-1.137-2.173-2.173-2.173-1.005 0-2.325-1.277-2.325-2.249 0-.972 1.32-2.249 2.325-2.249 1.036 0 2.173-1.137 2.173-2.173 0-1.005 1.277-2.325 2.249-2.325.423 0 1.009.307 1.475.774l.774.773v10.4l-.774.773c-.466.467-1.052.774-1.475.774s-1.01-.307-1.476-.774zm8.996 0c-.762-.763-.773-.816-.773-3.725 0-2.909.01-2.962.773-3.724.504-.505 1.044-.774 1.551-.774 1.076 0 2.173-1.135 2.173-2.249s-1.097-2.249-2.173-2.249c-1.049 0-2.324-1.275-2.324-2.325 0-.487-.26-1.038-.698-1.475-.674-.675-.8-.698-3.8-.698s-3.126.023-3.8.698c-.438.437-.698.988-.698 1.475 0 1.005-1.277 2.325-2.25 2.325-.971 0-2.248-1.32-2.248-2.325 0-1.035-1.138-2.173-2.173-2.173-1.005 0-2.325-1.277-2.325-2.249 0-.423.307-1.009.773-1.475l.774-.774h19.396l.773.774c.504.504.773 1.044.773 1.551 0 .488.26 1.038.698 1.476.672.672.807.697 3.724.697 2.993 0 3.036.01 3.8.774.467.466.774 1.052.774 1.475 0 .972-1.32 2.25-2.325 2.25-.488 0-1.038.26-1.475.697-.673.672-.698.807-.698 3.724 0 2.993-.009 3.036-.773 3.8-.504.505-1.044.774-1.552.774-1.035 0-2.173 1.137-2.173 2.173 0 1.005-1.277 2.325-2.249 2.325-.423 0-1.009-.307-1.475-.773zm-53.975-8.996c-.466-.466-.773-1.052-.773-1.476s.307-1.01.773-1.475c.765-.765.807-.774 3.8-.774 2.918 0 3.053-.025 3.725-.697.437-.438.697-.988.697-1.476 0-.507.27-1.047.774-1.551l.773-.774h10.4l.774.774c.504.504.773 1.044.773 1.551 0 1.036 1.137 2.173 2.173 2.173 1.005 0 2.325 1.277 2.325 2.25 0 .422-.307 1.008-.774 1.475l-.773.773H67.93zm31.485 0c-.466-.466-.773-1.052-.773-1.476s.307-1.01.773-1.475 1.052-.774 1.476-.774c.928 0 2.249 1.321 2.249 2.25 0 .423-.308 1.009-.774 1.475s-1.052.773-1.475.773c-.424 0-1.01-.307-1.476-.773zm-53.975-4.498c-1.004-1.004-1.004-1.948 0-2.951.466-.466 1.052-.774 1.476-.774.928 0 2.249 1.321 2.249 2.25s-1.321 2.248-2.25 2.248c-.423 0-1.009-.307-1.475-.773zm49.477 0c-.765-.765-.773-.808-.773-3.8 0-2.918-.026-3.053-.698-3.725-.672-.672-.807-.698-3.725-.698-2.992 0-3.035-.009-3.8-.773-.762-.762-.773-.815-.773-3.724s.01-2.963.773-3.725c.466-.466 1.052-.773 1.476-.773.972 0 2.249 1.32 2.249 2.324 0 1.076 1.135 2.174 2.249 2.174.57 0 1.086-.232 1.551-.698.674-.674.698-.8.698-3.8s-.024-3.126-.698-3.8c-.437-.438-.988-.698-1.476-.698-1.049 0-2.324-1.276-2.324-2.325 0-1.076-1.136-2.173-2.25-2.173s-2.248 1.097-2.248 2.173c0 1.05-1.276 2.325-2.325 2.325-.488 0-1.038.26-1.476.697l-.697.698v10.552l-.774.773c-.466.466-1.052.774-1.475.774-.424 0-1.01-.308-1.476-.774l-.773-.773V95.21l.773-.774.774-.773h10.4l.773.773c.504.505.773 1.045.773 1.552 0 .488.26 1.038.698 1.475.672.673.807.698 3.724.698 2.993 0 3.036.009 3.8.773l.774.774V128.1l-.773.773c-.466.466-1.053.774-1.476.774s-1.01-.308-1.475-.774zm-53.975-4.498c-.466-.466-.773-1.052-.773-1.476 0-.928 1.32-2.249 2.249-2.249s2.249 1.321 2.249 2.25c0 .928-1.321 2.248-2.25 2.248-.423 0-1.009-.307-1.475-.773zm0-8.996l-.773-.773V86.214l.773-.774.773-.773h28.392l.774.773.773.774v28.392l-.773.773-.774.774H40.942zm25.517-4.422l.697-.697v-19.7l-.697-.697-.698-.697H45.29l-.697.697-.698.698v19.699l.698.697.697.698h19.7zm-16.521-4.574l-.773-.773v-10.4l.773-.773.773-.774h10.4l.774.774.773.773v10.4l-.773.773-.774.774h-10.4zm53.975 8.996l-.773-.773V86.214l.773-.774.773-.773h28.392l.774.773.773.774v28.392l-.773.773-.774.774h-28.392zm25.517-4.422l.697-.697v-19.7l-.697-.697-.698-.697H108.26l-.697.697-.698.698v19.699l.698.697.697.698h19.7zm-16.521-4.574l-.773-.773v-10.4l.773-.773.773-.774h10.4l.774.774.773.773v10.4l-.773.773-.774.774h-10.4zM89.646 92.89c-.762-.762-.773-.815-.773-3.724s.01-2.962.773-3.725c.762-.762.815-.773 3.724-.773 2.91 0 2.963.011 3.725.773.466.467.773 1.053.773 1.476 0 .972-1.32 2.249-2.324 2.249-1.036 0-2.174 1.137-2.174 2.173 0 1.005-1.277 2.325-2.249 2.325-.423 0-1.009-.307-1.475-.773zm-8.996-4.497c-.466-.467-.773-1.053-.773-1.476 0-.928 1.32-2.25 2.249-2.25s2.249 1.322 2.249 2.25-1.321 2.249-2.25 2.249c-.423 0-1.009-.307-1.475-.773z" fill="url(#a)" transform="translate(-37.807 -84.672)"/><path d="M40.168 178.35l-.773-.773v-28.392l.773-.774.773-.773h28.392l.774.773.773.774v28.392l-.773.773-.774.773H40.941zm25.517-4.422l.698-.698v-19.699l-.698-.697-.698-.698H45.288l-.697.698-.698.697v19.7l.698.697.697.697h19.7zm-16.521-4.574l-.773-.773v-10.4l.773-.774.773-.773h10.4l.774.773.773.774v10.4l-.773.773-.774.773h-10.4zm26.988 8.996c-.466-.466-.773-1.052-.773-1.476s.307-1.009.773-1.475c.762-.763.816-.774 3.724-.774s2.963.011 3.725.774c.466.466.773 1.052.773 1.475s-.307 1.01-.773 1.476c-.762.762-.816.773-3.724.773s-2.963-.01-3.725-.773zm13.494 0c-.466-.466-.773-1.052-.773-1.476 0-.928 1.32-2.249 2.249-2.249.928 0 2.249 1.321 2.249 2.25s-1.321 2.248-2.25 2.248c-.423 0-1.009-.307-1.475-.773zm8.996 0c-.466-.466-.774-1.052-.774-1.476 0-.928 1.321-2.249 2.25-2.249.928 0 2.248 1.321 2.248 2.25s-1.32 2.248-2.249 2.248c-.423 0-1.009-.307-1.475-.773zm13.494 0c-.504-.504-.774-1.044-.774-1.552 0-.487-.26-1.038-.697-1.475s-.988-.698-1.476-.698c-1.005 0-2.325-1.277-2.325-2.249 0-.972 1.32-2.249 2.325-2.249 1.036 0 2.173-1.137 2.173-2.173 0-.507.27-1.047.774-1.551.764-.765.807-.774 3.8-.774 2.918 0 3.052-.025 3.725-.697.672-.672.697-.807.697-3.725 0-2.992.01-3.035.774-3.8 1.003-1.004 1.947-1.004 2.95 0l.774.773v15.05l.698.698c.437.437.987.698 1.475.698 1.005 0 2.325 1.277 2.325 2.249 0 .423-.307 1.009-.773 1.475l-.774.774H112.91zm7.525-4.422c.465-.466.697-.982.697-1.552 0-.57-.232-1.086-.697-1.551-.466-.465-.982-.698-1.552-.698s-1.086.233-1.551.698c-.466.465-.698.982-.698 1.551 0 .57.232 1.086.698 1.552.465.465.982.697 1.551.697s1.086-.232 1.552-.697zm-43.508-4.574l-.774-.773v-14.898l.774-.774c.762-.762.815-.773 3.724-.773s2.962.01 3.725.773c.466.466.773 1.053.773 1.476 0 .972-1.32 2.249-2.325 2.249-.488 0-1.038.26-1.475.697-.675.675-.698.801-.698 3.8 0 3 .023 3.127.698 3.801.437.438.987.698 1.475.698 1.005 0 2.325 1.277 2.325 2.249 0 .423-.307 1.009-.773 1.475-.763.763-.816.774-3.725.774s-2.962-.011-3.724-.774zm13.494 0c-.467-.466-.774-1.052-.774-1.476 0-.928 1.321-2.249 2.25-2.249.927 0 2.248 1.321 2.248 2.25 0 .928-1.32 2.248-2.249 2.248-.423 0-1.009-.307-1.475-.773zm8.996 0c-.467-.466-.774-1.052-.774-1.476 0-.928 1.32-2.249 2.25-2.249.927 0 2.248 1.321 2.248 2.25 0 .928-1.32 2.248-2.249 2.248-.423 0-1.01-.307-1.475-.773zm-13.494-4.498c-.763-.762-.774-.815-.774-3.724s.011-2.963.774-3.725c.466-.466 1.052-.773 1.475-.773s1.01.307 1.476.773c.762.762.773.816.773 3.725s-.01 2.962-.773 3.724c-.467.466-1.053.774-1.476.774s-1.01-.308-1.475-.774zm8.995 0c-.764-.765-.773-.807-.773-3.8 0-2.918-.025-3.053-.698-3.725-.437-.437-.987-.697-1.475-.697-1.005 0-2.325-1.277-2.325-2.25 0-.971 1.32-2.248 2.325-2.248 1.076 0 2.173-1.136 2.173-2.25 0-.57-.232-1.085-.698-1.55l-.697-.698h-15.05l-.774-.774c-.504-.504-.773-1.044-.773-1.551 0-.488-.26-1.038-.698-1.476l-.697-.697H63.432l-.773-.774c-.763-.762-.774-.815-.774-3.724 0-2.91.011-2.962.774-3.725.466-.466 1.052-.773 1.475-.773.972 0 2.25 1.32 2.25 2.325 0 .488.26 1.038.697 1.475l.697.698h15.05l.774.773c.504.504.773 1.045.773 1.552 0 1.076 1.135 2.173 2.249 2.173s2.249-1.097 2.249-2.173c0-1.005 1.277-2.325 2.249-2.325.972 0 2.249 1.32 2.249 2.325 0 1.076 1.135 2.173 2.249 2.173s2.249-1.097 2.249-2.173c0-1.005 1.277-2.325 2.249-2.325.972 0 2.249 1.32 2.249 2.325 0 1.036 1.137 2.173 2.173 2.173 1.05 0 2.325 1.276 2.325 2.325 0 .487.26 1.038.697 1.475s.988.698 1.476.698c1.005 0 2.325 1.277 2.325 2.249 0 .972-1.32 2.249-2.325 2.249-.488 0-1.038.26-1.476.697s-.697.988-.697 1.476c0 .507-.27 1.047-.773 1.551-.765.765-.808.774-3.8.774-2.919 0-3.053.025-3.725.697-.673.673-.698.807-.698 3.725 0 2.993-.009 3.035-.773 3.8-.467.466-1.053.774-1.476.774s-1.01-.308-1.476-.774zm7.525-13.418c1.402-1.401.422-3.8-1.551-3.8-1.154 0-2.25 1.094-2.25 2.249 0 1.154 1.096 2.249 2.25 2.249.57 0 1.086-.232 1.551-.698zm5.969 13.418c-.762-.762-.773-.815-.773-3.724s.01-2.963.773-3.725c.466-.466 1.052-.773 1.476-.773s1.009.307 1.475.773c.763.762.774.816.774 3.725s-.011 2.962-.774 3.724c-.466.466-1.052.774-1.475.774s-1.01-.308-1.476-.774zm8.996-8.996c-.466-.466-.774-1.052-.774-1.475 0-.928 1.321-2.25 2.25-2.25.423 0 1.009.308 1.475.774.466.466.773 1.052.773 1.476s-.307 1.009-.773 1.475-1.052.774-1.476.774-1.009-.307-1.475-.774zm13.494 0c-.466-.466-.774-1.052-.774-1.475 0-.928 1.321-2.25 2.25-2.25.423 0 1.009.308 1.475.774.466.466.773 1.052.773 1.476s-.307 1.009-.773 1.475-1.052.774-1.476.774-1.009-.307-1.475-.774zm-4.498-4.498c-.762-.762-.773-.815-.773-3.724s.01-2.962.773-3.725c.762-.762.815-.773 3.724-.773s2.963.011 3.725.773c.466.467.773 1.053.773 1.476 0 .972-1.32 2.249-2.324 2.249-.488 0-1.039.26-1.476.698-.437.437-.698.987-.698 1.475 0 1.005-1.277 2.325-2.249 2.325-.423 0-1.009-.307-1.475-.773zm-8.996-4.497c-.466-.467-.773-1.053-.773-1.476 0-.928 1.32-2.25 2.249-2.25.423 0 1.009.308 1.475.774s.774 1.053.774 1.476c0 .928-1.321 2.249-2.25 2.249-.423 0-1.009-.307-1.475-.773zm-62.97-4.498c-.505-.505-.774-1.045-.774-1.552 0-.488-.26-1.038-.698-1.475l-.697-.698H40.943l-.774-.773c-.762-.763-.773-.816-.773-3.725 0-2.909.01-2.962.773-3.724.466-.467 1.053-.774 1.476-.774.972 0 2.249 1.32 2.249 2.325 0 1.076 1.135 2.173 2.249 2.173 1.113 0 2.249-1.097 2.249-2.173 0-1.05 1.276-2.325 2.325-2.325 1.076 0 2.173-1.135 2.173-2.249s-1.097-2.249-2.173-2.249c-1.005 0-2.325-1.277-2.325-2.249 0-.423.307-1.009.773-1.475l.774-.774h19.396l.773.774c.466.466.773 1.052.773 1.475 0 .972-1.32 2.25-2.324 2.25-.488 0-1.039.26-1.476.697s-.698.988-.698 1.475c0 1.05-1.275 2.325-2.324 2.325-1.036 0-2.173 1.137-2.173 2.173 0 1.05-1.276 2.325-2.325 2.325-.488 0-1.038.26-1.476.698-.672.672-.697.806-.697 3.724 0 2.993-.01 3.036-.774 3.8-.466.467-1.052.774-1.475.774s-1.01-.307-1.476-.773zm58.472 0c-.504-.505-.773-1.045-.773-1.552 0-1.036-1.137-2.173-2.173-2.173-1.005 0-2.325-1.277-2.325-2.249 0-.972 1.32-2.249 2.325-2.249 1.036 0 2.173-1.137 2.173-2.173 0-1.005 1.277-2.325 2.249-2.325.423 0 1.009.307 1.475.774l.774.773v10.4l-.774.773c-.466.467-1.052.774-1.475.774s-1.01-.307-1.476-.774zm8.996 0c-.762-.763-.773-.816-.773-3.725 0-2.909.01-2.962.773-3.724.504-.505 1.044-.774 1.551-.774 1.076 0 2.173-1.135 2.173-2.249s-1.097-2.249-2.173-2.249c-1.049 0-2.324-1.275-2.324-2.325 0-.487-.26-1.038-.698-1.475-.674-.675-.8-.698-3.8-.698s-3.126.023-3.8.698c-.438.437-.698.988-.698 1.475 0 1.005-1.277 2.325-2.25 2.325-.971 0-2.248-1.32-2.248-2.325 0-1.035-1.138-2.173-2.173-2.173-1.005 0-2.325-1.277-2.325-2.249 0-.423.307-1.009.773-1.475l.774-.774h19.396l.773.774c.504.504.773 1.044.773 1.551 0 .488.26 1.038.698 1.476.672.672.807.697 3.724.697 2.993 0 3.036.01 3.8.774.467.466.774 1.052.774 1.475 0 .972-1.32 2.25-2.325 2.25-.488 0-1.038.26-1.475.697-.673.672-.698.807-.698 3.724 0 2.993-.009 3.036-.773 3.8-.504.505-1.044.774-1.552.774-1.035 0-2.173 1.137-2.173 2.173 0 1.005-1.277 2.325-2.249 2.325-.423 0-1.009-.307-1.475-.773zm-53.975-8.996c-.466-.466-.773-1.052-.773-1.476s.307-1.01.773-1.475c.765-.765.807-.774 3.8-.774 2.918 0 3.053-.025 3.725-.697.437-.438.697-.988.697-1.476 0-.507.27-1.047.774-1.551l.773-.774h10.4l.774.774c.504.504.773 1.044.773 1.551 0 1.036 1.137 2.173 2.173 2.173 1.005 0 2.325 1.277 2.325 2.25 0 .422-.307 1.008-.774 1.475l-.773.773H67.93zm31.485 0c-.466-.466-.773-1.052-.773-1.476s.307-1.01.773-1.475 1.052-.774 1.476-.774c.928 0 2.249 1.321 2.249 2.25 0 .423-.308 1.009-.774 1.475s-1.052.773-1.475.773c-.424 0-1.01-.307-1.476-.773zm-53.975-4.498c-1.004-1.004-1.004-1.948 0-2.951.466-.466 1.052-.774 1.476-.774.928 0 2.249 1.321 2.249 2.25s-1.321 2.248-2.25 2.248c-.423 0-1.009-.307-1.475-.773zm49.477 0c-.765-.765-.773-.808-.773-3.8 0-2.918-.026-3.053-.698-3.725-.672-.672-.807-.698-3.725-.698-2.992 0-3.035-.009-3.8-.773-.762-.762-.773-.815-.773-3.724s.01-2.963.773-3.725c.466-.466 1.052-.773 1.476-.773.972 0 2.249 1.32 2.249 2.324 0 1.076 1.135 2.174 2.249 2.174.57 0 1.086-.232 1.551-.698.674-.674.698-.8.698-3.8s-.024-3.126-.698-3.8c-.437-.438-.988-.698-1.476-.698-1.049 0-2.324-1.276-2.324-2.325 0-1.076-1.136-2.173-2.25-2.173s-2.248 1.097-2.248 2.173c0 1.05-1.276 2.325-2.325 2.325-.488 0-1.038.26-1.476.697l-.697.698v10.552l-.774.773c-.466.466-1.052.774-1.475.774-.424 0-1.01-.308-1.476-.774l-.773-.773V95.21l.773-.774.774-.773h10.4l.773.773c.504.505.773 1.045.773 1.552 0 .488.26 1.038.698 1.475.672.673.807.698 3.724.698 2.993 0 3.036.009 3.8.773l.774.774V128.1l-.773.773c-.466.466-1.053.774-1.476.774s-1.01-.308-1.475-.774zm-53.975-4.498c-.466-.466-.773-1.052-.773-1.476 0-.928 1.32-2.249 2.249-2.249s2.249 1.321 2.249 2.25c0 .928-1.321 2.248-2.25 2.248-.423 0-1.009-.307-1.475-.773zm0-8.996l-.773-.773V86.214l.773-.774.773-.773h28.392l.774.773.773.774v28.392l-.773.773-.774.774H40.942zm25.517-4.422l.697-.697v-19.7l-.697-.697-.698-.697H45.29l-.697.697-.698.698v19.699l.698.697.697.698h19.7zm-16.521-4.574l-.773-.773v-10.4l.773-.773.773-.774h10.4l.774.774.773.773v10.4l-.773.773-.774.774h-10.4zm53.975 8.996l-.773-.773V86.214l.773-.774.773-.773h28.392l.774.773.773.774v28.392l-.773.773-.774.774h-28.392zm25.517-4.422l.697-.697v-19.7l-.697-.697-.698-.697H108.26l-.697.697-.698.698v19.699l.698.697.697.698h19.7zm-16.521-4.574l-.773-.773v-10.4l.773-.773.773-.774h10.4l.774.774.773.773v10.4l-.773.773-.774.774h-10.4zM89.646 92.89c-.762-.762-.773-.815-.773-3.724s.01-2.962.773-3.725c.762-.762.815-.773 3.724-.773 2.91 0 2.963.011 3.725.773.466.467.773 1.053.773 1.476 0 .972-1.32 2.249-2.324 2.249-1.036 0-2.174 1.137-2.174 2.173 0 1.005-1.277 2.325-2.249 2.325-.423 0-1.009-.307-1.475-.773zm-8.996-4.497c-.466-.467-.773-1.053-.773-1.476 0-.928 1.32-2.25 2.249-2.25s2.249 1.322 2.249 2.25-1.321 2.249-2.25 2.249c-.423 0-1.009-.307-1.475-.773z" fill="url(#b)" transform="translate(-37.807 -84.672)"/><g stroke-width=".265"><path d="M40.168 178.35l-.773-.773v-28.392l.773-.774.773-.773h28.392l.774.773.773.774v28.392l-.773.773-.774.773H40.941zm25.517-4.422l.698-.698v-19.699l-.698-.697-.698-.698H45.288l-.697.698-.698.697v19.7l.698.697.697.697h19.7zm-16.521-4.574l-.773-.773v-10.4l.773-.774.773-.773h10.4l.774.773.773.774v10.4l-.773.773-.774.773h-10.4zm26.988 8.996c-.466-.466-.773-1.052-.773-1.476s.307-1.009.773-1.475c.762-.763.816-.774 3.724-.774s2.963.011 3.725.774c.466.466.773 1.052.773 1.475s-.307 1.01-.773 1.476c-.762.762-.816.773-3.724.773s-2.963-.01-3.725-.773zm13.494 0c-.466-.466-.773-1.052-.773-1.476 0-.928 1.32-2.249 2.249-2.249.928 0 2.249 1.321 2.249 2.25s-1.321 2.248-2.25 2.248c-.423 0-1.009-.307-1.475-.773zm8.996 0c-.466-.466-.774-1.052-.774-1.476 0-.928 1.321-2.249 2.25-2.249.928 0 2.248 1.321 2.248 2.25s-1.32 2.248-2.249 2.248c-.423 0-1.009-.307-1.475-.773zm13.494 0c-.504-.504-.774-1.044-.774-1.552 0-.487-.26-1.038-.697-1.475s-.988-.698-1.476-.698c-1.005 0-2.325-1.277-2.325-2.249 0-.972 1.32-2.249 2.325-2.249 1.036 0 2.173-1.137 2.173-2.173 0-.507.27-1.047.774-1.551.764-.765.807-.774 3.8-.774 2.918 0 3.052-.025 3.725-.697.672-.672.697-.807.697-3.725 0-2.992.01-3.035.774-3.8 1.003-1.004 1.947-1.004 2.95 0l.774.773v15.05l.698.698c.437.437.987.698 1.475.698 1.005 0 2.325 1.277 2.325 2.249 0 .423-.307 1.009-.773 1.475l-.774.774H112.91zm7.525-4.422c.465-.466.697-.982.697-1.552s-.232-1.086-.697-1.551c-.466-.465-.982-.698-1.552-.698s-1.086.233-1.551.698c-.466.465-.698.982-.698 1.551s.232 1.086.698 1.552c.465.465.982.697 1.551.697s1.086-.232 1.552-.697zm-43.508-4.574l-.774-.773v-14.898l.774-.774c.762-.762.815-.773 3.724-.773s2.962.01 3.725.773c.466.466.773 1.053.773 1.476 0 .972-1.32 2.249-2.325 2.249-.488 0-1.038.26-1.475.697-.675.675-.698.801-.698 3.8 0 3 .023 3.127.698 3.801.437.438.987.698 1.475.698 1.005 0 2.325 1.277 2.325 2.249 0 .423-.307 1.009-.773 1.475-.763.763-.816.774-3.725.774s-2.962-.011-3.724-.774zm13.494 0c-.467-.466-.774-1.052-.774-1.476 0-.928 1.321-2.249 2.25-2.249.927 0 2.248 1.321 2.248 2.25 0 .928-1.32 2.248-2.249 2.248-.423 0-1.009-.307-1.475-.773zm8.996 0c-.467-.466-.774-1.052-.774-1.476 0-.928 1.32-2.249 2.25-2.249.927 0 2.248 1.321 2.248 2.25 0 .928-1.32 2.248-2.249 2.248-.423 0-1.01-.307-1.475-.773zm-13.494-4.498c-.763-.762-.774-.815-.774-3.724s.011-2.963.774-3.725c.466-.466 1.052-.773 1.475-.773s1.01.307 1.476.773c.762.762.773.816.773 3.725s-.01 2.962-.773 3.724c-.467.466-1.053.774-1.476.774s-1.01-.308-1.475-.774zm8.995 0c-.764-.765-.773-.807-.773-3.8 0-2.918-.025-3.053-.698-3.725-.437-.437-.987-.697-1.475-.697-1.005 0-2.325-1.277-2.325-2.25 0-.971 1.32-2.248 2.325-2.248 1.076 0 2.173-1.136 2.173-2.25 0-.57-.232-1.085-.698-1.55l-.697-.698h-15.05l-.774-.774c-.504-.504-.773-1.044-.773-1.551 0-.488-.26-1.038-.698-1.476l-.697-.697H63.432l-.773-.774c-.763-.762-.774-.815-.774-3.724 0-2.91.011-2.962.774-3.725.466-.466 1.052-.773 1.475-.773.972 0 2.25 1.32 2.25 2.325 0 .488.26 1.038.697 1.475l.697.698h15.05l.774.773c.504.504.773 1.045.773 1.552 0 1.076 1.135 2.173 2.249 2.173s2.249-1.097 2.249-2.173c0-1.005 1.277-2.325 2.249-2.325.972 0 2.249 1.32 2.249 2.325 0 1.076 1.135 2.173 2.249 2.173s2.249-1.097 2.249-2.173c0-1.005 1.277-2.325 2.249-2.325.972 0 2.249 1.32 2.249 2.325 0 1.036 1.137 2.173 2.173 2.173 1.05 0 2.325 1.276 2.325 2.325 0 .487.26 1.038.697 1.475s.988.698 1.476.698c1.005 0 2.325 1.277 2.325 2.249 0 .972-1.32 2.249-2.325 2.249-.488 0-1.038.26-1.476.697s-.697.988-.697 1.476c0 .507-.27 1.047-.773 1.551-.765.765-.808.774-3.8.774-2.919 0-3.053.025-3.725.697-.673.673-.698.807-.698 3.725 0 2.993-.009 3.035-.773 3.8-.467.466-1.053.774-1.476.774s-1.01-.308-1.476-.774zm7.525-13.418c1.402-1.401.422-3.8-1.551-3.8-1.154 0-2.25 1.094-2.25 2.249 0 1.154 1.096 2.249 2.25 2.249.57 0 1.086-.232 1.551-.698zm5.969 13.418c-.762-.762-.773-.815-.773-3.724s.01-2.963.773-3.725c.466-.466 1.052-.773 1.476-.773s1.009.307 1.475.773c.763.762.774.816.774 3.725s-.011 2.962-.774 3.724c-.466.466-1.052.774-1.475.774s-1.01-.308-1.476-.774zm8.996-8.996c-.466-.466-.774-1.052-.774-1.475 0-.928 1.321-2.25 2.25-2.25.423 0 1.009.308 1.475.774s.773 1.052.773 1.476-.307 1.009-.773 1.475-1.052.774-1.476.774-1.009-.307-1.475-.774zm13.494 0c-.466-.466-.774-1.052-.774-1.475 0-.928 1.321-2.25 2.25-2.25.423 0 1.009.308 1.475.774s.773 1.052.773 1.476-.307 1.009-.773 1.475-1.052.774-1.476.774-1.009-.307-1.475-.774zm-4.498-4.498c-.762-.762-.773-.815-.773-3.724s.01-2.962.773-3.725c.762-.762.815-.773 3.724-.773s2.963.011 3.725.773c.466.467.773 1.053.773 1.476 0 .972-1.32 2.249-2.324 2.249-.488 0-1.039.26-1.476.698-.437.437-.698.987-.698 1.475 0 1.005-1.277 2.325-2.249 2.325-.423 0-1.009-.307-1.475-.773zm-8.996-4.497c-.466-.467-.773-1.053-.773-1.476 0-.928 1.32-2.25 2.249-2.25.423 0 1.009.308 1.475.774s.774 1.053.774 1.476c0 .928-1.321 2.249-2.25 2.249-.423 0-1.009-.307-1.475-.773zm-62.97-4.498c-.505-.505-.774-1.045-.774-1.552 0-.488-.26-1.038-.698-1.475l-.697-.698H40.943l-.774-.773c-.762-.763-.773-.816-.773-3.725 0-2.909.01-2.962.773-3.724.466-.467 1.053-.774 1.476-.774.972 0 2.249 1.32 2.249 2.325 0 1.076 1.135 2.173 2.249 2.173 1.113 0 2.249-1.097 2.249-2.173 0-1.05 1.276-2.325 2.325-2.325 1.076 0 2.173-1.135 2.173-2.249s-1.097-2.249-2.173-2.249c-1.005 0-2.325-1.277-2.325-2.249 0-.423.307-1.009.773-1.475l.774-.774h19.396l.773.774c.466.466.773 1.052.773 1.475 0 .972-1.32 2.25-2.324 2.25-.488 0-1.039.26-1.476.697s-.698.988-.698 1.475c0 1.05-1.275 2.325-2.324 2.325-1.036 0-2.173 1.137-2.173 2.173 0 1.05-1.276 2.325-2.325 2.325-.488 0-1.038.26-1.476.698-.672.672-.697.806-.697 3.724 0 2.993-.01 3.036-.774 3.8-.466.467-1.052.774-1.475.774s-1.01-.307-1.476-.773zm58.472 0c-.504-.505-.773-1.045-.773-1.552 0-1.036-1.137-2.173-2.173-2.173-1.005 0-2.325-1.277-2.325-2.249 0-.972 1.32-2.249 2.325-2.249 1.036 0 2.173-1.137 2.173-2.173 0-1.005 1.277-2.325 2.249-2.325.423 0 1.009.307 1.475.774l.774.773v10.4l-.774.773c-.466.467-1.052.774-1.475.774s-1.01-.307-1.476-.774zm8.996 0c-.762-.763-.773-.816-.773-3.725 0-2.909.01-2.962.773-3.724.504-.505 1.044-.774 1.551-.774 1.076 0 2.173-1.135 2.173-2.249s-1.097-2.249-2.173-2.249c-1.049 0-2.324-1.275-2.324-2.325 0-.487-.26-1.038-.698-1.475-.674-.675-.8-.698-3.8-.698s-3.126.023-3.8.698c-.438.437-.698.988-.698 1.475 0 1.005-1.277 2.325-2.25 2.325-.971 0-2.248-1.32-2.248-2.325 0-1.035-1.138-2.173-2.173-2.173-1.005 0-2.325-1.277-2.325-2.249 0-.423.307-1.009.773-1.475l.774-.774h19.396l.773.774c.504.504.773 1.044.773 1.551 0 .488.26 1.038.698 1.476.672.672.807.697 3.724.697 2.993 0 3.036.01 3.8.774.467.466.774 1.052.774 1.475 0 .972-1.32 2.25-2.325 2.25-.488 0-1.038.26-1.475.697-.673.672-.698.807-.698 3.724 0 2.993-.009 3.036-.773 3.8-.504.505-1.044.774-1.552.774-1.035 0-2.173 1.137-2.173 2.173 0 1.005-1.277 2.325-2.249 2.325-.423 0-1.009-.307-1.475-.773zm-53.975-8.996c-.466-.466-.773-1.052-.773-1.476s.307-1.01.773-1.475c.765-.765.807-.774 3.8-.774 2.918 0 3.053-.025 3.725-.697.437-.438.697-.988.697-1.476 0-.507.27-1.047.774-1.551l.773-.774h10.4l.774.774c.504.504.773 1.044.773 1.551 0 1.036 1.137 2.173 2.173 2.173 1.005 0 2.325 1.277 2.325 2.25 0 .422-.307 1.008-.774 1.475l-.773.773H67.93zm31.485 0c-.466-.466-.773-1.052-.773-1.476s.307-1.01.773-1.475 1.052-.774 1.476-.774c.928 0 2.249 1.321 2.249 2.25 0 .423-.308 1.009-.774 1.475s-1.052.773-1.475.773c-.424 0-1.01-.307-1.476-.773zm-53.975-4.498c-1.004-1.004-1.004-1.948 0-2.951.466-.466 1.052-.774 1.476-.774.928 0 2.249 1.321 2.249 2.25s-1.321 2.248-2.25 2.248c-.423 0-1.009-.307-1.475-.773zm49.477 0c-.765-.765-.773-.808-.773-3.8 0-2.918-.026-3.053-.698-3.725-.672-.672-.807-.698-3.725-.698-2.992 0-3.035-.009-3.8-.773-.762-.762-.773-.815-.773-3.724s.01-2.963.773-3.725c.466-.466 1.052-.773 1.476-.773.972 0 2.249 1.32 2.249 2.324 0 1.076 1.135 2.174 2.249 2.174.57 0 1.086-.232 1.551-.698.674-.674.698-.8.698-3.8s-.024-3.126-.698-3.8c-.437-.438-.988-.698-1.476-.698-1.049 0-2.324-1.276-2.324-2.325 0-1.076-1.136-2.173-2.25-2.173s-2.248 1.097-2.248 2.173c0 1.05-1.276 2.325-2.325 2.325-.488 0-1.038.26-1.476.697l-.697.698v10.552l-.774.773c-.466.466-1.052.774-1.475.774-.424 0-1.01-.308-1.476-.774l-.773-.773V95.21l.773-.774.774-.773h10.4l.773.773c.504.505.773 1.045.773 1.552 0 .488.26 1.038.698 1.475.672.673.807.698 3.724.698 2.993 0 3.036.009 3.8.773l.774.774V128.1l-.773.773c-.466.466-1.053.774-1.476.774s-1.01-.308-1.475-.774zm-53.975-4.498c-.466-.466-.773-1.052-.773-1.476 0-.928 1.32-2.249 2.249-2.249s2.249 1.321 2.249 2.25c0 .928-1.321 2.248-2.25 2.248-.423 0-1.009-.307-1.475-.773zm0-8.996l-.773-.773V86.214l.773-.774.773-.773h28.392l.774.773.773.774v28.392l-.773.773-.774.774H40.942zm25.517-4.422l.697-.697v-19.7l-.697-.697-.698-.697H45.29l-.697.697-.698.698v19.699l.698.697.697.698h19.7zm-16.521-4.574l-.773-.773v-10.4l.773-.773.773-.774h10.4l.774.774.773.773v10.4l-.773.773-.774.774h-10.4zm53.975 8.996l-.773-.773V86.214l.773-.774.773-.773h28.392l.774.773.773.774v28.392l-.773.773-.774.774h-28.392zm25.517-4.422l.697-.697v-19.7l-.697-.697-.698-.697H108.26l-.697.697-.698.698v19.699l.698.697.697.698h19.7zm-16.521-4.574l-.773-.773v-10.4l.773-.773.773-.774h10.4l.774.774.773.773v10.4l-.773.773-.774.774h-10.4zM89.646 92.89c-.762-.762-.773-.815-.773-3.724s.01-2.962.773-3.725c.762-.762.815-.773 3.724-.773 2.91 0 2.963.011 3.725.773.466.467.773 1.053.773 1.476 0 .972-1.32 2.249-2.324 2.249-1.036 0-2.174 1.137-2.174 2.173 0 1.005-1.277 2.325-2.249 2.325-.423 0-1.009-.307-1.475-.773zm-8.996-4.497c-.466-.467-.773-1.053-.773-1.476 0-.928 1.32-2.25 2.249-2.25s2.249 1.322 2.249 2.25-1.321 2.249-2.25 2.249c-.423 0-1.009-.307-1.475-.773z" fill="url(#c)" transform="translate(-37.807 -84.672)"/><path d="M3.134 62.968l-.774.774-.773.773v28.392l.773.773.774.773h28.392l.773-.773.774-.773V64.515l-.774-.773-.773-.774H17.33zm4.346 4.498h19.7l.698.698.697.697v19.7l-.697.697-.698.697H7.48l-.697-.697-.698-.698V68.861l.698-.697zm4.65 4.498l-.774.773-.773.773v10.4l.773.774.774.773h10.4l.773-.773.774-.774v-10.4l-.774-.773-.773-.773h-5.2z" fill="#ff0039" opacity=".8"/><path d="M66.103 0l-.774.774-.773.773v28.392l.773.773.774.773h28.392l.773-.773.774-.773V1.547l-.774-.773L94.495 0H80.299zm4.346 4.498h19.7l.698.698.697.697v19.7l-.697.697-.698.697h-19.7l-.697-.697-.698-.698V5.893l.698-.697zm4.65 4.498l-.774.773-.773.773v10.4l.773.774.774.773h10.4l.773-.773.774-.774v-10.4l-.774-.773-.773-.773h-5.2z" fill="#00feff" opacity=".8"/><path d="M3.134 0L2.36.774l-.773.773v28.392l.773.773.774.773h28.392l.773-.773.774-.773V1.547l-.774-.773L31.526 0H17.33zM7.48 4.498h19.7l.698.698.697.697v19.7l-.697.697-.698.697H7.48l-.697-.697-.698-.698V5.893l.698-.697zm4.65 4.498l-.774.773-.773.773v10.4l.773.774.774.773h10.4l.773-.773.773-.774v-10.4l-.773-.773-.773-.773h-5.2z" fill="#30e60b" opacity=".8"/></g></svg>
