<?xml version="1.0" encoding="UTF-8" standalone="no"?>
<!-- Created with Inkscape (http://www.inkscape.org/) -->

<svg
   xmlns:dc="http://purl.org/dc/elements/1.1/"
   xmlns:cc="http://creativecommons.org/ns#"
   xmlns:rdf="http://www.w3.org/1999/02/22-rdf-syntax-ns#"
   xmlns:svg="http://www.w3.org/2000/svg"
   xmlns="http://www.w3.org/2000/svg"
   xmlns:xlink="http://www.w3.org/1999/xlink"
   xmlns:sodipodi="http://sodipodi.sourceforge.net/DTD/sodipodi-0.dtd"
   xmlns:inkscape="http://www.inkscape.org/namespaces/inkscape"
   width="363.00006"
   height="363.00024"
   viewBox="0 0 96.043767 96.043816"
   version="1.1"
   id="svg8"
   inkscape:version="0.92.2 (5c3e80d, 2017-08-06)"
   sodipodi:docname="qrbig-final.svg">
  <defs
     id="defs2">
    <linearGradient
       id="linearGradient92"
       inkscape:collect="always">
      <stop
         id="stop88"
         offset="0"
         style="stop-color:#00feff;stop-opacity:1" />
      <stop
         id="stop90"
         offset="1"
         style="stop-color:#0000ff;stop-opacity:0" />
    </linearGradient>
    <linearGradient
       inkscape:collect="always"
       id="linearGradient60">
      <stop
         style="stop-color:#ff0039;stop-opacity:1"
         offset="0"
         id="stop56" />
      <stop
         style="stop-color:#ff0000;stop-opacity:0;"
         offset="1"
         id="stop58" />
    </linearGradient>
    <linearGradient
       inkscape:collect="always"
       id="linearGradient28">
      <stop
         style="stop-color:#30e60b;stop-opacity:1"
         offset="0"
         id="stop24" />
      <stop
         style="stop-color:#363959;stop-opacity:0.74901962"
         offset="1"
         id="stop26" />
    </linearGradient>
    <radialGradient
       inkscape:collect="always"
       xlink:href="#linearGradient60"
       id="radialGradient906"
       cx="58.293377"
       cy="164.19806"
       fx="58.293377"
       fy="164.19806"
       r="48.154167"
       gradientTransform="matrix(0.81632653,-0.69466254,0.64807338,0.7615779,-178.65402,274.64048)"
       gradientUnits="userSpaceOnUse" />
    <radialGradient
       inkscape:collect="always"
       xlink:href="#linearGradient28"
       id="radialGradient1029"
       cx="166.88249"
       cy="89.396584"
       fx="166.88249"
       fy="89.396584"
       r="47.22813"
       gradientTransform="matrix(1.5516162,1.897157,-1.394045,1.1401398,-89.027159,-329.3571)"
       gradientUnits="userSpaceOnUse" />
    <radialGradient
       inkscape:collect="always"
       xlink:href="#linearGradient60"
       id="radialGradient1029-9"
       cx="848.8465"
       cy="122.02869"
       fx="848.8465"
       fy="122.02869"
       r="47.22813"
       gradientTransform="matrix(0.82439093,-0.91962956,1.3409815,1.2021019,-815.02915,802.51892)"
       gradientUnits="userSpaceOnUse" />
    <radialGradient
       inkscape:collect="always"
       xlink:href="#linearGradient92"
       id="radialGradient1029-9-6"
       cx="925.53314"
       cy="114.85636"
       fx="925.53314"
       fy="114.85636"
       r="47.22813"
       gradientTransform="matrix(-1.0476186,0.50592494,-0.78317153,-1.6217037,1184.4129,-186.77279)"
       gradientUnits="userSpaceOnUse" />
  </defs>
  <sodipodi:namedview
     id="base"
     pagecolor="#ffffff"
     bordercolor="#666666"
     borderopacity="1.0"
     inkscape:pageopacity="0.0"
     inkscape:pageshadow="2"
     inkscape:zoom="0.7"
     inkscape:cx="173.77379"
     inkscape:cy="140.55447"
     inkscape:document-units="mm"
     inkscape:current-layer="layer1"
     showgrid="false"
     inkscape:window-width="1920"
     inkscape:window-height="1016"
     inkscape:window-x="0"
     inkscape:window-y="27"
     inkscape:window-maximized="1"
     units="px"
     fit-margin-top="0"
     fit-margin-left="0"
     fit-margin-right="0"
     fit-margin-bottom="0" />
  <metadata
     id="metadata5">
    <rdf:RDF>
      <cc:Work
         rdf:about="">
        <dc:format>image/svg+xml</dc:format>
        <dc:type
           rdf:resource="http://purl.org/dc/dcmitype/StillImage" />
        <dc:title></dc:title>
      </cc:Work>
    </rdf:RDF>
  </metadata>
  <g
     inkscape:label="Ebene 1"
     inkscape:groupmode="layer"
     id="layer1"
     transform="translate(-37.807067,-84.671824)">
    <path
       style="fill:#000000;fill-opacity:0.45967742;stroke-width:0.26458341"
       d="m 38.580467,179.94224 -0.7734,-0.7734 v -14.19591 -14.19592 l 0.7734,-0.77339 0.7734,-0.7734 h 14.19591 14.19592 l 0.77339,0.7734 0.7734,0.77339 v 14.19592 14.19591 l -0.7734,0.7734 -0.77339,0.7734 h -14.19592 -14.19591 z m 25.51657,-4.42206 0.69753,-0.69754 v -9.84971 -9.84972 l -0.69753,-0.69754 -0.69754,-0.69754 h -9.84972 -9.84972 l -0.69753,0.69754 -0.69754,0.69754 v 9.84972 9.84971 l 0.69754,0.69754 0.69753,0.69754 h 9.84972 9.84972 z m -16.52074,-4.57378 -0.7734,-0.77339 v -5.20008 -5.20008 l 0.7734,-0.7734 0.7734,-0.7734 h 5.20008 5.20008 l 0.7734,0.7734 0.7734,0.7734 v 5.20008 5.20008 l -0.7734,0.77339 -0.7734,0.7734 h -5.20008 -5.20008 z m 26.9875,8.99584 c -0.46624,-0.46624 -0.77339,-1.05226 -0.77339,-1.47556 0,-0.4233 0.30715,-1.00931 0.77339,-1.47556 0.76236,-0.76236 0.81553,-0.7734 3.72452,-0.7734 2.90899,0 2.96217,0.011 3.72452,0.7734 0.46624,0.46625 0.7734,1.05226 0.7734,1.47556 0,0.4233 -0.30716,1.00932 -0.7734,1.47556 -0.76235,0.76236 -0.81553,0.7734 -3.72452,0.7734 -2.90899,0 -2.96216,-0.011 -3.72452,-0.7734 z m 13.49376,0 c -0.46625,-0.46624 -0.7734,-1.05226 -0.7734,-1.47556 0,-0.92816 1.3208,-2.24896 2.24896,-2.24896 0.92815,0 2.24895,1.3208 2.24895,2.24896 0,0.92816 -1.3208,2.24896 -2.24895,2.24896 -0.4233,0 -1.00932,-0.30716 -1.47556,-0.7734 z m 8.99583,0 c -0.46624,-0.46624 -0.7734,-1.05226 -0.7734,-1.47556 0,-0.92816 1.3208,-2.24896 2.248962,-2.24896 0.928157,0 2.248951,1.3208 2.248951,2.24896 0,0.92816 -1.320794,2.24896 -2.248951,2.24896 -0.423302,0 -1.009322,-0.30716 -1.475562,-0.7734 z m 13.493743,0 c -0.50413,-0.50413 -0.7734,-1.04428 -0.7734,-1.55142 0,-0.48785 -0.26016,-1.03818 -0.69754,-1.47556 -0.43738,-0.43738 -0.98771,-0.69754 -1.47556,-0.69754 -1.00479,0 -2.32482,-1.27695 -2.32482,-2.24895 0,-0.97201 1.32003,-2.24897 2.32482,-2.24897 1.0359,0 2.1731,-1.1372 2.1731,-2.1731 0,-0.50714 0.26927,-1.04729 0.7734,-1.55142 0.76467,-0.76467 0.80755,-0.77339 3.80038,-0.77339 2.91775,0 3.05215,-0.0252 3.72452,-0.69754 0.67237,-0.67237 0.69754,-0.80677 0.69754,-3.72452 0,-2.99283 0.009,-3.03571 0.77339,-3.80038 1.00357,-1.00356 1.94756,-1.00356 2.95112,0 l 0.7734,0.7734 v 7.52489 7.5249 l 0.69754,0.69754 c 0.43738,0.43738 0.98772,0.69754 1.47556,0.69754 1.00479,0 2.32482,1.27695 2.32482,2.24896 0,0.4233 -0.30716,1.00932 -0.7734,1.47556 l -0.77339,0.7734 h -7.44904 -7.44904 z m 7.5249,-4.42206 c 0.46547,-0.46547 0.69754,-0.98161 0.69754,-1.55141 0,-0.56982 -0.23207,-1.08595 -0.69754,-1.55143 -0.46548,-0.46548 -0.98161,-0.69754 -1.55142,-0.69754 -0.56981,0 -1.08595,0.23206 -1.55142,0.69754 -0.46548,0.46548 -0.69754,0.98161 -0.69754,1.55143 0,0.5698 0.23206,1.08594 0.69754,1.55141 0.46547,0.46548 0.98161,0.69754 1.55142,0.69754 0.56981,0 1.08594,-0.23206 1.55142,-0.69754 z m -43.508233,-4.57378 -0.77339,-0.77339 v -7.44904 -7.44904 l 0.77339,-0.7734 c 0.76236,-0.76235 0.81553,-0.7734 3.72452,-0.7734 2.90899,0 2.96217,0.011 3.72452,0.7734 0.46624,0.46624 0.7734,1.05226 0.7734,1.47556 0,0.97201 -1.32003,2.24896 -2.32482,2.24896 -0.48784,0 -1.03818,0.26016 -1.47556,0.69754 -0.67435,0.67436 -0.69754,0.80066 -0.69754,3.80038 0,2.99971 0.0232,3.12602 0.69754,3.80038 0.43738,0.43738 0.98772,0.69754 1.47556,0.69754 1.00479,0 2.32482,1.27695 2.32482,2.24895 0,0.4233 -0.30716,1.00933 -0.7734,1.47556 -0.76235,0.76236 -0.81553,0.7734 -3.72452,0.7734 -2.90899,0 -2.96216,-0.011 -3.72452,-0.7734 z m 13.49376,0 c -0.46625,-0.46623 -0.7734,-1.05226 -0.7734,-1.47556 0,-0.92815 1.3208,-2.24895 2.24896,-2.24895 0.92815,0 2.24895,1.3208 2.24895,2.24895 0,0.92816 -1.3208,2.24896 -2.24895,2.24896 -0.4233,0 -1.00932,-0.30716 -1.47556,-0.7734 z m 8.99583,0 c -0.46624,-0.46623 -0.7734,-1.05226 -0.7734,-1.47556 0,-0.92815 1.3208,-2.24895 2.248962,-2.24895 0.928157,0 2.248951,1.3208 2.248951,2.24895 0,0.92816 -1.320794,2.24896 -2.248951,2.24896 -0.423302,0 -1.009322,-0.30716 -1.475562,-0.7734 z m -13.49375,-4.49791 c -0.76236,-0.76236 -0.7734,-0.81553 -0.7734,-3.72452 0,-2.90899 0.011,-2.96217 0.7734,-3.72452 0.46624,-0.46624 1.05226,-0.7734 1.47556,-0.7734 0.4233,0 1.00932,0.30716 1.47556,0.7734 0.76236,0.76235 0.7734,0.81553 0.7734,3.72452 0,2.90899 -0.011,2.96216 -0.7734,3.72452 -0.46624,0.46624 -1.05226,0.7734 -1.47556,0.7734 -0.4233,0 -1.00932,-0.30716 -1.47556,-0.7734 z m 8.99583,0 c -0.76467,-0.76468 -0.7734,-0.80755 -0.7734,-3.80038 0,-2.91775 -0.0252,-3.05215 -0.69753,-3.72452 -0.43738,-0.43738 -0.98772,-0.69754 -1.47557,-0.69754 -1.00479,0 -2.32481,-1.27695 -2.32481,-2.24896 0,-0.972 1.32002,-2.24896 2.32481,-2.24896 1.076,0 2.1731,-1.1354 2.1731,-2.24895 0,-0.56981 -0.23206,-1.08595 -0.69753,-1.55143 l -0.69754,-0.69753 h -7.5249 -7.5249 l -0.7734,-0.7734 c -0.50412,-0.50413 -0.77339,-1.04428 -0.77339,-1.55142 0,-0.48785 -0.26016,-1.03818 -0.69754,-1.47556 l -0.69754,-0.69754 h -5.27594 -5.27594 l -0.7734,-0.7734 c -0.76235,-0.76235 -0.77339,-0.81553 -0.77339,-3.72452 0,-2.90898 0.011,-2.96216 0.77339,-3.72451 0.46624,-0.46625 1.05226,-0.7734 1.47556,-0.7734 0.97201,0 2.24896,1.32002 2.24896,2.32481 0,0.48785 0.26016,1.03819 0.69754,1.47557 l 0.69754,0.69753 h 7.5249 7.5249 l 0.77339,0.7734 c 0.50413,0.50413 0.7734,1.04428 0.7734,1.55142 0,1.07599 1.13541,2.1731 2.24896,2.1731 1.11355,0 2.24896,-1.09711 2.24896,-2.1731 0,-1.00479 1.27695,-2.32482 2.24896,-2.32482 0.972,0 2.24895,1.32003 2.24895,2.32482 0,1.07599 1.13541,2.1731 2.24896,2.1731 1.11355,0 2.24896,-1.09711 2.24896,-2.1731 0,-1.00479 1.27695,-2.32482 2.248962,-2.32482 0.971994,0 2.248951,1.32003 2.248951,2.32482 0,1.0359 1.1372,2.1731 2.1731,2.1731 1.04915,0 2.32481,1.27566 2.32481,2.32482 0,0.48784 0.26016,1.03818 0.69754,1.47556 0.43738,0.43738 0.98772,0.69754 1.47556,0.69754 1.0048,0 2.32482,1.27695 2.32482,2.24896 0,0.972 -1.32002,2.24895 -2.32482,2.24895 -0.48784,0 -1.03818,0.26016 -1.47556,0.69754 -0.43738,0.43738 -0.69754,0.98772 -0.69754,1.47556 0,0.50715 -0.26926,1.0473 -0.77339,1.55142 -0.76468,0.76468 -0.80755,0.7734 -3.80038,0.7734 -2.917743,0 -3.052143,0.0252 -3.724513,0.69754 -0.67237,0.67237 -0.69754,0.80677 -0.69754,3.72452 0,2.99283 -0.009,3.0357 -0.7734,3.80038 -0.46624,0.46624 -1.05226,0.7734 -1.47556,0.7734 -0.4233,0 -1.00932,-0.30716 -1.47556,-0.7734 z m 7.524893,-13.41789 c 1.4014,-1.4014 0.42207,-3.80038 -1.551411,-3.80038 -1.154142,0 -2.248962,1.09482 -2.248962,2.24896 0,1.15413 1.09482,2.24895 2.248962,2.24895 0.569807,0 1.085934,-0.23206 1.551411,-0.69753 z m 5.96885,13.41789 c -0.76235,-0.76236 -0.7734,-0.81553 -0.7734,-3.72452 0,-2.90899 0.011,-2.96217 0.7734,-3.72452 0.46624,-0.46624 1.05226,-0.7734 1.47556,-0.7734 0.4233,0 1.00932,0.30716 1.47556,0.7734 0.76236,0.76235 0.7734,0.81553 0.7734,3.72452 0,2.90899 -0.011,2.96216 -0.7734,3.72452 -0.46624,0.46624 -1.05226,0.7734 -1.47556,0.7734 -0.4233,0 -1.00932,-0.30716 -1.47556,-0.7734 z m 8.99584,-8.99584 c -0.46624,-0.46624 -0.7734,-1.05226 -0.7734,-1.47556 0,-0.92816 1.3208,-2.24896 2.24896,-2.24896 0.4233,0 1.00932,0.30717 1.47556,0.7734 0.46624,0.46624 0.7734,1.05226 0.7734,1.47556 0,0.4233 -0.30716,1.00932 -0.7734,1.47556 -0.46624,0.46624 -1.05226,0.7734 -1.47556,0.7734 -0.4233,0 -1.00932,-0.30716 -1.47556,-0.7734 z m 13.49375,0 c -0.46624,-0.46624 -0.7734,-1.05226 -0.7734,-1.47556 0,-0.92816 1.3208,-2.24896 2.24896,-2.24896 0.4233,0 1.00932,0.30717 1.47556,0.7734 0.46624,0.46624 0.7734,1.05226 0.7734,1.47556 0,0.4233 -0.30716,1.00932 -0.7734,1.47556 -0.46624,0.46624 -1.05226,0.7734 -1.47556,0.7734 -0.4233,0 -1.00932,-0.30716 -1.47556,-0.7734 z m -4.49792,-4.49791 c -0.76236,-0.76236 -0.7734,-0.81553 -0.7734,-3.72452 0,-2.90899 0.011,-2.96217 0.7734,-3.72452 0.76236,-0.76236 0.81553,-0.7734 3.72452,-0.7734 2.90899,0 2.96216,0.011 3.72452,0.7734 0.46624,0.46624 0.7734,1.05226 0.7734,1.47556 0,0.972 -1.32003,2.24896 -2.32482,2.24896 -0.48785,0 -1.03818,0.26016 -1.47556,0.69753 -0.43738,0.43738 -0.69754,0.98772 -0.69754,1.47557 0,1.00479 -1.27695,2.32481 -2.24896,2.32481 -0.4233,0 -1.00932,-0.30715 -1.47556,-0.77339 z m -8.99583,-4.49792 c -0.46624,-0.46624 -0.7734,-1.05226 -0.7734,-1.47556 0,-0.92816 1.3208,-2.24896 2.24896,-2.24896 0.4233,0 1.00932,0.30716 1.47556,0.7734 0.46624,0.46624 0.7734,1.05226 0.7734,1.47556 0,0.92816 -1.3208,2.24896 -2.24896,2.24896 -0.4233,0 -1.00932,-0.30716 -1.47556,-0.7734 z M 52.074217,143.9589 c -0.50413,-0.50412 -0.7734,-1.04427 -0.7734,-1.55142 0,-0.48784 -0.26016,-1.03818 -0.69754,-1.47556 l -0.69753,-0.69754 h -5.27594 -5.27594 l -0.7734,-0.77339 c -0.76236,-0.76236 -0.7734,-0.81554 -0.7734,-3.72452 0,-2.90899 0.011,-2.96217 0.7734,-3.72452 0.46624,-0.46624 1.05226,-0.7734 1.47556,-0.7734 0.972,0 2.24896,1.32002 2.24896,2.32482 0,1.07599 1.1354,2.1731 2.24896,2.1731 1.11355,0 2.24895,-1.09711 2.24895,-2.1731 0,-1.04916 1.27567,-2.32482 2.32482,-2.32482 1.07599,0 2.1731,-1.13541 2.1731,-2.24896 0,-1.11355 -1.09711,-2.24896 -2.1731,-2.24896 -1.00479,0 -2.32482,-1.27695 -2.32482,-2.24896 0,-0.42329 0.30716,-1.00931 0.7734,-1.47556 l 0.7734,-0.77339 h 9.698 9.698 l 0.77339,0.77339 c 0.46624,0.46625 0.7734,1.05227 0.7734,1.47556 0,0.97201 -1.32003,2.24896 -2.32482,2.24896 -0.48784,0 -1.03818,0.26016 -1.47556,0.69754 -0.43738,0.43738 -0.69754,0.98772 -0.69754,1.47556 0,1.04916 -1.27566,2.32482 -2.32482,2.32482 -1.03589,0 -2.17309,1.13721 -2.17309,2.1731 0,1.04915 -1.27567,2.32482 -2.32482,2.32482 -0.48785,0 -1.03819,0.26016 -1.47556,0.69753 -0.67237,0.67237 -0.69754,0.80677 -0.69754,3.72453 0,2.99283 -0.009,3.0357 -0.7734,3.80037 -0.46624,0.46624 -1.05226,0.7734 -1.47556,0.7734 -0.4233,0 -1.00932,-0.30716 -1.47556,-0.7734 z m 58.472913,0 c -0.50413,-0.50412 -0.7734,-1.04427 -0.7734,-1.55142 0,-1.03589 -1.1372,-2.1731 -2.1731,-2.1731 -1.00479,0 -2.32482,-1.27695 -2.32482,-2.24895 0,-0.97201 1.32003,-2.24896 2.32482,-2.24896 1.0359,0 2.1731,-1.13721 2.1731,-2.1731 0,-1.0048 1.27695,-2.32482 2.24896,-2.32482 0.4233,0 1.00932,0.30716 1.47556,0.7734 l 0.7734,0.77339 v 5.20009 5.20008 l -0.7734,0.77339 c -0.46624,0.46624 -1.05226,0.7734 -1.47556,0.7734 -0.4233,0 -1.00932,-0.30716 -1.47556,-0.7734 z m 8.99583,0 c -0.76235,-0.76235 -0.77339,-0.81553 -0.77339,-3.72452 0,-2.90898 0.011,-2.96216 0.77339,-3.72451 0.50413,-0.50413 1.04428,-0.7734 1.55142,-0.7734 1.07599,0 2.1731,-1.13541 2.1731,-2.24896 0,-1.11355 -1.09711,-2.24896 -2.1731,-2.24896 -1.04915,0 -2.32481,-1.27566 -2.32481,-2.32482 0,-0.48784 -0.26016,-1.03818 -0.69754,-1.47556 -0.67436,-0.67435 -0.80067,-0.69754 -3.80038,-0.69754 -2.99972,0 -3.12602,0.0232 -3.80038,0.69754 -0.43738,0.43738 -0.69754,0.98772 -0.69754,1.47556 0,1.00479 -1.27695,2.32482 -2.24896,2.32482 -0.972,0 -2.24896,-1.32003 -2.24896,-2.32482 0,-1.03589 -1.1372,-2.1731 -2.1731,-2.1731 -1.00479,0 -2.32481,-1.27695 -2.32481,-2.24896 0,-0.42329 0.30716,-1.00931 0.7734,-1.47556 l 0.77339,-0.77339 h 9.698 9.698 l 0.77339,0.77339 c 0.50413,0.50413 0.7734,1.04428 0.7734,1.55142 0,0.48785 0.26016,1.03819 0.69754,1.47557 0.67237,0.67236 0.80677,0.69753 3.72452,0.69753 2.99283,0 3.03571,0.009 3.80038,0.7734 0.46624,0.46624 0.7734,1.05226 0.7734,1.47556 0,0.97201 -1.32003,2.24896 -2.32482,2.24896 -0.48785,0 -1.03818,0.26016 -1.47556,0.69754 -0.67237,0.67237 -0.69754,0.80676 -0.69754,3.72452 0,2.99283 -0.009,3.0357 -0.7734,3.80038 -0.50413,0.50412 -1.04428,0.77339 -1.55142,0.77339 -1.03589,0 -2.1731,1.13721 -2.1731,2.1731 0,1.0048 -1.27695,2.32482 -2.24896,2.32482 -0.4233,0 -1.00932,-0.30716 -1.47556,-0.7734 z m -53.974993,-8.99583 c -0.46624,-0.46624 -0.7734,-1.05226 -0.7734,-1.47556 0,-0.4233 0.30716,-1.00932 0.7734,-1.47556 0.76467,-0.76467 0.80755,-0.7734 3.80038,-0.7734 2.91775,0 3.05215,-0.0252 3.72452,-0.69754 0.43738,-0.43738 0.69754,-0.98771 0.69754,-1.47556 0,-0.50714 0.26927,-1.04729 0.77339,-1.55142 l 0.7734,-0.7734 h 5.20008 5.20008 l 0.7734,0.7734 c 0.50413,0.50413 0.7734,1.04428 0.7734,1.55142 0,1.03589 1.1372,2.1731 2.1731,2.1731 1.00479,0 2.32481,1.27695 2.32481,2.24896 0,0.4233 -0.30715,1.00932 -0.77339,1.47556 l -0.7734,0.7734 h -11.94696 -11.94695 z m 31.48542,0 c -0.46624,-0.46624 -0.7734,-1.05226 -0.7734,-1.47556 0,-0.4233 0.30716,-1.00932 0.7734,-1.47556 0.46624,-0.46624 1.05226,-0.7734 1.475562,-0.7734 0.928157,0 2.248951,1.3208 2.248951,2.24896 0,0.4233 -0.30716,1.00932 -0.7734,1.47556 -0.466237,0.46624 -1.052254,0.7734 -1.475551,0.7734 -0.423302,0 -1.009322,-0.30716 -1.475562,-0.7734 z m -53.97501,-4.49792 c -1.00356,-1.00356 -1.00356,-1.94756 0,-2.95112 0.46625,-0.46624 1.05227,-0.7734 1.47557,-0.7734 0.92816,0 2.24895,1.3208 2.24895,2.24896 0,0.92816 -1.32079,2.24896 -2.24895,2.24896 -0.4233,0 -1.00932,-0.30716 -1.47557,-0.7734 z m 49.47709,0 c -0.76467,-0.76467 -0.7734,-0.80754 -0.7734,-3.80038 0,-2.91775 -0.0252,-3.05215 -0.69753,-3.72452 -0.67237,-0.67236 -0.80677,-0.69753 -3.72452,-0.69753 -2.99284,0 -3.03571,-0.009 -3.80038,-0.7734 -0.76236,-0.76236 -0.7734,-0.81553 -0.7734,-3.72452 0,-2.90899 0.011,-2.96217 0.7734,-3.72452 0.46624,-0.46624 1.05226,-0.7734 1.47556,-0.7734 0.972,0 2.24896,1.32003 2.24896,2.32482 0,1.07599 1.1354,2.1731 2.24896,2.1731 0.5698,0 1.08594,-0.23206 1.55142,-0.69754 0.67435,-0.67435 0.69753,-0.80066 0.69753,-3.80038 0,-2.99971 -0.0232,-3.12602 -0.69753,-3.80038 -0.43738,-0.43738 -0.98772,-0.69753 -1.47557,-0.69753 -1.04915,0 -2.32481,-1.27567 -2.32481,-2.32482 0,-1.07599 -1.13541,-2.1731 -2.24896,-2.1731 -1.11355,0 -2.24896,1.09711 -2.24896,2.1731 0,1.04915 -1.27566,2.32482 -2.32482,2.32482 -0.48784,0 -1.03818,0.26015 -1.47556,0.69753 l -0.69754,0.69754 v 5.27594 5.27594 l -0.7734,0.7734 c -0.46624,0.46624 -1.05226,0.7734 -1.47556,0.7734 -0.42329,0 -1.00931,-0.30716 -1.47556,-0.7734 l -0.77339,-0.7734 V 108.74897 96.802011 l 0.77339,-0.7734 0.7734,-0.7734 h 5.20008 5.20008 l 0.7734,0.7734 c 0.50413,0.50413 0.7734,1.04428 0.7734,1.55142 0,0.48785 0.26016,1.03819 0.69753,1.47556 0.67237,0.67237 0.80677,0.69754 3.72453,0.69754 2.99283,0 3.0357,0.009 3.80037,0.773399 l 0.7734,0.77341 v 14.1959 14.19592 l -0.7734,0.77339 c -0.46624,0.46624 -1.05226,0.7734 -1.47556,0.7734 -0.4233,0 -1.00932,-0.30716 -1.47556,-0.7734 z m -53.975,-4.49792 c -0.46624,-0.46624 -0.7734,-1.05226 -0.7734,-1.47556 0,-0.92815 1.3208,-2.24895 2.24896,-2.24895 0.92816,0 2.24896,1.3208 2.24896,2.24895 0,0.92816 -1.3208,2.24896 -2.24896,2.24896 -0.4233,0 -1.00932,-0.30715 -1.47556,-0.7734 z m 0,-8.99583 -0.7734,-0.77339 v -14.1959 -14.195929 l 0.7734,-0.7734 0.7734,-0.7734 h 14.19591 14.19592 l 0.77339,0.7734 0.7734,0.7734 v 14.195929 14.1959 l -0.7734,0.77339 -0.77339,0.7734 h -14.19592 -14.19591 z m 25.51657,-4.42205 0.69753,-0.69754 v -9.8497 -9.849739 l -0.69753,-0.69753 -0.69754,-0.69754 h -9.84972 -9.84972 l -0.69753,0.69754 -0.69754,0.69753 v 9.849739 9.8497 l 0.69754,0.69754 0.69753,0.69753 h 9.84972 9.84972 z m -16.52074,-4.57378 -0.7734,-0.7734 v -5.20006 -5.200099 l 0.7734,-0.7734 0.7734,-0.7734 h 5.20008 5.20008 l 0.7734,0.7734 0.7734,0.7734 v 5.200099 5.20006 l -0.7734,0.7734 -0.7734,0.7734 h -5.20008 -5.20008 z m 53.975003,8.99583 -0.7734,-0.77339 v -14.1959 -14.195929 l 0.7734,-0.7734 0.77339,-0.7734 h 14.19592 14.19591 l 0.7734,0.7734 0.7734,0.7734 v 14.195929 14.1959 l -0.7734,0.77339 -0.7734,0.7734 h -14.19591 -14.19592 z m 25.51656,-4.42205 0.69754,-0.69754 v -9.8497 -9.849739 l -0.69754,-0.69753 -0.69754,-0.69754 h -9.84971 -9.84972 l -0.69754,0.69754 -0.69754,0.69753 v 9.849739 9.8497 l 0.69754,0.69754 0.69754,0.69753 h 9.84972 9.84971 z m -16.52073,-4.57378 -0.7734,-0.7734 v -5.20006 -5.200099 l 0.7734,-0.7734 0.7734,-0.7734 h 5.20008 5.20008 l 0.77339,0.7734 0.7734,0.7734 v 5.200099 5.20006 l -0.7734,0.7734 -0.77339,0.7734 h -5.20008 -5.20008 z M 88.057557,94.481821 c -0.76236,-0.76236 -0.7734,-0.81553 -0.7734,-3.72452 0,-2.90899 0.011,-2.96217 0.7734,-3.72452 0.76235,-0.76236 0.81553,-0.7734 3.72451,-0.7734 2.90899,0 2.96217,0.011 3.72452,0.7734 0.46624,0.46624 0.7734,1.05226 0.7734,1.47556 0,0.972 -1.32002,2.24896 -2.32482,2.24896 -1.03589,0 -2.1731,1.1372 -2.1731,2.1731 0,1.00479 -1.27695,2.32481 -2.24895,2.32481 -0.4233,0 -1.00932,-0.30715 -1.47556,-0.77339 z m -8.99584,-4.49792 c -0.46624,-0.46624 -0.7734,-1.05226 -0.7734,-1.47556 0,-0.92816 1.3208,-2.24896 2.24896,-2.24896 0.92816,0 2.24896,1.3208 2.24896,2.24896 0,0.92816 -1.3208,2.24896 -2.24896,2.24896 -0.4233,0 -1.00932,-0.30716 -1.47556,-0.7734 z"
       id="path1027-0-1-2"
       inkscape:connector-curvature="0" />
    <path
       style="fill:url(#radialGradient1029);fill-opacity:1;stroke-width:0.26458335"
       d="m 40.167968,178.35473 -0.7734,-0.7734 V 163.38542 149.1895 l 0.7734,-0.77339 0.7734,-0.7734 h 14.19591 14.19592 l 0.77339,0.7734 0.7734,0.77339 v 14.19592 14.19591 l -0.7734,0.7734 -0.77339,0.7734 h -14.19592 -14.19591 z m 25.51657,-4.42206 0.69753,-0.69754 v -9.84971 -9.84972 l -0.69753,-0.69754 -0.69754,-0.69754 h -9.84972 -9.84972 l -0.69753,0.69754 -0.69754,0.69754 v 9.84972 9.84971 l 0.69754,0.69754 0.69753,0.69754 h 9.84972 9.84972 z m -16.52074,-4.57378 -0.7734,-0.77339 v -5.20008 -5.20008 l 0.7734,-0.7734 0.7734,-0.7734 h 5.20008 5.20008 l 0.7734,0.7734 0.7734,0.7734 v 5.20008 5.20008 l -0.7734,0.77339 -0.7734,0.7734 h -5.20008 -5.20008 z m 26.9875,8.99584 c -0.46624,-0.46624 -0.77339,-1.05226 -0.77339,-1.47556 0,-0.4233 0.30715,-1.00932 0.77339,-1.47556 0.76236,-0.76236 0.81553,-0.7734 3.72452,-0.7734 2.90899,0 2.96217,0.011 3.72452,0.7734 0.46624,0.46624 0.7734,1.05226 0.7734,1.47556 0,0.4233 -0.30716,1.00932 -0.7734,1.47556 -0.76235,0.76236 -0.81553,0.7734 -3.72452,0.7734 -2.90899,0 -2.96216,-0.011 -3.72452,-0.7734 z m 13.49376,0 c -0.46625,-0.46624 -0.7734,-1.05226 -0.7734,-1.47556 0,-0.92816 1.3208,-2.24896 2.24896,-2.24896 0.92815,0 2.24895,1.3208 2.24895,2.24896 0,0.92816 -1.3208,2.24896 -2.24895,2.24896 -0.4233,0 -1.00932,-0.30716 -1.47556,-0.7734 z m 8.99583,0 c -0.46624,-0.46624 -0.7734,-1.05226 -0.7734,-1.47556 0,-0.92816 1.3208,-2.24896 2.248962,-2.24896 0.92816,0 2.24896,1.3208 2.24896,2.24896 0,0.92816 -1.3208,2.24896 -2.24896,2.24896 -0.423302,0 -1.009322,-0.30716 -1.475562,-0.7734 z m 13.493752,0 c -0.50413,-0.50413 -0.7734,-1.04428 -0.7734,-1.55142 0,-0.48785 -0.26016,-1.03818 -0.69754,-1.47556 -0.43738,-0.43738 -0.98771,-0.69754 -1.47556,-0.69754 -1.00479,0 -2.32482,-1.27695 -2.32482,-2.24896 0,-0.972 1.32003,-2.24896 2.32482,-2.24896 1.0359,0 2.1731,-1.1372 2.1731,-2.1731 0,-0.50714 0.26927,-1.04729 0.7734,-1.55142 0.76467,-0.76467 0.80755,-0.77339 3.80038,-0.77339 2.91775,0 3.05215,-0.0252 3.72452,-0.69754 0.67237,-0.67237 0.69754,-0.80677 0.69754,-3.72452 0,-2.99283 0.009,-3.03571 0.77339,-3.80038 1.00357,-1.00356 1.94756,-1.00356 2.95112,0 l 0.7734,0.7734 v 7.52489 7.5249 l 0.69754,0.69754 c 0.43738,0.43738 0.98772,0.69754 1.47556,0.69754 1.00479,0 2.32482,1.27695 2.32482,2.24896 0,0.4233 -0.30716,1.00932 -0.7734,1.47556 l -0.77339,0.7734 h -7.44904 -7.44904 z m 7.5249,-4.42206 c 0.46547,-0.46548 0.69754,-0.98161 0.69754,-1.55142 0,-0.56981 -0.23207,-1.08594 -0.69754,-1.55142 -0.46548,-0.46548 -0.98161,-0.69754 -1.55142,-0.69754 -0.56981,0 -1.08595,0.23206 -1.55142,0.69754 -0.46548,0.46548 -0.69754,0.98161 -0.69754,1.55142 0,0.56981 0.23206,1.08594 0.69754,1.55142 0.46547,0.46548 0.98161,0.69754 1.55142,0.69754 0.56981,0 1.08594,-0.23206 1.55142,-0.69754 z m -43.508242,-4.57378 -0.77339,-0.77339 v -7.44904 -7.44904 l 0.77339,-0.7734 c 0.76236,-0.76235 0.81553,-0.7734 3.72452,-0.7734 2.90899,0 2.96217,0.011 3.72452,0.7734 0.46624,0.46624 0.7734,1.05226 0.7734,1.47556 0,0.97201 -1.32003,2.24896 -2.32482,2.24896 -0.48784,0 -1.03818,0.26016 -1.47556,0.69754 -0.67435,0.67436 -0.69754,0.80066 -0.69754,3.80038 0,2.99971 0.0232,3.12602 0.69754,3.80038 0.43738,0.43738 0.98772,0.69754 1.47556,0.69754 1.00479,0 2.32482,1.27695 2.32482,2.24895 0,0.4233 -0.30716,1.00932 -0.7734,1.47556 -0.76235,0.76236 -0.81553,0.7734 -3.72452,0.7734 -2.90899,0 -2.96216,-0.011 -3.72452,-0.7734 z m 13.49376,0 c -0.46625,-0.46624 -0.7734,-1.05226 -0.7734,-1.47556 0,-0.92815 1.3208,-2.24895 2.24896,-2.24895 0.92815,0 2.24895,1.3208 2.24895,2.24895 0,0.92816 -1.3208,2.24896 -2.24895,2.24896 -0.4233,0 -1.00932,-0.30716 -1.47556,-0.7734 z m 8.99583,0 c -0.46624,-0.46624 -0.7734,-1.05226 -0.7734,-1.47556 0,-0.92815 1.3208,-2.24895 2.248962,-2.24895 0.92816,0 2.24896,1.3208 2.24896,2.24895 0,0.92816 -1.3208,2.24896 -2.24896,2.24896 -0.423302,0 -1.009322,-0.30716 -1.475562,-0.7734 z m -13.49375,-4.49791 c -0.76236,-0.76236 -0.7734,-0.81553 -0.7734,-3.72452 0,-2.90899 0.011,-2.96217 0.7734,-3.72452 0.46624,-0.46624 1.05226,-0.7734 1.47556,-0.7734 0.4233,0 1.00932,0.30716 1.47556,0.7734 0.76236,0.76235 0.7734,0.81553 0.7734,3.72452 0,2.90899 -0.011,2.96216 -0.7734,3.72452 -0.46624,0.46624 -1.05226,0.7734 -1.47556,0.7734 -0.4233,0 -1.00932,-0.30716 -1.47556,-0.7734 z m 8.99583,0 c -0.76467,-0.76468 -0.7734,-0.80755 -0.7734,-3.80038 0,-2.91775 -0.0252,-3.05215 -0.69753,-3.72452 -0.43738,-0.43738 -0.98772,-0.69754 -1.47557,-0.69754 -1.00479,0 -2.32481,-1.27695 -2.32481,-2.24896 0,-0.972 1.32002,-2.24896 2.32481,-2.24896 1.076,0 2.1731,-1.1354 2.1731,-2.24895 0,-0.56981 -0.23206,-1.08595 -0.69753,-1.55143 l -0.69754,-0.69753 h -7.5249 -7.5249 l -0.7734,-0.7734 c -0.50412,-0.50413 -0.77339,-1.04428 -0.77339,-1.55142 0,-0.48785 -0.26016,-1.03818 -0.69754,-1.47556 l -0.69754,-0.69754 h -5.27594 -5.27594 l -0.7734,-0.7734 c -0.76235,-0.76235 -0.77339,-0.81553 -0.77339,-3.72452 0,-2.90898 0.011,-2.96216 0.77339,-3.72451 0.46624,-0.46625 1.05226,-0.7734 1.47556,-0.7734 0.97201,0 2.24896,1.32002 2.24896,2.32481 0,0.48785 0.26016,1.03819 0.69754,1.47557 l 0.69754,0.69753 h 7.5249 7.5249 l 0.77339,0.7734 c 0.50413,0.50413 0.7734,1.04428 0.7734,1.55142 0,1.07599 1.13541,2.1731 2.24896,2.1731 1.11355,0 2.24896,-1.09711 2.24896,-2.1731 0,-1.00479 1.27695,-2.32482 2.24896,-2.32482 0.972,0 2.24895,1.32003 2.24895,2.32482 0,1.07599 1.13541,2.1731 2.24896,2.1731 1.11355,0 2.24896,-1.09711 2.24896,-2.1731 0,-1.00479 1.27695,-2.32482 2.248962,-2.32482 0.972,0 2.24896,1.32003 2.24896,2.32482 0,1.0359 1.1372,2.1731 2.1731,2.1731 1.04915,0 2.32481,1.27566 2.32481,2.32482 0,0.48784 0.26016,1.03818 0.69754,1.47556 0.43738,0.43738 0.98772,0.69754 1.47556,0.69754 1.0048,0 2.32482,1.27695 2.32482,2.24896 0,0.972 -1.32002,2.24895 -2.32482,2.24895 -0.48784,0 -1.03818,0.26016 -1.47556,0.69754 -0.43738,0.43738 -0.69754,0.98772 -0.69754,1.47556 0,0.50715 -0.26926,1.0473 -0.77339,1.55142 -0.76468,0.76468 -0.80755,0.7734 -3.80038,0.7734 -2.917752,0 -3.052152,0.0252 -3.724522,0.69754 -0.67237,0.67237 -0.69754,0.80677 -0.69754,3.72452 0,2.99283 -0.009,3.0357 -0.7734,3.80038 -0.46624,0.46624 -1.05226,0.7734 -1.47556,0.7734 -0.4233,0 -1.00932,-0.30716 -1.47556,-0.7734 z m 7.524902,-13.41789 c 1.4014,-1.4014 0.42207,-3.80038 -1.55142,-3.80038 -1.154142,0 -2.248962,1.09482 -2.248962,2.24896 0,1.15413 1.09482,2.24895 2.248962,2.24895 0.56981,0 1.08594,-0.23206 1.55142,-0.69753 z m 5.96885,13.41789 c -0.76235,-0.76236 -0.7734,-0.81553 -0.7734,-3.72452 0,-2.90899 0.011,-2.96217 0.7734,-3.72452 0.46624,-0.46624 1.05226,-0.7734 1.47556,-0.7734 0.4233,0 1.00932,0.30716 1.47556,0.7734 0.76236,0.76235 0.7734,0.81553 0.7734,3.72452 0,2.90899 -0.011,2.96216 -0.7734,3.72452 -0.46624,0.46624 -1.05226,0.7734 -1.47556,0.7734 -0.4233,0 -1.00932,-0.30716 -1.47556,-0.7734 z m 8.99584,-8.99584 c -0.46624,-0.46624 -0.7734,-1.05226 -0.7734,-1.47556 0,-0.92816 1.3208,-2.24896 2.24896,-2.24896 0.4233,0 1.00932,0.30716 1.47556,0.7734 0.46624,0.46624 0.7734,1.05226 0.7734,1.47556 0,0.4233 -0.30716,1.00932 -0.7734,1.47556 -0.46624,0.46624 -1.05226,0.7734 -1.47556,0.7734 -0.4233,0 -1.00932,-0.30716 -1.47556,-0.7734 z m 13.49375,0 c -0.46624,-0.46624 -0.7734,-1.05226 -0.7734,-1.47556 0,-0.92816 1.3208,-2.24896 2.24896,-2.24896 0.4233,0 1.00932,0.30716 1.47556,0.7734 0.46624,0.46624 0.7734,1.05226 0.7734,1.47556 0,0.4233 -0.30716,1.00932 -0.7734,1.47556 -0.46624,0.46624 -1.05226,0.7734 -1.47556,0.7734 -0.4233,0 -1.00932,-0.30716 -1.47556,-0.7734 z m -4.49792,-4.49791 c -0.76236,-0.76236 -0.7734,-0.81553 -0.7734,-3.72452 0,-2.90899 0.011,-2.96217 0.7734,-3.72452 0.76236,-0.76236 0.81553,-0.7734 3.72452,-0.7734 2.90899,0 2.96216,0.011 3.72452,0.7734 0.46624,0.46624 0.7734,1.05226 0.7734,1.47556 0,0.972 -1.32003,2.24896 -2.32482,2.24896 -0.48785,0 -1.03818,0.26016 -1.47556,0.69753 -0.43738,0.43738 -0.69754,0.98772 -0.69754,1.47557 0,1.00479 -1.27695,2.32481 -2.24896,2.32481 -0.4233,0 -1.00932,-0.30715 -1.47556,-0.77339 z m -8.99583,-4.49792 c -0.46624,-0.46624 -0.7734,-1.05226 -0.7734,-1.47556 0,-0.92816 1.3208,-2.24896 2.24896,-2.24896 0.4233,0 1.00932,0.30716 1.47556,0.7734 0.46624,0.46624 0.7734,1.05226 0.7734,1.47556 0,0.92816 -1.3208,2.24896 -2.24896,2.24896 -0.4233,0 -1.00932,-0.30716 -1.47556,-0.7734 z m -62.970842,-4.49792 c -0.50413,-0.50412 -0.7734,-1.04427 -0.7734,-1.55142 0,-0.48784 -0.26016,-1.03818 -0.69754,-1.47556 l -0.69753,-0.69754 h -5.27594 -5.27594 l -0.7734,-0.77339 c -0.76236,-0.76236 -0.7734,-0.81554 -0.7734,-3.72452 0,-2.90899 0.011,-2.96217 0.7734,-3.72452 0.46624,-0.46624 1.05226,-0.7734 1.47556,-0.7734 0.972,0 2.24896,1.32002 2.24896,2.32482 0,1.07599 1.1354,2.1731 2.24896,2.1731 1.11355,0 2.24895,-1.09711 2.24895,-2.1731 0,-1.04916 1.27567,-2.32482 2.32482,-2.32482 1.07599,0 2.1731,-1.13541 2.1731,-2.24896 0,-1.11355 -1.09711,-2.24896 -2.1731,-2.24896 -1.00479,0 -2.32482,-1.27695 -2.32482,-2.24896 0,-0.42329 0.30716,-1.00931 0.7734,-1.47556 l 0.7734,-0.77339 h 9.698 9.698 l 0.77339,0.77339 c 0.46624,0.46625 0.7734,1.05227 0.7734,1.47556 0,0.97201 -1.32003,2.24896 -2.32482,2.24896 -0.48784,0 -1.03818,0.26016 -1.47556,0.69754 -0.43738,0.43738 -0.69754,0.98772 -0.69754,1.47556 0,1.04916 -1.27566,2.32482 -2.32482,2.32482 -1.03589,0 -2.17309,1.13721 -2.17309,2.1731 0,1.04915 -1.27567,2.32482 -2.32482,2.32482 -0.48785,0 -1.03819,0.26016 -1.47556,0.69753 -0.67237,0.67237 -0.69754,0.80677 -0.69754,3.72453 0,2.99283 -0.009,3.0357 -0.7734,3.80037 -0.46624,0.46624 -1.05226,0.7734 -1.47556,0.7734 -0.4233,0 -1.00932,-0.30716 -1.47556,-0.7734 z m 58.472922,0 c -0.50413,-0.50412 -0.7734,-1.04427 -0.7734,-1.55142 0,-1.03589 -1.1372,-2.1731 -2.1731,-2.1731 -1.00479,0 -2.32482,-1.27695 -2.32482,-2.24895 0,-0.97201 1.32003,-2.24896 2.32482,-2.24896 1.0359,0 2.1731,-1.13721 2.1731,-2.1731 0,-1.0048 1.27695,-2.32482 2.24896,-2.32482 0.4233,0 1.00932,0.30716 1.47556,0.7734 l 0.7734,0.77339 v 5.20009 5.20008 l -0.7734,0.77339 c -0.46624,0.46624 -1.05226,0.7734 -1.47556,0.7734 -0.4233,0 -1.00932,-0.30716 -1.47556,-0.7734 z m 8.99583,0 c -0.76235,-0.76235 -0.77339,-0.81553 -0.77339,-3.72452 0,-2.90898 0.011,-2.96216 0.77339,-3.72451 0.50413,-0.50413 1.04428,-0.7734 1.55142,-0.7734 1.07599,0 2.1731,-1.13541 2.1731,-2.24896 0,-1.11355 -1.09711,-2.24896 -2.1731,-2.24896 -1.04915,0 -2.32481,-1.27566 -2.32481,-2.32482 0,-0.48784 -0.26016,-1.03818 -0.69754,-1.47556 -0.67436,-0.67435 -0.80067,-0.69754 -3.80038,-0.69754 -2.99972,0 -3.12602,0.0232 -3.80038,0.69754 -0.43738,0.43738 -0.69754,0.98772 -0.69754,1.47556 0,1.00479 -1.27695,2.32482 -2.24896,2.32482 -0.972,0 -2.24896,-1.32003 -2.24896,-2.32482 0,-1.03589 -1.1372,-2.1731 -2.1731,-2.1731 -1.00479,0 -2.32481,-1.27695 -2.32481,-2.24896 0,-0.42329 0.30716,-1.00931 0.7734,-1.47556 l 0.77339,-0.77339 h 9.698 9.698 l 0.77339,0.77339 c 0.50413,0.50413 0.7734,1.04428 0.7734,1.55142 0,0.48785 0.26016,1.03819 0.69754,1.47557 0.67237,0.67236 0.80677,0.69753 3.72452,0.69753 2.99283,0 3.03571,0.009 3.80038,0.7734 0.46624,0.46624 0.7734,1.05226 0.7734,1.47556 0,0.97201 -1.32003,2.24896 -2.32482,2.24896 -0.48785,0 -1.03818,0.26016 -1.47556,0.69754 -0.67237,0.67237 -0.69754,0.80676 -0.69754,3.72452 0,2.99283 -0.009,3.0357 -0.7734,3.80038 -0.50413,0.50412 -1.04428,0.77339 -1.55142,0.77339 -1.03589,0 -2.1731,1.13721 -2.1731,2.1731 0,1.0048 -1.27695,2.32482 -2.24896,2.32482 -0.4233,0 -1.00932,-0.30716 -1.47556,-0.7734 z m -53.975002,-8.99583 c -0.46624,-0.46624 -0.7734,-1.05226 -0.7734,-1.47556 0,-0.4233 0.30716,-1.00932 0.7734,-1.47556 0.76467,-0.76467 0.80755,-0.7734 3.80038,-0.7734 2.91775,0 3.05215,-0.0252 3.72452,-0.69754 0.43738,-0.43738 0.69754,-0.98771 0.69754,-1.47556 0,-0.50714 0.26927,-1.04729 0.77339,-1.55142 l 0.7734,-0.7734 h 5.20008 5.20008 l 0.7734,0.7734 c 0.50413,0.50413 0.7734,1.04428 0.7734,1.55142 0,1.03589 1.1372,2.1731 2.1731,2.1731 1.00479,0 2.32481,1.27695 2.32481,2.24896 0,0.4233 -0.30715,1.00932 -0.77339,1.47556 l -0.7734,0.7734 h -11.94696 -11.94695 z m 31.48542,0 c -0.46624,-0.46624 -0.7734,-1.05226 -0.7734,-1.47556 0,-0.4233 0.30716,-1.00932 0.7734,-1.47556 0.46624,-0.46624 1.05226,-0.7734 1.475562,-0.7734 0.92816,0 2.24896,1.3208 2.24896,2.24896 0,0.4233 -0.30716,1.00932 -0.7734,1.47556 -0.46624,0.46624 -1.05226,0.7734 -1.47556,0.7734 -0.423302,0 -1.009322,-0.30716 -1.475562,-0.7734 z m -53.97501,-4.49792 c -1.00356,-1.00356 -1.00356,-1.94756 0,-2.95112 0.46625,-0.46624 1.05227,-0.7734 1.47557,-0.7734 0.92816,0 2.24895,1.3208 2.24895,2.24896 0,0.92816 -1.32079,2.24896 -2.24895,2.24896 -0.4233,0 -1.00932,-0.30716 -1.47557,-0.7734 z m 49.47709,0 c -0.76467,-0.76467 -0.7734,-0.80754 -0.7734,-3.80038 0,-2.91775 -0.0252,-3.05215 -0.69753,-3.72452 -0.67237,-0.67236 -0.80677,-0.69753 -3.72452,-0.69753 -2.99284,0 -3.03571,-0.009 -3.80038,-0.7734 -0.76236,-0.76236 -0.7734,-0.81553 -0.7734,-3.72452 0,-2.90899 0.011,-2.96217 0.7734,-3.72452 0.46624,-0.46624 1.05226,-0.7734 1.47556,-0.7734 0.972,0 2.24896,1.32003 2.24896,2.32482 0,1.07599 1.1354,2.1731 2.24896,2.1731 0.5698,0 1.08594,-0.23206 1.55142,-0.69754 0.67435,-0.67435 0.69753,-0.80066 0.69753,-3.80038 0,-2.99971 -0.0232,-3.12602 -0.69753,-3.80038 -0.43738,-0.43738 -0.98772,-0.69753 -1.47557,-0.69753 -1.04915,0 -2.32481,-1.27567 -2.32481,-2.32482 0,-1.07599 -1.13541,-2.1731 -2.24896,-2.1731 -1.11355,0 -2.24896,1.09711 -2.24896,2.1731 0,1.04915 -1.27566,2.32482 -2.32482,2.32482 -0.48784,0 -1.03818,0.26015 -1.47556,0.69753 l -0.69754,0.69754 v 5.27594 5.27594 l -0.7734,0.7734 c -0.46624,0.46624 -1.05226,0.7734 -1.47556,0.7734 -0.42329,0 -1.00931,-0.30716 -1.47556,-0.7734 l -0.77339,-0.7734 V 107.16146 95.214503 l 0.77339,-0.7734 0.7734,-0.7734 h 5.20008 5.20008 l 0.7734,0.7734 c 0.50413,0.50413 0.7734,1.04428 0.7734,1.55142 0,0.48785 0.26016,1.03819 0.69753,1.47556 0.67237,0.67237 0.80677,0.69754 3.72453,0.69754 2.99283,0 3.0357,0.009 3.80037,0.7734 l 0.7734,0.7734 v 14.195907 14.19592 l -0.7734,0.77339 c -0.46624,0.46624 -1.05226,0.7734 -1.47556,0.7734 -0.4233,0 -1.00932,-0.30716 -1.47556,-0.7734 z m -53.975,-4.49792 c -0.46624,-0.46624 -0.7734,-1.05226 -0.7734,-1.47556 0,-0.92815 1.3208,-2.24895 2.24896,-2.24895 0.92816,0 2.24896,1.3208 2.24896,2.24895 0,0.92816 -1.3208,2.24896 -2.24896,2.24896 -0.4233,0 -1.00932,-0.30715 -1.47556,-0.7734 z m 0,-8.99583 -0.7734,-0.77339 V 100.41458 86.218669 l 0.7734,-0.7734 0.7734,-0.7734 h 14.19591 14.19592 l 0.77339,0.7734 0.7734,0.7734 v 14.195911 14.19592 l -0.7734,0.77339 -0.77339,0.7734 h -14.19592 -14.19591 z m 25.51657,-4.42205 0.69753,-0.69754 v -9.84972 -9.849721 l -0.69753,-0.69753 -0.69754,-0.69754 h -9.84972 -9.84972 l -0.69753,0.69754 -0.69754,0.69753 v 9.849721 9.84972 l 0.69754,0.69754 0.69753,0.69753 h 9.84972 9.84972 z m -16.52074,-4.57378 -0.7734,-0.7734 v -5.20008 -5.200077 l 0.7734,-0.7734 0.7734,-0.7734 h 5.20008 5.20008 l 0.7734,0.7734 0.7734,0.7734 v 5.200077 5.20008 l -0.7734,0.7734 -0.7734,0.7734 h -5.20008 -5.20008 z m 53.975012,8.99583 -0.7734,-0.77339 V 100.41458 86.218669 l 0.7734,-0.7734 0.77339,-0.7734 h 14.19592 14.19591 l 0.7734,0.7734 0.7734,0.7734 v 14.195911 14.19592 l -0.7734,0.77339 -0.7734,0.7734 H 118.10812 103.9122 Z m 25.51656,-4.42205 0.69754,-0.69754 v -9.84972 -9.849721 l -0.69754,-0.69753 -0.69754,-0.69754 h -9.84971 -9.84972 l -0.69754,0.69754 -0.69754,0.69753 v 9.849721 9.84972 l 0.69754,0.69754 0.69754,0.69753 h 9.84972 9.84971 z m -16.52073,-4.57378 -0.7734,-0.7734 v -5.20008 -5.200077 l 0.7734,-0.7734 0.7734,-0.7734 h 5.20008 5.20008 l 0.77339,0.7734 0.7734,0.7734 v 5.200077 5.20008 l -0.7734,0.7734 -0.77339,0.7734 h -5.20008 -5.20008 z M 89.645058,92.894309 c -0.76236,-0.76236 -0.7734,-0.81553 -0.7734,-3.72452 0,-2.90899 0.011,-2.96217 0.7734,-3.72452 0.76235,-0.76236 0.81553,-0.7734 3.72451,-0.7734 2.90899,0 2.96217,0.011 3.72452,0.7734 0.46624,0.46624 0.7734,1.05226 0.7734,1.47556 0,0.972 -1.32002,2.24896 -2.32482,2.24896 -1.03589,0 -2.1731,1.1372 -2.1731,2.1731 0,1.00479 -1.27695,2.324814 -2.24895,2.324814 -0.4233,0 -1.00932,-0.30715 -1.47556,-0.773394 z m -8.99584,-4.49792 c -0.46624,-0.46624 -0.7734,-1.05226 -0.7734,-1.47556 0,-0.92816 1.3208,-2.24896 2.24896,-2.24896 0.92816,0 2.24896,1.3208 2.24896,2.24896 0,0.92816 -1.3208,2.24896 -2.24896,2.24896 -0.4233,0 -1.00932,-0.30716 -1.47556,-0.7734 z"
       id="path1027"
       inkscape:connector-curvature="0" />
    <path
       style="fill:url(#radialGradient1029-9-6);fill-opacity:1;stroke-width:0.26458341"
       d="m 40.167968,178.35473 -0.7734,-0.7734 V 163.38542 149.1895 l 0.7734,-0.77339 0.7734,-0.7734 h 14.19591 14.19592 l 0.77339,0.7734 0.7734,0.77339 v 14.19592 14.19591 l -0.7734,0.7734 -0.77339,0.7734 h -14.19592 -14.19591 z m 25.51657,-4.42206 0.69753,-0.69754 v -9.84971 -9.84972 l -0.69753,-0.69754 -0.69754,-0.69754 h -9.84972 -9.84972 l -0.69753,0.69754 -0.69754,0.69754 v 9.84972 9.84971 l 0.69754,0.69754 0.69753,0.69754 h 9.84972 9.84972 z m -16.52074,-4.57378 -0.7734,-0.77339 v -5.20008 -5.20008 l 0.7734,-0.7734 0.7734,-0.7734 h 5.20008 5.20008 l 0.7734,0.7734 0.7734,0.7734 v 5.20008 5.20008 l -0.7734,0.77339 -0.7734,0.7734 h -5.20008 -5.20008 z m 26.9875,8.99584 c -0.46624,-0.46624 -0.77339,-1.05226 -0.77339,-1.47556 0,-0.4233 0.30715,-1.00931 0.77339,-1.47556 0.76236,-0.76236 0.81553,-0.7734 3.72452,-0.7734 2.90899,0 2.96217,0.011 3.72452,0.7734 0.46624,0.46625 0.7734,1.05226 0.7734,1.47556 0,0.4233 -0.30716,1.00932 -0.7734,1.47556 -0.76235,0.76236 -0.81553,0.7734 -3.72452,0.7734 -2.90899,0 -2.96216,-0.011 -3.72452,-0.7734 z m 13.49376,0 c -0.46625,-0.46624 -0.7734,-1.05226 -0.7734,-1.47556 0,-0.92816 1.3208,-2.24896 2.24896,-2.24896 0.92815,0 2.24895,1.3208 2.24895,2.24896 0,0.92816 -1.3208,2.24896 -2.24895,2.24896 -0.4233,0 -1.00932,-0.30716 -1.47556,-0.7734 z m 8.99583,0 c -0.46624,-0.46624 -0.7734,-1.05226 -0.7734,-1.47556 0,-0.92816 1.3208,-2.24896 2.248962,-2.24896 0.92816,0 2.24896,1.3208 2.24896,2.24896 0,0.92816 -1.3208,2.24896 -2.24896,2.24896 -0.423302,0 -1.009322,-0.30716 -1.475562,-0.7734 z m 13.493752,0 c -0.50413,-0.50413 -0.7734,-1.04428 -0.7734,-1.55142 0,-0.48785 -0.26016,-1.03818 -0.69754,-1.47556 -0.43738,-0.43738 -0.98771,-0.69754 -1.47556,-0.69754 -1.00479,0 -2.32482,-1.27695 -2.32482,-2.24895 0,-0.97201 1.32003,-2.24897 2.32482,-2.24897 1.0359,0 2.1731,-1.1372 2.1731,-2.1731 0,-0.50714 0.26927,-1.04729 0.7734,-1.55142 0.76467,-0.76467 0.80755,-0.77339 3.80038,-0.77339 2.91775,0 3.05215,-0.0252 3.72452,-0.69754 0.67237,-0.67237 0.69754,-0.80677 0.69754,-3.72452 0,-2.99283 0.009,-3.03571 0.77339,-3.80038 1.00357,-1.00356 1.94756,-1.00356 2.95112,0 l 0.7734,0.7734 v 7.52489 7.5249 l 0.69754,0.69754 c 0.43738,0.43738 0.98772,0.69754 1.47556,0.69754 1.00479,0 2.32482,1.27695 2.32482,2.24896 0,0.4233 -0.30716,1.00932 -0.7734,1.47556 l -0.77339,0.7734 h -7.44904 -7.44904 z m 7.5249,-4.42206 c 0.46547,-0.46547 0.69754,-0.98161 0.69754,-1.55141 0,-0.56982 -0.23207,-1.08595 -0.69754,-1.55143 -0.46548,-0.46548 -0.98161,-0.69754 -1.55142,-0.69754 -0.56981,0 -1.08595,0.23206 -1.55142,0.69754 -0.46548,0.46548 -0.69754,0.98161 -0.69754,1.55143 0,0.5698 0.23206,1.08594 0.69754,1.55141 0.46547,0.46548 0.98161,0.69754 1.55142,0.69754 0.56981,0 1.08594,-0.23206 1.55142,-0.69754 z m -43.508242,-4.57378 -0.77339,-0.77339 v -7.44904 -7.44904 l 0.77339,-0.7734 c 0.76236,-0.76235 0.81553,-0.7734 3.72452,-0.7734 2.90899,0 2.96217,0.011 3.72452,0.7734 0.46624,0.46624 0.7734,1.05226 0.7734,1.47556 0,0.97201 -1.32003,2.24896 -2.32482,2.24896 -0.48784,0 -1.03818,0.26016 -1.47556,0.69754 -0.67435,0.67436 -0.69754,0.80066 -0.69754,3.80038 0,2.99971 0.0232,3.12602 0.69754,3.80038 0.43738,0.43738 0.98772,0.69754 1.47556,0.69754 1.00479,0 2.32482,1.27695 2.32482,2.24895 0,0.4233 -0.30716,1.00933 -0.7734,1.47556 -0.76235,0.76236 -0.81553,0.7734 -3.72452,0.7734 -2.90899,0 -2.96216,-0.011 -3.72452,-0.7734 z m 13.49376,0 c -0.46625,-0.46623 -0.7734,-1.05226 -0.7734,-1.47556 0,-0.92815 1.3208,-2.24895 2.24896,-2.24895 0.92815,0 2.24895,1.3208 2.24895,2.24895 0,0.92816 -1.3208,2.24896 -2.24895,2.24896 -0.4233,0 -1.00932,-0.30716 -1.47556,-0.7734 z m 8.99583,0 c -0.46624,-0.46623 -0.7734,-1.05226 -0.7734,-1.47556 0,-0.92815 1.3208,-2.24895 2.248962,-2.24895 0.92816,0 2.24896,1.3208 2.24896,2.24895 0,0.92816 -1.3208,2.24896 -2.24896,2.24896 -0.423302,0 -1.009322,-0.30716 -1.475562,-0.7734 z m -13.49375,-4.49791 c -0.76236,-0.76236 -0.7734,-0.81553 -0.7734,-3.72452 0,-2.90899 0.011,-2.96217 0.7734,-3.72452 0.46624,-0.46624 1.05226,-0.7734 1.47556,-0.7734 0.4233,0 1.00932,0.30716 1.47556,0.7734 0.76236,0.76235 0.7734,0.81553 0.7734,3.72452 0,2.90899 -0.011,2.96216 -0.7734,3.72452 -0.46624,0.46624 -1.05226,0.7734 -1.47556,0.7734 -0.4233,0 -1.00932,-0.30716 -1.47556,-0.7734 z m 8.99583,0 c -0.76467,-0.76468 -0.7734,-0.80755 -0.7734,-3.80038 0,-2.91775 -0.0252,-3.05215 -0.69753,-3.72452 -0.43738,-0.43738 -0.98772,-0.69754 -1.47557,-0.69754 -1.00479,0 -2.32481,-1.27695 -2.32481,-2.24896 0,-0.972 1.32002,-2.24896 2.32481,-2.24896 1.076,0 2.1731,-1.1354 2.1731,-2.24895 0,-0.56981 -0.23206,-1.08595 -0.69753,-1.55143 l -0.69754,-0.69753 h -7.5249 -7.5249 l -0.7734,-0.7734 c -0.50412,-0.50413 -0.77339,-1.04428 -0.77339,-1.55142 0,-0.48785 -0.26016,-1.03818 -0.69754,-1.47556 l -0.69754,-0.69754 h -5.27594 -5.27594 l -0.7734,-0.7734 c -0.76235,-0.76235 -0.77339,-0.81553 -0.77339,-3.72452 0,-2.90898 0.011,-2.96216 0.77339,-3.72451 0.46624,-0.46625 1.05226,-0.7734 1.47556,-0.7734 0.97201,0 2.24896,1.32002 2.24896,2.32481 0,0.48785 0.26016,1.03819 0.69754,1.47557 l 0.69754,0.69753 h 7.5249 7.5249 l 0.77339,0.7734 c 0.50413,0.50413 0.7734,1.04428 0.7734,1.55142 0,1.07599 1.13541,2.1731 2.24896,2.1731 1.11355,0 2.24896,-1.09711 2.24896,-2.1731 0,-1.00479 1.27695,-2.32482 2.24896,-2.32482 0.972,0 2.24895,1.32003 2.24895,2.32482 0,1.07599 1.13541,2.1731 2.24896,2.1731 1.11355,0 2.24896,-1.09711 2.24896,-2.1731 0,-1.00479 1.27695,-2.32482 2.248962,-2.32482 0.972,0 2.24896,1.32003 2.24896,2.32482 0,1.0359 1.1372,2.1731 2.1731,2.1731 1.04915,0 2.32481,1.27566 2.32481,2.32482 0,0.48784 0.26016,1.03818 0.69754,1.47556 0.43738,0.43738 0.98772,0.69754 1.47556,0.69754 1.0048,0 2.32482,1.27695 2.32482,2.24896 0,0.972 -1.32002,2.24895 -2.32482,2.24895 -0.48784,0 -1.03818,0.26016 -1.47556,0.69754 -0.43738,0.43738 -0.69754,0.98772 -0.69754,1.47556 0,0.50715 -0.26926,1.0473 -0.77339,1.55142 -0.76468,0.76468 -0.80755,0.7734 -3.80038,0.7734 -2.917752,0 -3.052152,0.0252 -3.724522,0.69754 -0.67237,0.67237 -0.69754,0.80677 -0.69754,3.72452 0,2.99283 -0.009,3.0357 -0.7734,3.80038 -0.46624,0.46624 -1.05226,0.7734 -1.47556,0.7734 -0.4233,0 -1.00932,-0.30716 -1.47556,-0.7734 z m 7.524902,-13.41789 c 1.4014,-1.4014 0.42207,-3.80038 -1.55142,-3.80038 -1.154142,0 -2.248962,1.09482 -2.248962,2.24896 0,1.15413 1.09482,2.24895 2.248962,2.24895 0.56981,0 1.08594,-0.23206 1.55142,-0.69753 z m 5.96885,13.41789 c -0.76235,-0.76236 -0.7734,-0.81553 -0.7734,-3.72452 0,-2.90899 0.011,-2.96217 0.7734,-3.72452 0.46624,-0.46624 1.05226,-0.7734 1.47556,-0.7734 0.4233,0 1.00932,0.30716 1.47556,0.7734 0.76236,0.76235 0.7734,0.81553 0.7734,3.72452 0,2.90899 -0.011,2.96216 -0.7734,3.72452 -0.46624,0.46624 -1.05226,0.7734 -1.47556,0.7734 -0.4233,0 -1.00932,-0.30716 -1.47556,-0.7734 z m 8.99584,-8.99584 c -0.46624,-0.46624 -0.7734,-1.05226 -0.7734,-1.47556 0,-0.92816 1.3208,-2.24896 2.24896,-2.24896 0.4233,0 1.00932,0.30717 1.47556,0.7734 0.46624,0.46624 0.7734,1.05226 0.7734,1.47556 0,0.4233 -0.30716,1.00932 -0.7734,1.47556 -0.46624,0.46624 -1.05226,0.7734 -1.47556,0.7734 -0.4233,0 -1.00932,-0.30716 -1.47556,-0.7734 z m 13.49375,0 c -0.46624,-0.46624 -0.7734,-1.05226 -0.7734,-1.47556 0,-0.92816 1.3208,-2.24896 2.24896,-2.24896 0.4233,0 1.00932,0.30717 1.47556,0.7734 0.46624,0.46624 0.7734,1.05226 0.7734,1.47556 0,0.4233 -0.30716,1.00932 -0.7734,1.47556 -0.46624,0.46624 -1.05226,0.7734 -1.47556,0.7734 -0.4233,0 -1.00932,-0.30716 -1.47556,-0.7734 z m -4.49792,-4.49791 c -0.76236,-0.76236 -0.7734,-0.81553 -0.7734,-3.72452 0,-2.90899 0.011,-2.96217 0.7734,-3.72452 0.76236,-0.76236 0.81553,-0.7734 3.72452,-0.7734 2.90899,0 2.96216,0.011 3.72452,0.7734 0.46624,0.46624 0.7734,1.05226 0.7734,1.47556 0,0.972 -1.32003,2.24896 -2.32482,2.24896 -0.48785,0 -1.03818,0.26016 -1.47556,0.69753 -0.43738,0.43738 -0.69754,0.98772 -0.69754,1.47557 0,1.00479 -1.27695,2.32481 -2.24896,2.32481 -0.4233,0 -1.00932,-0.30715 -1.47556,-0.77339 z m -8.99583,-4.49792 c -0.46624,-0.46624 -0.7734,-1.05226 -0.7734,-1.47556 0,-0.92816 1.3208,-2.24896 2.24896,-2.24896 0.4233,0 1.00932,0.30716 1.47556,0.7734 0.46624,0.46624 0.7734,1.05226 0.7734,1.47556 0,0.92816 -1.3208,2.24896 -2.24896,2.24896 -0.4233,0 -1.00932,-0.30716 -1.47556,-0.7734 z m -62.970842,-4.49792 c -0.50413,-0.50412 -0.7734,-1.04427 -0.7734,-1.55142 0,-0.48784 -0.26016,-1.03818 -0.69754,-1.47556 l -0.69753,-0.69754 h -5.27594 -5.27594 l -0.7734,-0.77339 c -0.76236,-0.76236 -0.7734,-0.81554 -0.7734,-3.72452 0,-2.90899 0.011,-2.96217 0.7734,-3.72452 0.46624,-0.46624 1.05226,-0.7734 1.47556,-0.7734 0.972,0 2.24896,1.32002 2.24896,2.32482 0,1.07599 1.1354,2.1731 2.24896,2.1731 1.11355,0 2.24895,-1.09711 2.24895,-2.1731 0,-1.04916 1.27567,-2.32482 2.32482,-2.32482 1.07599,0 2.1731,-1.13541 2.1731,-2.24896 0,-1.11355 -1.09711,-2.24896 -2.1731,-2.24896 -1.00479,0 -2.32482,-1.27695 -2.32482,-2.24896 0,-0.42329 0.30716,-1.00931 0.7734,-1.47556 l 0.7734,-0.77339 h 9.698 9.698 l 0.77339,0.77339 c 0.46624,0.46625 0.7734,1.05227 0.7734,1.47556 0,0.97201 -1.32003,2.24896 -2.32482,2.24896 -0.48784,0 -1.03818,0.26016 -1.47556,0.69754 -0.43738,0.43738 -0.69754,0.98772 -0.69754,1.47556 0,1.04916 -1.27566,2.32482 -2.32482,2.32482 -1.03589,0 -2.17309,1.13721 -2.17309,2.1731 0,1.04915 -1.27567,2.32482 -2.32482,2.32482 -0.48785,0 -1.03819,0.26016 -1.47556,0.69753 -0.67237,0.67237 -0.69754,0.80677 -0.69754,3.72453 0,2.99283 -0.009,3.0357 -0.7734,3.80037 -0.46624,0.46624 -1.05226,0.7734 -1.47556,0.7734 -0.4233,0 -1.00932,-0.30716 -1.47556,-0.7734 z m 58.472922,0 c -0.50413,-0.50412 -0.7734,-1.04427 -0.7734,-1.55142 0,-1.03589 -1.1372,-2.1731 -2.1731,-2.1731 -1.00479,0 -2.32482,-1.27695 -2.32482,-2.24895 0,-0.97201 1.32003,-2.24896 2.32482,-2.24896 1.0359,0 2.1731,-1.13721 2.1731,-2.1731 0,-1.0048 1.27695,-2.32482 2.24896,-2.32482 0.4233,0 1.00932,0.30716 1.47556,0.7734 l 0.7734,0.77339 v 5.20009 5.20008 l -0.7734,0.77339 c -0.46624,0.46624 -1.05226,0.7734 -1.47556,0.7734 -0.4233,0 -1.00932,-0.30716 -1.47556,-0.7734 z m 8.99583,0 c -0.76235,-0.76235 -0.77339,-0.81553 -0.77339,-3.72452 0,-2.90898 0.011,-2.96216 0.77339,-3.72451 0.50413,-0.50413 1.04428,-0.7734 1.55142,-0.7734 1.07599,0 2.1731,-1.13541 2.1731,-2.24896 0,-1.11355 -1.09711,-2.24896 -2.1731,-2.24896 -1.04915,0 -2.32481,-1.27566 -2.32481,-2.32482 0,-0.48784 -0.26016,-1.03818 -0.69754,-1.47556 -0.67436,-0.67435 -0.80067,-0.69754 -3.80038,-0.69754 -2.99972,0 -3.12602,0.0232 -3.80038,0.69754 -0.43738,0.43738 -0.69754,0.98772 -0.69754,1.47556 0,1.00479 -1.27695,2.32482 -2.24896,2.32482 -0.972,0 -2.24896,-1.32003 -2.24896,-2.32482 0,-1.03589 -1.1372,-2.1731 -2.1731,-2.1731 -1.00479,0 -2.32481,-1.27695 -2.32481,-2.24896 0,-0.42329 0.30716,-1.00931 0.7734,-1.47556 l 0.77339,-0.77339 h 9.698 9.698 l 0.77339,0.77339 c 0.50413,0.50413 0.7734,1.04428 0.7734,1.55142 0,0.48785 0.26016,1.03819 0.69754,1.47557 0.67237,0.67236 0.80677,0.69753 3.72452,0.69753 2.99283,0 3.03571,0.009 3.80038,0.7734 0.46624,0.46624 0.7734,1.05226 0.7734,1.47556 0,0.97201 -1.32003,2.24896 -2.32482,2.24896 -0.48785,0 -1.03818,0.26016 -1.47556,0.69754 -0.67237,0.67237 -0.69754,0.80676 -0.69754,3.72452 0,2.99283 -0.009,3.0357 -0.7734,3.80038 -0.50413,0.50412 -1.04428,0.77339 -1.55142,0.77339 -1.03589,0 -2.1731,1.13721 -2.1731,2.1731 0,1.0048 -1.27695,2.32482 -2.24896,2.32482 -0.4233,0 -1.00932,-0.30716 -1.47556,-0.7734 z m -53.975002,-8.99583 c -0.46624,-0.46624 -0.7734,-1.05226 -0.7734,-1.47556 0,-0.4233 0.30716,-1.00932 0.7734,-1.47556 0.76467,-0.76467 0.80755,-0.7734 3.80038,-0.7734 2.91775,0 3.05215,-0.0252 3.72452,-0.69754 0.43738,-0.43738 0.69754,-0.98771 0.69754,-1.47556 0,-0.50714 0.26927,-1.04729 0.77339,-1.55142 l 0.7734,-0.7734 h 5.20008 5.20008 l 0.7734,0.7734 c 0.50413,0.50413 0.7734,1.04428 0.7734,1.55142 0,1.03589 1.1372,2.1731 2.1731,2.1731 1.00479,0 2.32481,1.27695 2.32481,2.24896 0,0.4233 -0.30715,1.00932 -0.77339,1.47556 l -0.7734,0.7734 h -11.94696 -11.94695 z m 31.48542,0 c -0.46624,-0.46624 -0.7734,-1.05226 -0.7734,-1.47556 0,-0.4233 0.30716,-1.00932 0.7734,-1.47556 0.46624,-0.46624 1.05226,-0.7734 1.475562,-0.7734 0.92816,0 2.24896,1.3208 2.24896,2.24896 0,0.4233 -0.30716,1.00932 -0.7734,1.47556 -0.46624,0.46624 -1.05226,0.7734 -1.47556,0.7734 -0.423302,0 -1.009322,-0.30716 -1.475562,-0.7734 z m -53.97501,-4.49792 c -1.00356,-1.00356 -1.00356,-1.94756 0,-2.95112 0.46625,-0.46624 1.05227,-0.7734 1.47557,-0.7734 0.92816,0 2.24895,1.3208 2.24895,2.24896 0,0.92816 -1.32079,2.24896 -2.24895,2.24896 -0.4233,0 -1.00932,-0.30716 -1.47557,-0.7734 z m 49.47709,0 c -0.76467,-0.76467 -0.7734,-0.80754 -0.7734,-3.80038 0,-2.91775 -0.0252,-3.05215 -0.69753,-3.72452 -0.67237,-0.67236 -0.80677,-0.69753 -3.72452,-0.69753 -2.99284,0 -3.03571,-0.009 -3.80038,-0.7734 -0.76236,-0.76236 -0.7734,-0.81553 -0.7734,-3.72452 0,-2.90899 0.011,-2.96217 0.7734,-3.72452 0.46624,-0.46624 1.05226,-0.7734 1.47556,-0.7734 0.972,0 2.24896,1.32003 2.24896,2.32482 0,1.07599 1.1354,2.1731 2.24896,2.1731 0.5698,0 1.08594,-0.23206 1.55142,-0.69754 0.67435,-0.67435 0.69753,-0.80066 0.69753,-3.80038 0,-2.99971 -0.0232,-3.12602 -0.69753,-3.80038 -0.43738,-0.43738 -0.98772,-0.69753 -1.47557,-0.69753 -1.04915,0 -2.32481,-1.27567 -2.32481,-2.32482 0,-1.07599 -1.13541,-2.1731 -2.24896,-2.1731 -1.11355,0 -2.24896,1.09711 -2.24896,2.1731 0,1.04915 -1.27566,2.32482 -2.32482,2.32482 -0.48784,0 -1.03818,0.26015 -1.47556,0.69753 l -0.69754,0.69754 v 5.27594 5.27594 l -0.7734,0.7734 c -0.46624,0.46624 -1.05226,0.7734 -1.47556,0.7734 -0.42329,0 -1.00931,-0.30716 -1.47556,-0.7734 l -0.77339,-0.7734 V 107.16146 95.214499 l 0.77339,-0.7734 0.7734,-0.7734 h 5.20008 5.20008 l 0.7734,0.7734 c 0.50413,0.50413 0.7734,1.04428 0.7734,1.55142 0,0.48785 0.26016,1.03819 0.69753,1.47556 0.67237,0.67237 0.80677,0.69754 3.72453,0.69754 2.99283,0 3.0357,0.009 3.80037,0.7734 l 0.7734,0.7734 v 14.195911 14.19592 l -0.7734,0.77339 c -0.46624,0.46624 -1.05226,0.7734 -1.47556,0.7734 -0.4233,0 -1.00932,-0.30716 -1.47556,-0.7734 z m -53.975,-4.49792 c -0.46624,-0.46624 -0.7734,-1.05226 -0.7734,-1.47556 0,-0.92815 1.3208,-2.24895 2.24896,-2.24895 0.92816,0 2.24896,1.3208 2.24896,2.24895 0,0.92816 -1.3208,2.24896 -2.24896,2.24896 -0.4233,0 -1.00932,-0.30715 -1.47556,-0.7734 z m 0,-8.99583 -0.7734,-0.77339 V 100.41459 86.218669 l 0.7734,-0.7734 0.7734,-0.7734 h 14.19591 14.19592 l 0.77339,0.7734 0.7734,0.7734 v 14.195921 14.19591 l -0.7734,0.77339 -0.77339,0.7734 h -14.19592 -14.19591 z m 25.51657,-4.42205 0.69753,-0.69754 v -9.84971 -9.849731 l -0.69753,-0.69753 -0.69754,-0.69754 h -9.84972 -9.84972 l -0.69753,0.69754 -0.69754,0.69753 v 9.849731 9.84971 l 0.69754,0.69754 0.69753,0.69753 h 9.84972 9.84972 z m -16.52074,-4.57378 -0.7734,-0.7734 v -5.20007 -5.200091 l 0.7734,-0.7734 0.7734,-0.7734 h 5.20008 5.20008 l 0.7734,0.7734 0.7734,0.7734 v 5.200091 5.20007 l -0.7734,0.7734 -0.7734,0.7734 h -5.20008 -5.20008 z m 53.975012,8.99583 -0.7734,-0.77339 V 100.41459 86.218669 l 0.7734,-0.7734 0.77339,-0.7734 h 14.19592 14.19591 l 0.7734,0.7734 0.7734,0.7734 v 14.195921 14.19591 l -0.7734,0.77339 -0.7734,0.7734 H 118.10812 103.9122 Z m 25.51656,-4.42205 0.69754,-0.69754 v -9.84971 -9.849731 l -0.69754,-0.69753 -0.69754,-0.69754 h -9.84971 -9.84972 l -0.69754,0.69754 -0.69754,0.69753 v 9.849731 9.84971 l 0.69754,0.69754 0.69754,0.69753 h 9.84972 9.84971 z m -16.52073,-4.57378 -0.7734,-0.7734 v -5.20007 -5.200091 l 0.7734,-0.7734 0.7734,-0.7734 h 5.20008 5.20008 l 0.77339,0.7734 0.7734,0.7734 v 5.200091 5.20007 l -0.7734,0.7734 -0.77339,0.7734 h -5.20008 -5.20008 z M 89.645058,92.894309 c -0.76236,-0.76236 -0.7734,-0.81553 -0.7734,-3.72452 0,-2.90899 0.011,-2.96217 0.7734,-3.72452 0.76235,-0.76236 0.81553,-0.7734 3.72451,-0.7734 2.90899,0 2.96217,0.011 3.72452,0.7734 0.46624,0.46624 0.7734,1.05226 0.7734,1.47556 0,0.972 -1.32002,2.24896 -2.32482,2.24896 -1.03589,0 -2.1731,1.1372 -2.1731,2.1731 0,1.00479 -1.27695,2.32481 -2.24895,2.32481 -0.4233,0 -1.00932,-0.30715 -1.47556,-0.77339 z m -8.99584,-4.49792 c -0.46624,-0.46624 -0.7734,-1.05226 -0.7734,-1.47556 0,-0.92816 1.3208,-2.24896 2.24896,-2.24896 0.92816,0 2.24896,1.3208 2.24896,2.24896 0,0.92816 -1.3208,2.24896 -2.24896,2.24896 -0.4233,0 -1.00932,-0.30716 -1.47556,-0.7734 z"
       id="path1027-0-1"
       inkscape:connector-curvature="0" />
    <path
       style="fill:url(#radialGradient1029-9);fill-opacity:1;stroke-width:0.26458338"
       d="m 40.167968,178.35473 -0.7734,-0.7734 V 163.38542 149.1895 l 0.7734,-0.77339 0.7734,-0.7734 h 14.19591 14.19592 l 0.77339,0.7734 0.7734,0.77339 v 14.19592 14.19591 l -0.7734,0.7734 -0.77339,0.7734 h -14.19592 -14.19591 z m 25.51657,-4.42206 0.69753,-0.69754 v -9.84971 -9.84972 l -0.69753,-0.69754 -0.69754,-0.69754 h -9.84972 -9.84972 l -0.69753,0.69754 -0.69754,0.69754 v 9.84972 9.84971 l 0.69754,0.69754 0.69753,0.69754 h 9.84972 9.84972 z m -16.52074,-4.57378 -0.7734,-0.77339 v -5.20008 -5.20008 l 0.7734,-0.7734 0.7734,-0.7734 h 5.20008 5.20008 l 0.7734,0.7734 0.7734,0.7734 v 5.20008 5.20008 l -0.7734,0.77339 -0.7734,0.7734 h -5.20008 -5.20008 z m 26.9875,8.99584 c -0.46624,-0.46624 -0.77339,-1.05226 -0.77339,-1.47556 0,-0.4233 0.30715,-1.00932 0.77339,-1.47556 0.76236,-0.76236 0.81553,-0.7734 3.72452,-0.7734 2.90899,0 2.96217,0.011 3.72452,0.7734 0.46624,0.46624 0.7734,1.05226 0.7734,1.47556 0,0.4233 -0.30716,1.00932 -0.7734,1.47556 -0.76235,0.76236 -0.81553,0.7734 -3.72452,0.7734 -2.90899,0 -2.96216,-0.011 -3.72452,-0.7734 z m 13.49376,0 c -0.46625,-0.46624 -0.7734,-1.05226 -0.7734,-1.47556 0,-0.92816 1.3208,-2.24896 2.24896,-2.24896 0.92815,0 2.24895,1.3208 2.24895,2.24896 0,0.92816 -1.3208,2.24896 -2.24895,2.24896 -0.4233,0 -1.00932,-0.30716 -1.47556,-0.7734 z m 8.99583,0 c -0.46624,-0.46624 -0.7734,-1.05226 -0.7734,-1.47556 0,-0.92816 1.3208,-2.24896 2.248962,-2.24896 0.92816,0 2.24896,1.3208 2.24896,2.24896 0,0.92816 -1.3208,2.24896 -2.24896,2.24896 -0.423302,0 -1.009322,-0.30716 -1.475562,-0.7734 z m 13.493752,0 c -0.50413,-0.50413 -0.7734,-1.04428 -0.7734,-1.55142 0,-0.48785 -0.26016,-1.03818 -0.69754,-1.47556 -0.43738,-0.43738 -0.98771,-0.69754 -1.47556,-0.69754 -1.00479,0 -2.32482,-1.27695 -2.32482,-2.24896 0,-0.972 1.32003,-2.24896 2.32482,-2.24896 1.0359,0 2.1731,-1.1372 2.1731,-2.1731 0,-0.50714 0.26927,-1.04729 0.7734,-1.55142 0.76467,-0.76467 0.80755,-0.77339 3.80038,-0.77339 2.91775,0 3.05215,-0.0252 3.72452,-0.69754 0.67237,-0.67237 0.69754,-0.80677 0.69754,-3.72452 0,-2.99283 0.009,-3.03571 0.77339,-3.80038 1.00357,-1.00356 1.94756,-1.00356 2.95112,0 l 0.7734,0.7734 v 7.52489 7.5249 l 0.69754,0.69754 c 0.43738,0.43738 0.98772,0.69754 1.47556,0.69754 1.00479,0 2.32482,1.27695 2.32482,2.24896 0,0.4233 -0.30716,1.00932 -0.7734,1.47556 l -0.77339,0.7734 h -7.44904 -7.44904 z m 7.5249,-4.42206 c 0.46547,-0.46548 0.69754,-0.98161 0.69754,-1.55142 0,-0.56981 -0.23207,-1.08594 -0.69754,-1.55142 -0.46548,-0.46548 -0.98161,-0.69754 -1.55142,-0.69754 -0.56981,0 -1.08595,0.23206 -1.55142,0.69754 -0.46548,0.46548 -0.69754,0.98161 -0.69754,1.55142 0,0.56981 0.23206,1.08594 0.69754,1.55142 0.46547,0.46548 0.98161,0.69754 1.55142,0.69754 0.56981,0 1.08594,-0.23206 1.55142,-0.69754 z m -43.508242,-4.57378 -0.77339,-0.77339 v -7.44904 -7.44904 l 0.77339,-0.7734 c 0.76236,-0.76235 0.81553,-0.7734 3.72452,-0.7734 2.90899,0 2.96217,0.011 3.72452,0.7734 0.46624,0.46624 0.7734,1.05226 0.7734,1.47556 0,0.97201 -1.32003,2.24896 -2.32482,2.24896 -0.48784,0 -1.03818,0.26016 -1.47556,0.69754 -0.67435,0.67436 -0.69754,0.80066 -0.69754,3.80038 0,2.99971 0.0232,3.12602 0.69754,3.80038 0.43738,0.43738 0.98772,0.69754 1.47556,0.69754 1.00479,0 2.32482,1.27695 2.32482,2.24895 0,0.4233 -0.30716,1.00932 -0.7734,1.47556 -0.76235,0.76236 -0.81553,0.7734 -3.72452,0.7734 -2.90899,0 -2.96216,-0.011 -3.72452,-0.7734 z m 13.49376,0 c -0.46625,-0.46624 -0.7734,-1.05226 -0.7734,-1.47556 0,-0.92815 1.3208,-2.24895 2.24896,-2.24895 0.92815,0 2.24895,1.3208 2.24895,2.24895 0,0.92816 -1.3208,2.24896 -2.24895,2.24896 -0.4233,0 -1.00932,-0.30716 -1.47556,-0.7734 z m 8.99583,0 c -0.46624,-0.46624 -0.7734,-1.05226 -0.7734,-1.47556 0,-0.92815 1.3208,-2.24895 2.248962,-2.24895 0.92816,0 2.24896,1.3208 2.24896,2.24895 0,0.92816 -1.3208,2.24896 -2.24896,2.24896 -0.423302,0 -1.009322,-0.30716 -1.475562,-0.7734 z m -13.49375,-4.49791 c -0.76236,-0.76236 -0.7734,-0.81553 -0.7734,-3.72452 0,-2.90899 0.011,-2.96217 0.7734,-3.72452 0.46624,-0.46624 1.05226,-0.7734 1.47556,-0.7734 0.4233,0 1.00932,0.30716 1.47556,0.7734 0.76236,0.76235 0.7734,0.81553 0.7734,3.72452 0,2.90899 -0.011,2.96216 -0.7734,3.72452 -0.46624,0.46624 -1.05226,0.7734 -1.47556,0.7734 -0.4233,0 -1.00932,-0.30716 -1.47556,-0.7734 z m 8.99583,0 c -0.76467,-0.76468 -0.7734,-0.80755 -0.7734,-3.80038 0,-2.91775 -0.0252,-3.05215 -0.69753,-3.72452 -0.43738,-0.43738 -0.98772,-0.69754 -1.47557,-0.69754 -1.00479,0 -2.32481,-1.27695 -2.32481,-2.24896 0,-0.972 1.32002,-2.24896 2.32481,-2.24896 1.076,0 2.1731,-1.1354 2.1731,-2.24895 0,-0.56981 -0.23206,-1.08595 -0.69753,-1.55143 l -0.69754,-0.69753 h -7.5249 -7.5249 l -0.7734,-0.7734 c -0.50412,-0.50413 -0.77339,-1.04428 -0.77339,-1.55142 0,-0.48785 -0.26016,-1.03818 -0.69754,-1.47556 l -0.69754,-0.69754 h -5.27594 -5.27594 l -0.7734,-0.7734 c -0.76235,-0.76235 -0.77339,-0.81553 -0.77339,-3.72452 0,-2.90898 0.011,-2.96216 0.77339,-3.72451 0.46624,-0.46625 1.05226,-0.7734 1.47556,-0.7734 0.97201,0 2.24896,1.32002 2.24896,2.32481 0,0.48785 0.26016,1.03819 0.69754,1.47557 l 0.69754,0.69753 h 7.5249 7.5249 l 0.77339,0.7734 c 0.50413,0.50413 0.7734,1.04428 0.7734,1.55142 0,1.07599 1.13541,2.1731 2.24896,2.1731 1.11355,0 2.24896,-1.09711 2.24896,-2.1731 0,-1.00479 1.27695,-2.32482 2.24896,-2.32482 0.972,0 2.24895,1.32003 2.24895,2.32482 0,1.07599 1.13541,2.1731 2.24896,2.1731 1.11355,0 2.24896,-1.09711 2.24896,-2.1731 0,-1.00479 1.27695,-2.32482 2.248962,-2.32482 0.972,0 2.24896,1.32003 2.24896,2.32482 0,1.0359 1.1372,2.1731 2.1731,2.1731 1.04915,0 2.32481,1.27566 2.32481,2.32482 0,0.48784 0.26016,1.03818 0.69754,1.47556 0.43738,0.43738 0.98772,0.69754 1.47556,0.69754 1.0048,0 2.32482,1.27695 2.32482,2.24896 0,0.972 -1.32002,2.24895 -2.32482,2.24895 -0.48784,0 -1.03818,0.26016 -1.47556,0.69754 -0.43738,0.43738 -0.69754,0.98772 -0.69754,1.47556 0,0.50715 -0.26926,1.0473 -0.77339,1.55142 -0.76468,0.76468 -0.80755,0.7734 -3.80038,0.7734 -2.917752,0 -3.052152,0.0252 -3.724522,0.69754 -0.67237,0.67237 -0.69754,0.80677 -0.69754,3.72452 0,2.99283 -0.009,3.0357 -0.7734,3.80038 -0.46624,0.46624 -1.05226,0.7734 -1.47556,0.7734 -0.4233,0 -1.00932,-0.30716 -1.47556,-0.7734 z m 7.524902,-13.41789 c 1.4014,-1.4014 0.42207,-3.80038 -1.55142,-3.80038 -1.154142,0 -2.248962,1.09482 -2.248962,2.24896 0,1.15413 1.09482,2.24895 2.248962,2.24895 0.56981,0 1.08594,-0.23206 1.55142,-0.69753 z m 5.96885,13.41789 c -0.76235,-0.76236 -0.7734,-0.81553 -0.7734,-3.72452 0,-2.90899 0.011,-2.96217 0.7734,-3.72452 0.46624,-0.46624 1.05226,-0.7734 1.47556,-0.7734 0.4233,0 1.00932,0.30716 1.47556,0.7734 0.76236,0.76235 0.7734,0.81553 0.7734,3.72452 0,2.90899 -0.011,2.96216 -0.7734,3.72452 -0.46624,0.46624 -1.05226,0.7734 -1.47556,0.7734 -0.4233,0 -1.00932,-0.30716 -1.47556,-0.7734 z m 8.99584,-8.99584 c -0.46624,-0.46624 -0.7734,-1.05226 -0.7734,-1.47556 0,-0.92816 1.3208,-2.24896 2.24896,-2.24896 0.4233,0 1.00932,0.30716 1.47556,0.7734 0.46624,0.46624 0.7734,1.05226 0.7734,1.47556 0,0.4233 -0.30716,1.00932 -0.7734,1.47556 -0.46624,0.46624 -1.05226,0.7734 -1.47556,0.7734 -0.4233,0 -1.00932,-0.30716 -1.47556,-0.7734 z m 13.49375,0 c -0.46624,-0.46624 -0.7734,-1.05226 -0.7734,-1.47556 0,-0.92816 1.3208,-2.24896 2.24896,-2.24896 0.4233,0 1.00932,0.30716 1.47556,0.7734 0.46624,0.46624 0.7734,1.05226 0.7734,1.47556 0,0.4233 -0.30716,1.00932 -0.7734,1.47556 -0.46624,0.46624 -1.05226,0.7734 -1.47556,0.7734 -0.4233,0 -1.00932,-0.30716 -1.47556,-0.7734 z m -4.49792,-4.49791 c -0.76236,-0.76236 -0.7734,-0.81553 -0.7734,-3.72452 0,-2.90899 0.011,-2.96217 0.7734,-3.72452 0.76236,-0.76236 0.81553,-0.7734 3.72452,-0.7734 2.90899,0 2.96216,0.011 3.72452,0.7734 0.46624,0.46624 0.7734,1.05226 0.7734,1.47556 0,0.972 -1.32003,2.24896 -2.32482,2.24896 -0.48785,0 -1.03818,0.26016 -1.47556,0.69753 -0.43738,0.43738 -0.69754,0.98772 -0.69754,1.47557 0,1.00479 -1.27695,2.32481 -2.24896,2.32481 -0.4233,0 -1.00932,-0.30715 -1.47556,-0.77339 z m -8.99583,-4.49792 c -0.46624,-0.46624 -0.7734,-1.05226 -0.7734,-1.47556 0,-0.92816 1.3208,-2.24896 2.24896,-2.24896 0.4233,0 1.00932,0.30716 1.47556,0.7734 0.46624,0.46624 0.7734,1.05226 0.7734,1.47556 0,0.92816 -1.3208,2.24896 -2.24896,2.24896 -0.4233,0 -1.00932,-0.30716 -1.47556,-0.7734 z m -62.970842,-4.49792 c -0.50413,-0.50412 -0.7734,-1.04427 -0.7734,-1.55142 0,-0.48784 -0.26016,-1.03818 -0.69754,-1.47556 l -0.69753,-0.69754 h -5.27594 -5.27594 l -0.7734,-0.77339 c -0.76236,-0.76236 -0.7734,-0.81554 -0.7734,-3.72452 0,-2.90899 0.011,-2.96217 0.7734,-3.72452 0.46624,-0.46624 1.05226,-0.7734 1.47556,-0.7734 0.972,0 2.24896,1.32002 2.24896,2.32482 0,1.07599 1.1354,2.1731 2.24896,2.1731 1.11355,0 2.24895,-1.09711 2.24895,-2.1731 0,-1.04916 1.27567,-2.32482 2.32482,-2.32482 1.07599,0 2.1731,-1.13541 2.1731,-2.24896 0,-1.11355 -1.09711,-2.24896 -2.1731,-2.24896 -1.00479,0 -2.32482,-1.27695 -2.32482,-2.24896 0,-0.42329 0.30716,-1.00931 0.7734,-1.47556 l 0.7734,-0.77339 h 9.698 9.698 l 0.77339,0.77339 c 0.46624,0.46625 0.7734,1.05227 0.7734,1.47556 0,0.97201 -1.32003,2.24896 -2.32482,2.24896 -0.48784,0 -1.03818,0.26016 -1.47556,0.69754 -0.43738,0.43738 -0.69754,0.98772 -0.69754,1.47556 0,1.04916 -1.27566,2.32482 -2.32482,2.32482 -1.03589,0 -2.17309,1.13721 -2.17309,2.1731 0,1.04915 -1.27567,2.32482 -2.32482,2.32482 -0.48785,0 -1.03819,0.26016 -1.47556,0.69753 -0.67237,0.67237 -0.69754,0.80677 -0.69754,3.72453 0,2.99283 -0.009,3.0357 -0.7734,3.80037 -0.46624,0.46624 -1.05226,0.7734 -1.47556,0.7734 -0.4233,0 -1.00932,-0.30716 -1.47556,-0.7734 z m 58.472922,0 c -0.50413,-0.50412 -0.7734,-1.04427 -0.7734,-1.55142 0,-1.03589 -1.1372,-2.1731 -2.1731,-2.1731 -1.00479,0 -2.32482,-1.27695 -2.32482,-2.24895 0,-0.97201 1.32003,-2.24896 2.32482,-2.24896 1.0359,0 2.1731,-1.13721 2.1731,-2.1731 0,-1.0048 1.27695,-2.32482 2.24896,-2.32482 0.4233,0 1.00932,0.30716 1.47556,0.7734 l 0.7734,0.77339 v 5.20009 5.20008 l -0.7734,0.77339 c -0.46624,0.46624 -1.05226,0.7734 -1.47556,0.7734 -0.4233,0 -1.00932,-0.30716 -1.47556,-0.7734 z m 8.99583,0 c -0.76235,-0.76235 -0.77339,-0.81553 -0.77339,-3.72452 0,-2.90898 0.011,-2.96216 0.77339,-3.72451 0.50413,-0.50413 1.04428,-0.7734 1.55142,-0.7734 1.07599,0 2.1731,-1.13541 2.1731,-2.24896 0,-1.11355 -1.09711,-2.24896 -2.1731,-2.24896 -1.04915,0 -2.32481,-1.27566 -2.32481,-2.32482 0,-0.48784 -0.26016,-1.03818 -0.69754,-1.47556 -0.67436,-0.67435 -0.80067,-0.69754 -3.80038,-0.69754 -2.99972,0 -3.12602,0.0232 -3.80038,0.69754 -0.43738,0.43738 -0.69754,0.98772 -0.69754,1.47556 0,1.00479 -1.27695,2.32482 -2.24896,2.32482 -0.972,0 -2.24896,-1.32003 -2.24896,-2.32482 0,-1.03589 -1.1372,-2.1731 -2.1731,-2.1731 -1.00479,0 -2.32481,-1.27695 -2.32481,-2.24896 0,-0.42329 0.30716,-1.00931 0.7734,-1.47556 l 0.77339,-0.77339 h 9.698 9.698 l 0.77339,0.77339 c 0.50413,0.50413 0.7734,1.04428 0.7734,1.55142 0,0.48785 0.26016,1.03819 0.69754,1.47557 0.67237,0.67236 0.80677,0.69753 3.72452,0.69753 2.99283,0 3.03571,0.009 3.80038,0.7734 0.46624,0.46624 0.7734,1.05226 0.7734,1.47556 0,0.97201 -1.32003,2.24896 -2.32482,2.24896 -0.48785,0 -1.03818,0.26016 -1.47556,0.69754 -0.67237,0.67237 -0.69754,0.80676 -0.69754,3.72452 0,2.99283 -0.009,3.0357 -0.7734,3.80038 -0.50413,0.50412 -1.04428,0.77339 -1.55142,0.77339 -1.03589,0 -2.1731,1.13721 -2.1731,2.1731 0,1.0048 -1.27695,2.32482 -2.24896,2.32482 -0.4233,0 -1.00932,-0.30716 -1.47556,-0.7734 z m -53.975002,-8.99583 c -0.46624,-0.46624 -0.7734,-1.05226 -0.7734,-1.47556 0,-0.4233 0.30716,-1.00932 0.7734,-1.47556 0.76467,-0.76467 0.80755,-0.7734 3.80038,-0.7734 2.91775,0 3.05215,-0.0252 3.72452,-0.69754 0.43738,-0.43738 0.69754,-0.98771 0.69754,-1.47556 0,-0.50714 0.26927,-1.04729 0.77339,-1.55142 l 0.7734,-0.7734 h 5.20008 5.20008 l 0.7734,0.7734 c 0.50413,0.50413 0.7734,1.04428 0.7734,1.55142 0,1.03589 1.1372,2.1731 2.1731,2.1731 1.00479,0 2.32481,1.27695 2.32481,2.24896 0,0.4233 -0.30715,1.00932 -0.77339,1.47556 l -0.7734,0.7734 h -11.94696 -11.94695 z m 31.48542,0 c -0.46624,-0.46624 -0.7734,-1.05226 -0.7734,-1.47556 0,-0.4233 0.30716,-1.00932 0.7734,-1.47556 0.46624,-0.46624 1.05226,-0.7734 1.475562,-0.7734 0.92816,0 2.24896,1.3208 2.24896,2.24896 0,0.4233 -0.30716,1.00932 -0.7734,1.47556 -0.46624,0.46624 -1.05226,0.7734 -1.47556,0.7734 -0.423302,0 -1.009322,-0.30716 -1.475562,-0.7734 z m -53.97501,-4.49792 c -1.00356,-1.00356 -1.00356,-1.94756 0,-2.95112 0.46625,-0.46624 1.05227,-0.7734 1.47557,-0.7734 0.92816,0 2.24895,1.3208 2.24895,2.24896 0,0.92816 -1.32079,2.24896 -2.24895,2.24896 -0.4233,0 -1.00932,-0.30716 -1.47557,-0.7734 z m 49.47709,0 c -0.76467,-0.76467 -0.7734,-0.80754 -0.7734,-3.80038 0,-2.91775 -0.0252,-3.05215 -0.69753,-3.72452 -0.67237,-0.67236 -0.80677,-0.69753 -3.72452,-0.69753 -2.99284,0 -3.03571,-0.009 -3.80038,-0.7734 -0.76236,-0.76236 -0.7734,-0.81553 -0.7734,-3.72452 0,-2.90899 0.011,-2.96217 0.7734,-3.72452 0.46624,-0.46624 1.05226,-0.7734 1.47556,-0.7734 0.972,0 2.24896,1.32003 2.24896,2.32482 0,1.07599 1.1354,2.1731 2.24896,2.1731 0.5698,0 1.08594,-0.23206 1.55142,-0.69754 0.67435,-0.67435 0.69753,-0.80066 0.69753,-3.80038 0,-2.99971 -0.0232,-3.12602 -0.69753,-3.80038 -0.43738,-0.43738 -0.98772,-0.69753 -1.47557,-0.69753 -1.04915,0 -2.32481,-1.27567 -2.32481,-2.32482 0,-1.07599 -1.13541,-2.1731 -2.24896,-2.1731 -1.11355,0 -2.24896,1.09711 -2.24896,2.1731 0,1.04915 -1.27566,2.32482 -2.32482,2.32482 -0.48784,0 -1.03818,0.26015 -1.47556,0.69753 l -0.69754,0.69754 v 5.27594 5.27594 l -0.7734,0.7734 c -0.46624,0.46624 -1.05226,0.7734 -1.47556,0.7734 -0.42329,0 -1.00931,-0.30716 -1.47556,-0.7734 l -0.77339,-0.7734 V 107.16146 95.214495 l 0.77339,-0.7734 0.7734,-0.7734 h 5.20008 5.20008 l 0.7734,0.7734 c 0.50413,0.50413 0.7734,1.04428 0.7734,1.55142 0,0.48785 0.26016,1.03819 0.69753,1.47556 0.67237,0.67237 0.80677,0.69754 3.72453,0.69754 2.99283,0 3.0357,0.009 3.80037,0.7734 l 0.7734,0.7734 v 14.195915 14.19592 l -0.7734,0.77339 c -0.46624,0.46624 -1.05226,0.7734 -1.47556,0.7734 -0.4233,0 -1.00932,-0.30716 -1.47556,-0.7734 z m -53.975,-4.49792 c -0.46624,-0.46624 -0.7734,-1.05226 -0.7734,-1.47556 0,-0.92815 1.3208,-2.24895 2.24896,-2.24895 0.92816,0 2.24896,1.3208 2.24896,2.24895 0,0.92816 -1.3208,2.24896 -2.24896,2.24896 -0.4233,0 -1.00932,-0.30715 -1.47556,-0.7734 z m 0,-8.99583 -0.7734,-0.77339 V 100.41458 86.218669 l 0.7734,-0.7734 0.7734,-0.7734 h 14.19591 14.19592 l 0.77339,0.7734 0.7734,0.7734 v 14.195911 14.19592 l -0.7734,0.77339 -0.77339,0.7734 h -14.19592 -14.19591 z m 25.51657,-4.42205 0.69753,-0.69754 v -9.84972 -9.849721 l -0.69753,-0.69753 -0.69754,-0.69754 h -9.84972 -9.84972 l -0.69753,0.69754 -0.69754,0.69753 v 9.849721 9.84972 l 0.69754,0.69754 0.69753,0.69753 h 9.84972 9.84972 z m -16.52074,-4.57378 -0.7734,-0.7734 v -5.20008 -5.200085 l 0.7734,-0.7734 0.7734,-0.7734 h 5.20008 5.20008 l 0.7734,0.7734 0.7734,0.7734 v 5.200085 5.20008 l -0.7734,0.7734 -0.7734,0.7734 h -5.20008 -5.20008 z m 53.975012,8.99583 -0.7734,-0.77339 V 100.41458 86.218669 l 0.7734,-0.7734 0.77339,-0.7734 h 14.19592 14.19591 l 0.7734,0.7734 0.7734,0.7734 v 14.195911 14.19592 l -0.7734,0.77339 -0.7734,0.7734 H 118.10812 103.9122 Z m 25.51656,-4.42205 0.69754,-0.69754 v -9.84972 -9.849721 l -0.69754,-0.69753 -0.69754,-0.69754 h -9.84971 -9.84972 l -0.69754,0.69754 -0.69754,0.69753 v 9.849721 9.84972 l 0.69754,0.69754 0.69754,0.69753 h 9.84972 9.84971 z m -16.52073,-4.57378 -0.7734,-0.7734 v -5.20008 -5.200085 l 0.7734,-0.7734 0.7734,-0.7734 h 5.20008 5.20008 l 0.77339,0.7734 0.7734,0.7734 v 5.200085 5.20008 l -0.7734,0.7734 -0.77339,0.7734 h -5.20008 -5.20008 z M 89.645058,92.894309 c -0.76236,-0.76236 -0.7734,-0.81553 -0.7734,-3.72452 0,-2.90899 0.011,-2.96217 0.7734,-3.72452 0.76235,-0.76236 0.81553,-0.7734 3.72451,-0.7734 2.90899,0 2.96217,0.011 3.72452,0.7734 0.46624,0.46624 0.7734,1.05226 0.7734,1.47556 0,0.972 -1.32002,2.24896 -2.32482,2.24896 -1.03589,0 -2.1731,1.1372 -2.1731,2.1731 0,1.00479 -1.27695,2.324806 -2.24895,2.324806 -0.4233,0 -1.00932,-0.30715 -1.47556,-0.773386 z m -8.99584,-4.49792 c -0.46624,-0.46624 -0.7734,-1.05226 -0.7734,-1.47556 0,-0.92816 1.3208,-2.24896 2.24896,-2.24896 0.92816,0 2.24896,1.3208 2.24896,2.24896 0,0.92816 -1.3208,2.24896 -2.24896,2.24896 -0.4233,0 -1.00932,-0.30716 -1.47556,-0.7734 z"
       id="path1027-0"
       inkscape:connector-curvature="0" />
    <path
       inkscape:connector-curvature="0"
       style="opacity:0.8;fill:#ff0039;fill-opacity:1;stroke-width:0.26458338"
       d="m 40.941237,147.64274 -0.77359,0.7736 -0.77308,0.77308 v 14.19603 14.19603 l 0.77308,0.77308 0.77359,0.7736 h 14.19603 14.19604 l 0.77308,-0.7736 0.77359,-0.77308 v -14.19603 -14.19603 l -0.77359,-0.77308 -0.77308,-0.7736 h -14.19604 z m 4.34599,4.49792 h 9.85004 9.84954 l 0.69763,0.69763 0.69763,0.69763 v 9.84953 9.84953 l -0.69763,0.69763 -0.69763,0.69763 h -9.84954 -9.85004 l -0.69711,-0.69763 -0.69764,-0.69763 v -9.84953 -9.84953 l 0.69764,-0.69763 z m 4.64984,4.49792 -0.77359,0.77359 -0.77308,0.77308 v 5.2002 5.2002 l 0.77308,0.77308 0.77359,0.7736 h 5.2002 5.1997 l 0.77359,-0.7736 0.77359,-0.77308 v -5.2002 -5.2002 l -0.77359,-0.77308 -0.77359,-0.77359 h -5.1997 z"
       id="path1171-2" />
    <path
       inkscape:connector-curvature="0"
       style="opacity:0.8;fill:#00feff;fill-opacity:1;stroke-width:0.26458338"
       d="m 103.91208,84.671824 -0.77359,0.773595 -0.77308,0.77308 v 14.196031 14.19603 l 0.77308,0.77308 0.77359,0.7736 h 14.19603 14.19604 l 0.77308,-0.7736 0.77359,-0.77308 V 100.41453 86.2185 l -0.77359,-0.77308 -0.77308,-0.773596 h -14.19604 z m 4.34599,4.497917 h 9.85004 9.84954 l 0.69763,0.697631 0.69763,0.697632 v 9.849526 9.84953 l -0.69763,0.69763 -0.69763,0.69763 h -9.84954 -9.85004 l -0.69711,-0.69763 -0.69764,-0.69763 v -9.84953 -9.849526 l 0.69764,-0.697632 z m 4.64984,4.497912 -0.77359,0.773079 -0.77308,0.7736 v 5.200198 5.2002 l 0.77308,0.77308 0.77359,0.77359 h 5.2002 5.1997 l 0.77359,-0.77359 0.77359,-0.77308 v -5.2002 -5.200198 l -0.77359,-0.7736 -0.77359,-0.773079 h -5.1997 z"
       id="path1117-3" />
    <path
       inkscape:connector-curvature="0"
       style="opacity:0.8;fill:#30e60b;fill-opacity:1;stroke-width:0.26458338"
       d="m 40.941237,84.672037 -0.77359,0.773596 -0.77308,0.773079 v 14.196028 14.19603 l 0.77308,0.77308 0.77359,0.7736 h 14.19604 14.19603 l 0.77309,-0.7736 0.77358,-0.77308 V 100.41474 86.218712 l -0.77358,-0.773079 -0.77309,-0.773596 h -14.19603 z m 4.346,4.497917 h 9.85004 9.84953 l 0.69763,0.697631 0.69763,0.697632 v 9.849523 9.84953 l -0.69763,0.69763 -0.69763,0.69763 h -9.84953 -9.85004 l -0.69713,-0.69763 -0.69763,-0.69763 v -9.84953 -9.849523 l 0.69763,-0.697632 z m 4.64984,4.497912 -0.77359,0.773079 -0.77309,0.7736 v 5.200195 5.2002 l 0.77309,0.77308 0.77359,0.77359 h 5.2002 5.2002 l 0.77308,-0.77359 0.77359,-0.77308 v -5.2002 -5.200195 l -0.77359,-0.7736 -0.77308,-0.773079 h -5.2002 z"
       id="path1111-7" />
  </g>
</svg>
