<?xml version="1.0" encoding="UTF-8" standalone="no"?>
<!-- Created with Inkscape (http://www.inkscape.org/) -->

<svg
   xmlns:dc="http://purl.org/dc/elements/1.1/"
   xmlns:cc="http://creativecommons.org/ns#"
   xmlns:rdf="http://www.w3.org/1999/02/22-rdf-syntax-ns#"
   xmlns:svg="http://www.w3.org/2000/svg"
   xmlns="http://www.w3.org/2000/svg"
   xmlns:sodipodi="http://sodipodi.sourceforge.net/DTD/sodipodi-0.dtd"
   xmlns:inkscape="http://www.inkscape.org/namespaces/inkscape"
   width="356.5"
   height="356.5"
   viewBox="0 0 94.323959 94.323959"
   version="1.1"
   id="svg8"
   inkscape:version="0.92.3 (2405546, 2018-03-11)"
   sodipodi:docname="qrbig-grey.svg">
  <defs
     id="defs2">
    <clipPath
       clipPathUnits="userSpaceOnUse"
       id="clipEmfPath1">
      <path
         d="M -1.78992,2.68488 H 263.118 V 443.9 H -1.78992 Z"
         id="path3341"
         inkscape:connector-curvature="0" />
    </clipPath>
    <pattern
       id="EMFhbasepattern"
       patternUnits="userSpaceOnUse"
       width="6"
       height="6"
       x="0"
       y="0" />
    <clipPath
       clipPathUnits="userSpaceOnUse"
       id="clipEmfPath1-7">
      <path
         d="M -1.78992,2.68488 H 263.118 V 443.9 H -1.78992 Z"
         id="path3341-2"
         inkscape:connector-curvature="0" />
    </clipPath>
    <clipPath
       clipPathUnits="userSpaceOnUse"
       id="clipPath4731">
      <path
         d="M -1.78992,2.68488 H 263.118 V 443.9 H -1.78992 Z"
         id="path4729"
         inkscape:connector-curvature="0" />
    </clipPath>
    <clipPath
       clipPathUnits="userSpaceOnUse"
       id="clipPath4735">
      <path
         d="M -1.78992,2.68488 H 263.118 V 443.9 H -1.78992 Z"
         id="path4733"
         inkscape:connector-curvature="0" />
    </clipPath>
    <clipPath
       clipPathUnits="userSpaceOnUse"
       id="clipEmfPath1-7-1">
      <path
         d="M -1.78992,2.68488 H 263.118 V 443.9 H -1.78992 Z"
         id="path3341-2-8"
         inkscape:connector-curvature="0" />
    </clipPath>
    <clipPath
       clipPathUnits="userSpaceOnUse"
       id="clipPath4780">
      <path
         d="M -1.78992,2.68488 H 263.118 V 443.9 H -1.78992 Z"
         id="path4778"
         inkscape:connector-curvature="0" />
    </clipPath>
    <clipPath
       clipPathUnits="userSpaceOnUse"
       id="clipPath4784">
      <path
         d="M -1.78992,2.68488 H 263.118 V 443.9 H -1.78992 Z"
         id="path4782"
         inkscape:connector-curvature="0" />
    </clipPath>
    <clipPath
       clipPathUnits="userSpaceOnUse"
       id="clipEmfPath1-7-1-8">
      <path
         d="M -1.78992,2.68488 H 263.118 V 443.9 H -1.78992 Z"
         id="path3341-2-8-8"
         inkscape:connector-curvature="0" />
    </clipPath>
    <clipPath
       clipPathUnits="userSpaceOnUse"
       id="clipPath4892">
      <path
         d="M -1.78992,2.68488 H 263.118 V 443.9 H -1.78992 Z"
         id="path4890"
         inkscape:connector-curvature="0" />
    </clipPath>
    <clipPath
       clipPathUnits="userSpaceOnUse"
       id="clipPath4896">
      <path
         d="M -1.78992,2.68488 H 263.118 V 443.9 H -1.78992 Z"
         id="path4894"
         inkscape:connector-curvature="0" />
    </clipPath>
    <clipPath
       clipPathUnits="userSpaceOnUse"
       id="clipPath4935">
      <rect
         style="fill:#000000;fill-opacity:0.50588223;stroke:none;stroke-width:1.07678938"
         id="rect4937"
         width="86.995094"
         height="93.439171"
         x="301.49927"
         y="358.67453" />
    </clipPath>
    <clipPath
       clipPathUnits="userSpaceOnUse"
       id="clipEmfPath1-7-1-0">
      <path
         d="M -1.78992,2.68488 H 263.118 V 443.9 H -1.78992 Z"
         id="path3341-2-8-6"
         inkscape:connector-curvature="0" />
    </clipPath>
    <clipPath
       clipPathUnits="userSpaceOnUse"
       id="clipPath4951">
      <path
         d="M -1.78992,2.68488 H 263.118 V 443.9 H -1.78992 Z"
         id="path4949"
         inkscape:connector-curvature="0" />
    </clipPath>
    <clipPath
       clipPathUnits="userSpaceOnUse"
       id="clipPath4955">
      <path
         d="M -1.78992,2.68488 H 263.118 V 443.9 H -1.78992 Z"
         id="path4953"
         inkscape:connector-curvature="0" />
    </clipPath>
    <clipPath
       clipPathUnits="userSpaceOnUse"
       id="clipPath4990">
      <rect
         style="fill:#000000;fill-opacity:0.50588223;stroke:none;stroke-width:0.62096745"
         id="rect4992"
         width="48.790302"
         height="37.258049"
         x="308.7554"
         y="454.34366" />
    </clipPath>
    <clipPath
       clipPathUnits="userSpaceOnUse"
       id="clipEmfPath1-7-1-3">
      <path
         d="M -1.78992,2.68488 H 263.118 V 443.9 H -1.78992 Z"
         id="path3341-2-8-4"
         inkscape:connector-curvature="0" />
    </clipPath>
    <clipPath
       clipPathUnits="userSpaceOnUse"
       id="clipPath880">
      <path
         d="M -1.78992,2.68488 H 263.118 V 443.9 H -1.78992 Z"
         id="path878"
         inkscape:connector-curvature="0" />
    </clipPath>
    <clipPath
       clipPathUnits="userSpaceOnUse"
       id="clipPath884">
      <path
         d="M -1.78992,2.68488 H 263.118 V 443.9 H -1.78992 Z"
         id="path882"
         inkscape:connector-curvature="0" />
    </clipPath>
    <clipPath
       clipPathUnits="userSpaceOnUse"
       id="clipPath923">
      <rect
         style="fill:#000000;fill-opacity:1;stroke:none;stroke-width:0.53399301"
         id="rect925"
         width="41.032162"
         height="42.621124"
         x="317.74377"
         y="451.14319" />
    </clipPath>
    <clipPath
       clipPathUnits="userSpaceOnUse"
       id="clipEmfPath1-7-1-5">
      <path
         d="M -1.78992,2.68488 H 263.118 V 443.9 H -1.78992 Z"
         id="path3341-2-8-3"
         inkscape:connector-curvature="0" />
    </clipPath>
    <clipPath
       clipPathUnits="userSpaceOnUse"
       id="clipPath939">
      <path
         d="M -1.78992,2.68488 H 263.118 V 443.9 H -1.78992 Z"
         id="path937"
         inkscape:connector-curvature="0" />
    </clipPath>
    <clipPath
       clipPathUnits="userSpaceOnUse"
       id="clipPath943">
      <path
         d="M -1.78992,2.68488 H 263.118 V 443.9 H -1.78992 Z"
         id="path941"
         inkscape:connector-curvature="0" />
    </clipPath>
    <clipPath
       clipPathUnits="userSpaceOnUse"
       id="clipPath978">
      <rect
         style="fill:#000000;fill-opacity:1;stroke:none;stroke-width:0.62096745"
         id="rect980"
         width="85.936249"
         height="111.6544"
         x="293.79773"
         y="345.60959" />
    </clipPath>
    <clipPath
       clipPathUnits="userSpaceOnUse"
       id="clipPath978-6">
      <rect
         style="fill:#000000;fill-opacity:1;stroke:none;stroke-width:0.62096745"
         id="rect980-5"
         width="85.936249"
         height="111.6544"
         x="293.79773"
         y="345.60959" />
    </clipPath>
    <clipPath
       clipPathUnits="userSpaceOnUse"
       id="clipEmfPath1-7-1-5-3">
      <path
         d="M -1.78992,2.68488 H 263.118 V 443.9 H -1.78992 Z"
         id="path3341-2-8-3-4"
         inkscape:connector-curvature="0" />
    </clipPath>
    <clipPath
       clipPathUnits="userSpaceOnUse"
       id="clipPath996">
      <path
         d="M -1.78992,2.68488 H 263.118 V 443.9 H -1.78992 Z"
         id="path994"
         inkscape:connector-curvature="0" />
    </clipPath>
    <clipPath
       clipPathUnits="userSpaceOnUse"
       id="clipPath1000">
      <path
         d="M -1.78992,2.68488 H 263.118 V 443.9 H -1.78992 Z"
         id="path998"
         inkscape:connector-curvature="0" />
    </clipPath>
    <clipPath
       clipPathUnits="userSpaceOnUse"
       id="clipPath978-6-1">
      <rect
         style="fill:#000000;fill-opacity:1;stroke:none;stroke-width:0.62096745"
         id="rect980-5-3"
         width="85.936249"
         height="111.6544"
         x="293.79773"
         y="345.60959" />
    </clipPath>
    <clipPath
       clipPathUnits="userSpaceOnUse"
       id="clipEmfPath1-7-1-5-3-5">
      <path
         d="M -1.78992,2.68488 H 263.118 V 443.9 H -1.78992 Z"
         id="path3341-2-8-3-4-2"
         inkscape:connector-curvature="0" />
    </clipPath>
    <clipPath
       clipPathUnits="userSpaceOnUse"
       id="clipPath1051">
      <path
         d="M -1.78992,2.68488 H 263.118 V 443.9 H -1.78992 Z"
         id="path1049"
         inkscape:connector-curvature="0" />
    </clipPath>
    <clipPath
       clipPathUnits="userSpaceOnUse"
       id="clipPath1055">
      <path
         d="M -1.78992,2.68488 H 263.118 V 443.9 H -1.78992 Z"
         id="path1053"
         inkscape:connector-curvature="0" />
    </clipPath>
    <clipPath
       clipPathUnits="userSpaceOnUse"
       id="clipPath1218">
      <path
         style="fill:#000000;fill-opacity:0.50588223;stroke:none;stroke-width:1.29672933"
         d="M 20.50787,82.088049 V 181.84423 H 152.60522 V 82.088049 Z m 66.783002,21.480861 c 6.245198,-0.0672 13.225438,2.18731 15.697758,8.43824 4.32459,9.1995 -3.388786,17.31448 -8.523528,24.08795 -3.054694,2.15884 1.314291,4.31191 -0.687308,6.58201 -1.06815,0.27765 -2.191465,0.49271 -3.344492,0.65577 2.11582,1.0451 3.851063,2.83284 4.603855,5.11752 3.364125,8.47677 -8.354113,15.4954 -14.845612,9.92034 -5.533231,-3.6834 -4.059581,-11.7289 0.849577,-14.81204 -1.070504,-0.0873 -2.122302,-0.20815 -3.136767,-0.3638 -3.464402,-6.74246 2.721266,-14.36423 7.849658,-18.6526 2.404586,-0.82468 3.683714,-5.09875 0.02376,-4.98625 -3.838602,-0.43006 0.03381,5.07812 -3.750152,5.20898 -4.133717,-0.43444 -8.880342,1.09408 -12.658143,-0.72088 -2.789608,-9.96642 6.237896,-20.88686 16.683223,-20.43132 h 5.29e-4 c 0.408279,-0.0246 0.82132,-0.0394 1.237668,-0.0439 z"
         id="path1220"
         inkscape:connector-curvature="0" />
    </clipPath>
  </defs>
  <sodipodi:namedview
     id="base"
     pagecolor="#ffffff"
     bordercolor="#666666"
     borderopacity="1.0"
     inkscape:pageopacity="0.0"
     inkscape:pageshadow="2"
     inkscape:zoom="0.7"
     inkscape:cx="267.58712"
     inkscape:cy="101.82049"
     inkscape:document-units="mm"
     inkscape:current-layer="layer1"
     showgrid="false"
     inkscape:window-width="1182"
     inkscape:window-height="758"
     inkscape:window-x="2225"
     inkscape:window-y="119"
     inkscape:window-maximized="0"
     units="px"
     inkscape:object-nodes="false"
     inkscape:snap-nodes="false" />
  <metadata
     id="metadata5">
    <rdf:RDF>
      <cc:Work
         rdf:about="">
        <dc:format>image/svg+xml</dc:format>
        <dc:type
           rdf:resource="http://purl.org/dc/dcmitype/StillImage" />
        <dc:title />
      </cc:Work>
    </rdf:RDF>
  </metadata>
  <g
     inkscape:label="Ebene 1"
     inkscape:groupmode="layer"
     id="layer1"
     transform="translate(-39.394568,-84.80416)">
    <path
       style="fill:#000000;fill-opacity:0.50588223;stroke-width:0.26458335"
       d="m 40.680609,178.78828 c -1.335933,-0.67595 -1.332423,-0.63221 -1.261762,-15.7264 l 0.06592,-14.08186 0.602662,-0.60252 0.602662,-0.60251 h 14.435354 14.435352 l 0.645179,0.75007 0.645178,0.75006 -0.07278,14.28808 -0.07277,14.28808 -0.742357,0.63842 -0.74236,0.63842 -13.942017,-0.004 c -10.651575,-0.003 -14.096897,-0.0823 -14.598261,-0.33594 z m 24.961833,-4.85561 0.697537,-0.69754 v -9.84972 -9.84971 l -0.697537,-0.69754 -0.69754,-0.69754 h -9.638606 c -9.839142,0 -10.358972,0.0484 -11.116758,1.0354 -0.449494,0.58546 -0.478627,19.375 -0.03134,20.21481 0.652098,1.22436 0.632026,1.2221 10.967058,1.23096 l 9.819649,0.008 z m -15.966,-4.14023 c -1.224447,-0.61954 -1.342595,-1.24748 -1.266461,-6.73103 0.09459,-6.81256 -0.462643,-6.29058 6.715464,-6.29058 h 5.439518 l 0.653675,0.75994 0.653671,0.75994 -0.08127,5.28276 -0.08127,5.28276 -0.742357,0.63803 c -0.727706,0.62543 -0.839994,0.63795 -5.688543,0.63413 -3.435388,-0.003 -5.146631,-0.10533 -5.602427,-0.33595 z m 35.983333,8.99584 c -1.98859,-1.00618 -1.4379,-3.70045 0.83048,-4.06318 3.0657,-0.49023 3.0657,-4.19748 0,-4.68771 -1.27184,-0.20337 -1.99986,-0.98753 -1.99986,-2.15406 0,-1.16654 0.72802,-1.95069 1.99986,-2.15406 2.15983,-0.34538 3.05879,-2.47826 1.64177,-3.89528 -0.66768,-0.66768 -0.82005,-0.69754 -3.55942,-0.69754 -3.04264,0 -3.97926,0.24365 -4.43514,1.15371 -0.15597,0.31135 -0.31787,1.91609 -0.3598,3.5661 -0.0748,2.94499 -0.0904,3.01215 -0.847,3.66246 -0.89456,0.76884 -2.045814,0.6927 -2.932476,-0.19396 -0.495821,-0.49582 -0.530084,-0.87974 -0.530084,-5.93935 0,-7.16692 -0.570757,-6.58791 6.60021,-6.69567 5.32575,-0.08 5.40452,-0.0896 6.04527,-0.7303 0.35707,-0.35706 0.72196,-1.10416 0.81087,-1.66021 0.20676,-1.29299 0.98491,-1.99986 2.20152,-1.99986 1.04281,0 2.20151,1.0317 2.20151,1.96022 0,0.7981 0.53875,1.76716 1.1537,2.07521 0.31135,0.15597 1.91609,0.31788 3.5661,0.3598 2.930655,0.0745 3.015025,0.0937 3.649505,0.83194 l 0.6495,0.7557 -0.0776,7.53578 -0.0776,7.53578 -0.77077,0.66264 c -0.89427,0.76882 -2.045175,0.69306 -2.932485,-0.19304 -0.45933,-0.4587 -0.54183,-0.95036 -0.61806,-3.68349 -0.0829,-2.97199 -0.127,-3.19315 -0.76369,-3.82984 -1.0212,-1.0212 -2.84322,-0.77092 -3.47976,0.47801 -0.17151,0.3365 -0.31743,2.69482 -0.3598,5.81505 l -0.0713,5.24896 -0.74235,0.63802 c -0.68036,0.58472 -0.96763,0.63769 -3.43959,0.63411 -1.63078,-0.002 -2.95669,-0.13518 -3.35347,-0.33594 z m 26.987515,0 c -0.72925,-0.36898 -1.31828,-1.34923 -1.32424,-2.20377 -0.006,-0.82851 -1.1909,-1.86494 -2.3432,-2.0492 -1.27185,-0.20338 -1.99986,-0.98753 -1.99986,-2.15406 0,-1.16654 0.72801,-1.95069 1.99986,-2.15407 1.28897,-0.20611 2.22808,-1.14522 2.4342,-2.4342 0.27964,-1.74879 0.83294,-2.01371 4.41572,-2.1143 2.92123,-0.082 3.17816,-0.13233 3.78768,-0.74185 0.61008,-0.61008 0.65976,-0.86508 0.74185,-3.808 0.0794,-2.84484 0.14578,-3.21186 0.67741,-3.74284 0.86872,-0.86765 2.33829,-0.80211 3.14902,0.14042 0.62697,0.7289 0.62717,0.73146 0.62717,8.00782 0,8.5636 0.0696,8.82794 2.4249,9.20456 2.01067,0.32152 2.64888,2.45962 1.13251,3.79402 -0.66637,0.58641 -0.78414,0.59525 -7.87164,0.59141 -5.23956,-0.003 -7.3735,-0.0942 -7.85138,-0.33594 z m 6.97016,-4.85561 c 1.80421,-1.80421 -0.31211,-4.69035 -2.561,-3.49258 -1.19646,0.63724 -1.55645,1.77749 -0.93158,2.95074 0.75671,1.42078 2.36425,1.67017 3.49258,0.54184 z m -38.460805,0.35516 c -2.05414,-1.039 -1.33372,-3.99679 0.97349,-3.99679 2.03955,0 2.83424,2.35941 1.261,3.74385 -0.76722,0.67515 -1.28409,0.73366 -2.23449,0.25294 z m 26.992725,-8.9933 c -1.1208,-0.5671 -1.35128,-1.38045 -1.2701,-4.48212 0.0661,-2.52663 0.13885,-2.9021 0.66369,-3.42635 0.87964,-0.87865 2.33806,-0.80245 3.17081,0.16568 0.62047,0.72134 0.64509,0.88725 0.56102,3.78057 -0.0854,2.93958 -0.10916,3.04436 -0.83029,3.66409 -0.8334,0.71622 -1.33903,0.78189 -2.29513,0.29813 z m -4.50313,-8.99837 c -2.05415,-1.039 -1.33372,-3.99679 0.97349,-3.99679 2.03954,0 2.83424,2.35941 1.26099,3.74385 -0.76722,0.67515 -1.28409,0.73366 -2.23448,0.25294 z m 13.49375,0 c -2.05415,-1.039 -1.33372,-3.99679 0.97349,-3.99679 2.03955,0 2.83424,2.35941 1.261,3.74385 -0.76723,0.67515 -1.2841,0.73366 -2.23449,0.25294 z m 13.49375,0 c -2.05415,-1.039 -1.33372,-3.99679 0.97349,-3.99679 2.03955,0 2.83424,2.35941 1.261,3.74385 -0.76723,0.67515 -1.2841,0.73366 -2.23449,0.25294 z m -22.48959,-4.49791 c -2.05414,-1.03901 -1.33372,-3.9968 0.97349,-3.9968 2.03955,0 2.83424,2.35941 1.261,3.74386 -0.76722,0.67515 -1.28409,0.73366 -2.23449,0.25294 z m 17.99689,0.003 c -1.1208,-0.5671 -1.35128,-1.38044 -1.27011,-4.48211 0.0666,-2.54627 0.13614,-2.89939 0.67693,-3.43959 0.56029,-0.55967 0.82696,-0.602 3.79322,-0.602 h 3.19056 l 0.66299,0.77077 c 0.5141,0.59769 0.62786,0.95418 0.50654,1.5875 -0.18032,0.94133 -1.26434,2.00736 -2.04125,2.00736 -1.27639,0 -2.21857,0.92962 -2.45768,2.4249 -0.0981,0.61356 -0.41516,1.18013 -0.85321,1.5247 -0.80074,0.62986 -1.28484,0.67557 -2.20799,0.20847 z m -49.48231,-4.50056 c -2.054143,-1.039 -1.33372,-3.99679 0.973489,-3.99679 2.039546,0 2.834236,2.3594 1.260996,3.74385 -0.76722,0.67515 -1.284089,0.73366 -2.234485,0.25294 z m 9.001045,0.003 c -0.72924,-0.36897 -1.31827,-1.34923 -1.32423,-2.20376 -0.006,-0.8125 -1.18129,-1.86146 -2.28742,-2.04095 -1.27118,-0.20629 -1.92307,-0.84355 -2.1195,-2.07197 -0.29527,-1.84653 -1.88852,-2.81172 -3.353435,-2.0315 -0.813305,0.43316 -1.167691,0.98976 -1.347959,2.11709 -0.09884,0.61809 -0.415513,1.18041 -0.862965,1.53238 -0.697873,0.54895 -0.858777,0.55506 -12.692786,0.48217 l -11.985949,-0.0739 -0.602464,-0.60266 c -0.587599,-0.58779 -0.602464,-0.73613 -0.602464,-6.01192 0,-7.16692 -0.570756,-6.58791 6.600208,-6.69568 5.325754,-0.08 5.404526,-0.0895 6.045273,-0.73029 0.357065,-0.35707 0.721958,-1.10416 0.810874,-1.66021 0.206758,-1.293 0.984901,-1.99986 2.20151,-1.99986 1.056402,0 2.201511,1.03512 2.201511,1.99006 0,1.2764 0.929616,2.21858 2.424899,2.45769 2.010664,0.32152 2.648881,2.45962 1.132506,3.79402 -0.609878,0.53669 -0.950338,0.59531 -3.457263,0.59531 -2.773201,0 -3.622482,0.20647 -4.258916,1.03541 -0.626613,0.81614 -0.279249,2.37439 0.696262,3.12337 0.272859,0.20949 1.495367,0.32526 3.492579,0.33072 2.933592,0.008 3.102857,-0.0217 3.736928,-0.65573 0.366138,-0.36614 0.736693,-1.11781 0.825817,-1.67516 0.305917,-1.91309 0.620784,-2.0171 6.348337,-2.09694 3.720977,-0.0519 5.239657,0.0194 5.719607,0.26841 0.69861,0.36246 1.21707,1.20862 1.45495,2.37458 0.0808,0.39615 0.40609,0.9617 0.72281,1.25677 0.51029,0.47541 0.92751,0.53649 3.66488,0.53649 2.94553,0 3.11988,-0.0309 3.75318,-0.66415 0.36614,-0.36614 0.7367,-1.11781 0.82582,-1.67516 0.27964,-1.74879 0.83294,-2.01371 4.41572,-2.1143 2.950125,-0.0828 3.173425,-0.12758 3.809525,-0.76368 0.91361,-0.91362 0.90482,-2.15435 -0.0218,-3.08101 -0.66857,-0.66856 -0.81766,-0.69754 -3.589285,-0.69754 -3.73521,0 -4.49065,0.38025 -4.81761,2.4249 -0.43022,2.69049 -3.86146,2.6221 -4.29444,-0.0856 -0.20611,-1.28897 -1.14522,-2.22808 -2.4342,-2.4342 -0.55605,-0.0889 -1.23349,-0.40752 -1.50543,-0.708 -0.69078,-0.76331 -0.64415,-2.23396 0.0943,-2.9733 0.53097,-0.53163 0.898,-0.59806 3.74283,-0.67741 2.92674,-0.0816 3.20044,-0.13429 3.79646,-0.7303 0.35327,-0.35327 0.71507,-1.09727 0.80398,-1.65332 0.0889,-0.55605 0.4141,-1.23945 0.72262,-1.51866 0.52587,-0.47591 1.04055,-0.50766 8.229015,-0.50766 h 7.66804 l 0.63855,0.74236 c 0.58541,0.68058 0.63823,0.96684 0.63465,3.43958 -0.005,3.57661 -0.43623,4.34364 -2.70075,4.80564 -1.48107,0.30217 -2.19341,1.80529 -1.48546,3.1345 1.1182,2.09951 3.88705,1.38877 4.28501,-1.09993 0.32325,-2.02152 2.50866,-2.74392 3.79097,-1.25314 0.64021,0.74428 0.64203,0.76389 0.56103,6.02947 l -0.0813,5.28276 -0.77077,0.66247 c -1.35861,1.1677 -3.19587,0.35665 -3.49996,-1.54502 -0.0891,-0.55736 -0.45968,-1.30902 -0.82582,-1.67516 -0.62728,-0.62728 -0.82304,-0.66415 -3.52604,-0.66415 -3.04264,0 -3.97926,0.24364 -4.43514,1.1537 -0.15596,0.31135 -0.31787,1.9161 -0.3598,3.5661 -0.0741,2.91746 -0.0967,3.01757 -0.81858,3.63802 l -0.74236,0.63801 -7.195145,-0.004 c -5.23956,-0.003 -7.3735,-0.0941 -7.85139,-0.33594 z m -29.013168,-9.35364 c 1.804211,-1.80421 -0.312106,-4.69035 -2.561002,-3.49258 -1.196462,0.63724 -1.556451,1.77749 -0.931576,2.95074 0.756711,1.42078 2.364247,1.67017 3.492578,0.54184 z m 60.493383,9.351 c -2.05415,-1.039 -1.33372,-3.99679 0.97349,-3.99679 2.03955,0 2.83424,2.3594 1.261,3.74385 -0.76723,0.67515 -1.2841,0.73366 -2.23449,0.25294 z m -76.464596,-4.49792 c -2.054142,-1.039 -1.33372,-3.99679 0.97349,-3.99679 2.039547,0 2.834239,2.35941 1.260997,3.74385 -0.767222,0.67515 -1.284089,0.73366 -2.234487,0.25294 z m 80.967726,0.003 c -1.11924,-0.56631 -1.3513,-1.38153 -1.2701,-4.46179 0.0853,-3.23611 0.38723,-3.82533 2.10058,-4.09931 0.55735,-0.0891 1.30901,-0.45968 1.67515,-0.82581 1.38403,-1.38403 0.45711,-3.52093 -1.67515,-3.86189 -1.77848,-0.28451 -2.02632,-0.82555 -2.02632,-4.42357 0,-4.54675 -0.30823,-4.3452 6.64484,-4.3452 h 5.43952 l 0.63855,0.74236 c 0.5854,0.68058 0.63822,0.96684 0.63465,3.43958 -0.005,3.57661 -0.43624,4.34364 -2.70076,4.80564 -1.48385,0.30274 -1.79285,1.00649 -1.79716,4.09304 -0.005,3.68291 -0.42091,4.43766 -2.70075,4.9028 -0.99533,0.20306 -1.70061,1.04239 -1.89443,2.25447 -0.10551,0.65983 -0.41091,1.21734 -0.86062,1.57109 -0.80074,0.62986 -1.28485,0.67557 -2.208,0.20847 z m -80.967726,-13.4964 c -1.362335,-0.68908 -1.608887,-2.51695 -0.477593,-3.54076 0.453514,-0.41042 1.006665,-0.48249 3.70328,-0.48249 h 3.170131 l 0.662989,0.77077 c 0.814321,0.9467 0.688082,2.1068 -0.326403,2.99954 -0.60781,0.53487 -0.950347,0.59492 -3.37372,0.59141 -1.641542,-0.002 -2.956118,-0.13485 -3.358684,-0.33847 z m 31.490634,0.003 c -1.98859,-1.00618 -1.437902,-3.70045 0.830477,-4.06318 0.556051,-0.0889 1.304769,-0.45543 1.663819,-0.81448 l 0.652817,-0.65282 0.07748,-7.62083 c 0.08728,-8.58425 0.0865,-8.58096 2.103798,-8.90354 0.557356,-0.0891 1.309016,-0.45968 1.675156,-0.82582 0.63364,-0.63375 0.66415,-0.80683 0.66415,-3.76711 0,-2.960277 -0.0305,-3.133357 -0.66415,-3.766997 -0.36614,-0.36613 -1.1178,-0.73669 -1.675156,-0.82581 -1.945921,-0.31117 -2.026317,-0.5759 -2.026317,-6.67241 0,-5.219714 0.01849,-5.407331 0.589433,-5.978266 0.868447,-0.868447 2.33793,-0.803258 3.14902,0.139697 0.57381,0.667089 0.62717,0.965738 0.62717,3.509894 0,3.572465 0.49605,4.571435 2.27903,4.589645 1.08354,0.0111 2.10362,-1.01655 2.31379,-2.33089 0.20676,-1.293 0.9849,-1.999862 2.20151,-1.999862 1.0564,0 2.20151,1.035122 2.20151,1.990062 0,1.2764 0.92962,2.21858 2.4249,2.45769 2.01066,0.32151 2.64888,2.45962 1.1325,3.79402 -0.60987,0.53669 -0.95033,0.59531 -3.45726,0.59531 -4.27766,0 -4.57778,0.28229 -4.58964,4.316877 -0.0109,3.70199 0.37202,4.46062 2.41648,4.78754 1.6863,0.26965 2.07302,1.07369 2.07302,4.31012 0,3.59189 0.39836,4.36166 2.4249,4.68572 2.02744,0.3242 2.64756,2.46138 1.10718,3.8158 -0.66187,0.58197 -0.87236,0.61209 -3.6978,0.52917 -4.11252,-0.1207 -4.16887,-0.17912 -4.28789,-4.44593 -0.0829,-2.97199 -0.127,-3.19315 -0.76368,-3.82984 -1.02106,-1.02106 -2.84012,-0.77136 -3.48215,0.478 -0.18609,0.36214 -0.31573,3.26744 -0.35979,8.06383 l -0.0689,7.49775 -0.74235,0.63819 c -0.68044,0.58496 -0.96737,0.63787 -3.439591,0.63429 -1.630783,-0.002 -2.956695,-0.13518 -3.353469,-0.33594 z m -22.4948,-4.50057 c -1.362335,-0.68908 -1.608887,-2.51695 -0.477593,-3.54075 0.479428,-0.43388 1.079182,-0.4825 5.952238,-0.4825 h 5.41909 l 0.662988,0.77077 c 0.814321,0.94671 0.688083,2.1068 -0.326401,2.99955 -0.650395,0.57234 -0.867332,0.59516 -5.62268,0.59141 -3.455177,-0.003 -5.145578,-0.10476 -5.607642,-0.33848 z m 17.991668,0 c -2.054143,-1.039 -1.33372,-3.99679 0.973489,-3.99679 2.039549,0 2.834241,2.35941 1.260999,3.74386 -0.767223,0.67515 -1.284092,0.73366 -2.234488,0.25293 z m -26.982287,-8.99472 c -1.335933,-0.67595 -1.332423,-0.6322 -1.261762,-15.7264 l 0.06592,-14.081863 0.602662,-0.602511 0.602662,-0.60251 h 14.435354 14.435352 l 0.645179,0.750065 0.645178,0.750064 -0.07278,14.288075 -0.07277,14.28808 -0.742357,0.63842 -0.74236,0.63842 -13.942017,-0.004 c -10.651575,-0.003 -14.096897,-0.0823 -14.598261,-0.33594 z m 24.961833,-4.85561 0.697537,-0.69754 v -9.84972 -9.849717 l -0.697537,-0.69753 -0.69754,-0.697542 h -9.638606 c -9.839142,0 -10.358972,0.04842 -11.116758,1.035402 -0.449494,0.58545 -0.478627,19.374997 -0.03134,20.214807 0.652098,1.22436 0.632026,1.22211 10.967058,1.23096 l 9.819649,0.008 z m -15.966,-4.14023 c -1.224447,-0.61954 -1.342595,-1.24748 -1.266461,-6.73103 0.09459,-6.812557 -0.462643,-6.290577 6.715464,-6.290577 h 5.439518 l 0.653675,0.75994 0.653671,0.75994 -0.08127,5.282757 -0.08127,5.28276 -0.742357,0.63803 c -0.727706,0.62543 -0.839994,0.63795 -5.688543,0.63413 -3.435388,-0.003 -5.146631,-0.10533 -5.602427,-0.33595 z m 44.979173,8.99584 c -1.22445,-0.61954 -1.3426,-1.24748 -1.26647,-6.73103 0.0675,-4.85947 0.0969,-5.11279 0.66006,-5.67532 0.87631,-0.87538 2.3381,-0.80244 3.16415,0.1579 0.6402,0.74428 0.64203,0.76389 0.56102,6.02948 l -0.0813,5.28276 -0.74236,0.63803 c -0.83339,0.71627 -1.33901,0.78196 -2.29513,0.29818 z m 8.995835,0 c -1.33593,-0.67595 -1.33242,-0.6322 -1.26176,-15.7264 l 0.0659,-14.081863 0.60266,-0.602511 0.60267,-0.60251 h 14.43535 14.43535 l 0.64518,0.750065 0.64518,0.750064 -0.0728,14.288075 -0.0728,14.28808 -0.74236,0.63842 -0.74236,0.63842 -13.94202,-0.004 c -10.65157,-0.003 -14.09689,-0.0823 -14.59826,-0.33594 z m 24.96183,-4.85561 0.69754,-0.69754 v -9.84972 -9.849717 l -0.69754,-0.69753 -0.69754,-0.697542 h -9.6386 c -9.83914,0 -10.35897,0.04842 -11.11676,1.035402 -0.44949,0.58545 -0.47863,19.374997 -0.0313,20.214807 0.65209,1.22436 0.63202,1.22211 10.96706,1.23096 l 9.81964,0.008 z m -15.96599,-4.14023 c -1.22445,-0.61954 -1.3426,-1.24748 -1.26647,-6.73103 0.0946,-6.812557 -0.46264,-6.290577 6.71547,-6.290577 h 5.43952 l 0.65367,0.75994 0.65367,0.75994 -0.0813,5.282757 -0.0813,5.28276 -0.74235,0.63803 c -0.72771,0.62543 -0.84,0.63795 -5.68855,0.63413 -3.43539,-0.003 -5.14663,-0.10533 -5.60242,-0.33595 z M 94.655615,93.327853 c -0.72924,-0.36898 -1.31827,-1.34923 -1.32423,-2.20376 -0.006,-0.82852 -1.19091,-1.864947 -2.34321,-2.049207 -0.55605,-0.08892 -1.2335,-0.407518 -1.50543,-0.708004 -0.69117,-0.763728 -0.64419,-2.234106 0.095,-2.973293 0.54435,-0.544349 0.83347,-0.589433 3.77999,-0.589433 h 3.19056 l 0.66034,0.767682 c 0.63425,0.73737 0.65686,0.887172 0.5724,3.7938 -0.0854,2.939585 -0.10916,3.044355 -0.83029,3.664085 -0.8334,0.71622 -1.33903,0.7819 -2.29513,0.29813 z"
       id="path4530"
       inkscape:connector-curvature="0"
       clip-path="url(#clipPath1218)" />
    <g
       transform="matrix(0.42608242,0,0,0.42608242,-57.04221,-51.038385)"
       id="layer1-5"
       inkscape:label="Layer 1"
       style="fill:#000000;fill-opacity:0.50588223;stroke:none">
      <path
         style="fill:#000000;fill-opacity:0.50588223;fill-rule:evenodd;stroke:none"
         clip-path="url(#clipEmfPath1)"
         d="M 2.34927,145.99 C 2.34927,64.7727 47.6566,2.29333 149.178,6.99187 250.7,11.6345 264.74,81.9447 258.531,125.686 c -6.264,43.741 -71.093,106.724 -84.35,135.922 -13.312,29.142 3.077,31.211 4.643,39.042 l -109.2969,1.566 c -4.6985,-92.18 88.9929,-128.091 93.6909,-157.792 4.699,-29.646 -12.473,-37.476 -35.91,-42.175 -23.437,-4.6985 -45.3074,20.304 -34.4001,43.741 z"
         id="path3344"
         inkscape:connector-curvature="0"
         transform="matrix(0.28222222,0,0,0.28222222,300.15325,366.29309)" />
      <path
         style="fill:#000000;fill-opacity:0.50588223;stroke:none;stroke-width:2.40520239px;stroke-linecap:butt;stroke-linejoin:round;stroke-miterlimit:4;stroke-dasharray:none;stroke-opacity:1"
         clip-path="url(#clipEmfPath1)"
         d="M 2.34927,145.99 C 2.34927,64.7727 47.6566,2.29333 149.178,6.99187 250.7,11.6345 264.74,81.9447 258.531,125.686 c -6.264,43.741 -71.093,106.724 -84.35,135.922 -13.312,29.142 3.077,31.211 4.643,39.042 l -109.2969,1.566 c -4.6985,-92.18 88.9929,-128.091 93.6909,-157.792 4.699,-29.646 -12.473,-37.476 -35.91,-42.175 -23.437,-4.6985 -45.3074,20.304 -34.4001,43.741 z"
         id="path3346"
         inkscape:connector-curvature="0"
         transform="matrix(0.28222222,0,0,0.28222222,300.15325,366.29309)" />
      <path
         style="fill:#000000;fill-opacity:0.50588223;fill-rule:evenodd;stroke:none"
         d="m 336.27177,459.0838 c -9.36112,0 -16.93844,7.10354 -16.93844,15.86485 0,8.7613 7.57732,15.86512 16.93844,15.86512 9.36131,0 16.95422,-7.10382 16.95422,-15.86512 0,-8.76131 -7.59291,-15.86485 -16.95422,-15.86485 z"
         id="path3348"
         inkscape:connector-curvature="0" />
      <path
         style="fill:#000000;fill-opacity:0.50588223;stroke:none;stroke-width:2.40520239px;stroke-linecap:butt;stroke-linejoin:round;stroke-miterlimit:4;stroke-dasharray:none;stroke-opacity:1"
         clip-path="url(#clipEmfPath1)"
         d="m 127.979,328.786 c -33.1693,0 -60.0181,25.17 -60.0181,56.214 0,31.044 26.8488,56.215 60.0181,56.215 33.17,0 60.074,-25.171 60.074,-56.215 0,-31.044 -26.904,-56.214 -60.074,-56.214"
         id="path3350"
         inkscape:connector-curvature="0"
         transform="matrix(0.28222222,0,0,0.28222222,300.15325,366.29309)" />
    </g>
    <g
       transform="matrix(0.58154239,0,0,0.58154239,47.583216,185.10618)"
       id="layer1-5-2-3-7"
       inkscape:label="Layer 1"
       style="fill:#000000;fill-opacity:1;stroke:none"
       clip-path="url(#clipPath4990)" />
  </g>
</svg>
