<?xml version="1.0" encoding="UTF-8"?>
<!-- Created with Inkscape (http://www.inkscape.org/) -->
<svg width="357" height="357" version="1.1" viewBox="0 0 94.456251 94.456251" xmlns="http://www.w3.org/2000/svg" xmlns:cc="http://creativecommons.org/ns#" xmlns:dc="http://purl.org/dc/elements/1.1/" xmlns:rdf="http://www.w3.org/1999/02/22-rdf-syntax-ns#" xmlns:xlink="http://www.w3.org/1999/xlink">
 <defs>
  <linearGradient id="linearGradient92">
   <stop stop-color="#00feff" offset="0"/>
   <stop stop-color="#00f" stop-opacity="0" offset="1"/>
  </linearGradient>
  <linearGradient id="linearGradient60">
   <stop stop-color="#ff0039" offset="0"/>
   <stop stop-color="#f00" stop-opacity="0" offset="1"/>
  </linearGradient>
  <linearGradient id="linearGradient28">
   <stop stop-color="#30e60b" offset="0"/>
   <stop stop-color="#363959" stop-opacity=".74902" offset="1"/>
  </linearGradient>
  <radialGradient id="radialGradient94" cx="179.48" cy="195.96" r="48.154" gradientTransform="matrix(-.9533 .75523 -.62098 -.78383 460.69 299)" gradientUnits="userSpaceOnUse" xlink:href="#linearGradient92"/>
  <radialGradient id="radialGradient906" cx="58.293" cy="164.2" r="48.154" gradientTransform="matrix(.81633 -.69466 .64807 .76158 -178.65 274.64)" gradientUnits="userSpaceOnUse" xlink:href="#linearGradient60"/>
  <radialGradient id="radialGradient908" cx="77.919" cy="86.558" r="48.154" gradientTransform="matrix(1.6279 1.4961 -.77972 .84845 -118.77 -273.7)" gradientUnits="userSpaceOnUse" xlink:href="#linearGradient28"/>
  <radialGradient id="radialGradient1029" cx="166.88" cy="89.397" r="47.228" gradientTransform="matrix(1.5516 1.8972 -1.394 1.1401 -89.027 -329.36)" gradientUnits="userSpaceOnUse" xlink:href="#linearGradient28"/>
  <radialGradient id="radialGradient1029-9" cx="848.85" cy="122.03" r="47.228" gradientTransform="matrix(.82439 -.91963 1.341 1.2021 -815.03 802.52)" gradientUnits="userSpaceOnUse" xlink:href="#linearGradient60"/>
  <radialGradient id="radialGradient1029-9-6" cx="925.53" cy="114.86" r="47.228" gradientTransform="matrix(-1.0476 .50592 -.78317 -1.6217 1184.4 -186.77)" gradientUnits="userSpaceOnUse" xlink:href="#linearGradient92"/>
 </defs>
 <metadata>
  <rdf:RDF>
   <cc:Work rdf:about="">
    <dc:format>image/svg+xml</dc:format>
    <dc:type rdf:resource="http://purl.org/dc/dcmitype/StillImage"/>
    <dc:title/>
   </cc:Work>
  </rdf:RDF>
 </metadata>
 <g transform="translate(-39.395 -84.672)">
  <g>
   <path d="m-72.828-23.152v-16.007h32.015v32.015h-32.015zm27.517 0v-11.509h-23.019v23.019h23.019zm-18.344 6.8351-0.17639-0.17638v-13.406h13.758v13.758h-13.406zm36.601 6.9233v-2.249h-4.4979v-4.4979h-4.4979v-13.758h13.758v-4.7625h4.4979v4.7625h9.2604v-4.7625h4.4979v-4.4979h4.7625v4.4979h-4.7625v4.7625h4.7625v8.9958h-4.7625v-8.9958h-4.4979v18.256h-4.4854l-0.0724-4.5641-0.0724-4.5641-2.3151-0.0764-2.3151-0.0765v13.779h-9.2604zm4.7625-4.4979v-2.249h-4.7625v-4.4773l2.3151-0.0764 2.3151-0.0764 0.07645-2.3151 0.07645-2.3151h-9.281v9.2604h4.4979v4.4979h4.7625zm23.019 4.4979v-2.249h-4.7625v-4.4979h4.7625v-4.4854l4.5641-0.0724 4.5641-0.0724 0.0724-4.5641 0.0724-4.5641h4.4854v18.256h4.4979v4.4979h-18.256zm9.2604-4.4979v-2.249h-4.7625v4.4979h4.7625zm-4.7625-18.389v-2.3812h4.4979v4.7625h-4.4979zm13.935 2.2049-0.17639-0.17639v-4.4097h-4.4979v-8.9958h8.9958v4.4979h-4.4979v4.4979h4.4979v4.7625h-4.1451zm-55.21-11.333v-2.249h4.4979v4.4979h-4.4979zm9.1756 2.076-0.1798-0.1798v-4.4097h-4.4979v-4.4979h-4.7625v4.4979h-27.517v-13.758h-8.9958v-4.4979h8.9958v-4.4979h13.758v4.4979h4.7625v-4.4979h4.4979v4.4979h4.7625v-18.521h4.4979v-9.2604h-4.4979v-13.494h4.4979v8.9958h4.4979v-4.4979h4.7625v-4.4979h8.9958v8.9958h-4.4979v4.4854l-4.5641 0.0724-4.5641 0.0724-0.07235 4.5537-0.07235 4.5537 2.3213 0.0765 2.3213 0.0765 0.07239 4.5641 0.0724 4.5641h4.4854v-13.758h4.4979v13.758h-4.4979v4.4979h-9.2604v-8.9958h-4.4979v18.256h-9.2604v4.7625h13.758v4.4979h9.2604v-4.4979h-4.4979v-4.7624h-4.7625v-4.4979h9.2604v-4.4979h18.521v8.9958h4.4979v13.758h-4.4979v-4.4979h-9.2479l-0.0724 4.5641-0.0724 4.5641-9.0145 0.0696-9.0145 0.0696zm-27.696-11.336v-2.249h-4.7625v4.4979h4.7625zm13.758 0v-2.249h-9.2604v4.4979h9.2604zm32.279-4.6302v-2.3812h-9.2604v4.7625h9.2604zm9.2604 0v-2.3812h-4.7625v4.7625h4.7625zm-50.8-4.6302v-2.249h-13.758v4.4979h13.758zm9.2604 0v-2.249h-4.4979v4.4979h4.4979zm23.019-36.777v-2.249h-4.4979v4.4979h4.4979zm23.019 55.298v-2.249h4.4979v4.4979h-4.4979zm-78.052-4.7625v-2.249h4.4979v4.4979h-4.4979zm82.815-2.249v-4.4979h4.4979v-4.7625h-4.4979v-8.9958h13.494v8.9958h-4.4979v9.2604h-4.4979v4.4979h-4.4979zm-82.815-39.026v-16.007h32.015v32.015h-32.015zm27.517 0v-11.509h-23.019v23.019h23.019zm-18.459-0.0661 0.07061-6.813 6.813-0.07061 6.813-0.07061v13.767h-13.767zm55.236 0.0661v-16.007h32.015v32.015h-32.015zm27.517 0v-11.509h-23.019v23.019h23.019zm-18.256-0.13676v-6.8836l6.813 0.07061 6.813 0.07061 0.0706 6.813 0.0706 6.813h-13.767z" fill="url(#radialGradient908)" stroke-width=".26458"/>
   <path d="m-43.554 358.12v-16.007h32.015v32.015h-32.015zm27.517 0v-11.509h-23.019v23.019h23.019zm-18.344 6.8351-0.17639-0.17638v-13.406h13.758v13.758h-13.406zm36.601 6.9233v-2.249h-4.4979v-4.4979h-4.4979v-13.758h13.758v-4.7625h4.4979v4.7625h9.2604v-4.7625h4.4979v-4.4979h4.7625v4.4979h-4.7625v4.7625h4.7625v8.9958h-4.7625v-8.9958h-4.4979v18.256h-4.4854l-0.0724-4.5641-0.0724-4.5641-2.3151-0.0764-2.3151-0.0765v13.779h-9.2604zm4.7625-4.4979v-2.249h-4.7625v-4.4773l2.3151-0.0764 2.3151-0.0764 0.0764-2.3151 0.0765-2.3151h-9.281v9.2604h4.4979v4.4979h4.7625zm23.019 4.4979v-2.249h-4.7625v-4.4979h4.7625v-4.4854l4.5641-0.0724 4.5641-0.0724 0.0724-4.5641 0.0724-4.5641h4.4854v18.256h4.4979v4.4979h-18.256zm9.2604-4.4979v-2.249h-4.7625v4.4979h4.7625zm-4.7625-18.389v-2.3812h4.4979v4.7625h-4.4979zm13.935 2.2049-0.17639-0.17639v-4.4097h-4.4979v-8.9958h8.9958v4.4979h-4.4979v4.4979h4.4979v4.7625h-4.1451zm-55.21-11.333v-2.249h4.4979v4.4979h-4.4979zm9.1756 2.076-0.17981-0.1798v-4.4097h-4.4979v-4.4979h-4.7625v4.4979h-27.517v-13.758h-8.9958v-4.4979h8.9958v-4.4979h13.758v4.4979h4.7625v-4.4979h4.4979v4.4979h4.7625v-18.521h4.4979v-9.2604h-4.4979v-13.494h4.4979v8.9958h4.4979v-4.4979h4.7625v-4.4979h8.9958v8.9958h-4.4979v4.4854l-4.5641 0.0724-4.5641 0.0724-0.07235 4.5537-0.07235 4.5537 2.3213 0.0765 2.3213 0.0765 0.0724 4.5641 0.0724 4.5641h4.4854v-13.758h4.4979v13.758h-4.4979v4.4979h-9.2604v-8.9958h-4.4979v18.256h-9.2604v4.7625h13.758v4.4979h9.2604v-4.4979h-4.4979v-4.7624h-4.7625v-4.4979h9.2604v-4.4979h18.521v8.9958h4.4979v13.758h-4.4979v-4.4979h-9.2479l-0.0724 4.5641-0.0724 4.5641-9.0145 0.0696-9.0145 0.0696zm-27.696-11.336v-2.249h-4.7625v4.4979h4.7625zm13.758 0v-2.249h-9.2604v4.4979h9.2604zm32.279-4.6302v-2.3812h-9.2604v4.7625h9.2604zm9.2604 0v-2.3812h-4.7625v4.7625h4.7625zm-50.8-4.6302v-2.249h-13.758v4.4979h13.758zm9.2604 0v-2.249h-4.4979v4.4979h4.4979zm23.019-36.777v-2.249h-4.4979v4.4979h4.4979zm23.019 55.298v-2.249h4.4979v4.4979h-4.4979zm-78.052-4.7625v-2.249h4.4979v4.4979h-4.4979zm82.815-2.249v-4.4979h4.4979v-4.7625h-4.4979v-8.9958h13.494v8.9958h-4.4979v9.2604h-4.4979v4.4979h-4.4979zm-82.815-39.026v-16.007h32.015v32.015h-32.015zm27.517 0v-11.509h-23.019v23.019h23.019zm-18.459-0.0661 0.07061-6.813 6.813-0.0706 6.813-0.0706v13.767h-13.767zm55.236 0.0661v-16.007h32.015v32.015h-32.015zm27.517 0v-11.509h-23.019v23.019h23.019zm-18.256-0.13676v-6.8836l6.813 0.0706 6.813 0.0706 0.0706 6.813 0.0706 6.813h-13.767z" fill="url(#radialGradient906)" stroke-width=".26458"/>
   <path d="m80.725 351.84v-16.007h32.015v32.015h-32.015zm27.517 0v-11.509h-23.019v23.019h23.019zm-18.344 6.8351-0.17639-0.17638v-13.406h13.758v13.758h-13.406zm36.601 6.9233v-2.249h-4.4979v-4.4979h-4.4979v-13.758h13.758v-4.7625h4.4979v4.7625h9.2604v-4.7625h4.4979v-4.4979h4.7625v4.4979h-4.7625v4.7625h4.7625v8.9958h-4.7625v-8.9958h-4.4979v18.256h-4.4854l-0.0724-4.5641-0.0724-4.5641-2.3151-0.0764-2.3151-0.0765v13.779h-9.2604zm4.7625-4.4979v-2.249h-4.7625v-4.4773l2.3151-0.0764 2.3151-0.0764 0.0764-2.3151 0.0765-2.3151h-9.281v9.2604h4.4979v4.4979h4.7625zm23.019 4.4979v-2.249h-4.7625v-4.4979h4.7625v-4.4854l4.5641-0.0724 4.564-0.0724 0.0724-4.5641 0.0724-4.5641h4.4854v18.256h4.4979v4.4979h-18.256zm9.2604-4.4979v-2.249h-4.7625v4.4979h4.7625zm-4.7625-18.389v-2.3812h4.4979v4.7625h-4.4979zm13.935 2.2049-0.17639-0.17639v-4.4097h-4.4979v-8.9958h8.9958v4.4979h-4.4979v4.4979h4.4979v4.7625h-4.1451zm-55.21-11.333v-2.249h4.4979v4.4979h-4.4979zm9.1756 2.076-0.1798-0.1798v-4.4097h-4.4979v-4.4979h-4.7625v4.4979h-27.517v-13.758h-8.9958v-4.4979h8.9958v-4.4979h13.758v4.4979h4.7625v-4.4979h4.4979v4.4979h4.7625v-18.521h4.4979v-9.2604h-4.4979v-13.494h4.4979v8.9958h4.4979v-4.4979h4.7625v-4.4979h8.9958v8.9958h-4.4979v4.4854l-4.5641 0.0724-4.5641 0.0724-0.0724 4.5537-0.0724 4.5537 2.3213 0.0765 2.3213 0.0765 0.0724 4.5641 0.0724 4.5641h4.4854v-13.758h4.4979v13.758h-4.4979v4.4979h-9.2604v-8.9958h-4.4979v18.256h-9.2604v4.7625h13.758v4.4979h9.2604v-4.4979h-4.4979v-4.7624h-4.7625v-4.4979h9.2604v-4.4979h18.521v8.9958h4.4979v13.758h-4.4979v-4.4979h-9.2479l-0.0724 4.5641-0.0724 4.5641-9.0145 0.0696-9.0145 0.0696zm-27.696-11.336v-2.249h-4.7625v4.4979h4.7625zm13.758 0v-2.249h-9.2604v4.4979h9.2604zm32.279-4.6302v-2.3812h-9.2604v4.7625h9.2604zm9.2604 0v-2.3812h-4.7625v4.7625h4.7625zm-50.8-4.6302v-2.249h-13.758v4.4979h13.758zm9.2604 0v-2.249h-4.4979v4.4979h4.4979zm23.019-36.777v-2.249h-4.4979v4.4979h4.4979zm23.019 55.298v-2.249h4.4979v4.4979h-4.4979zm-78.052-4.7625v-2.249h4.4979v4.4979h-4.4979zm82.815-2.249v-4.4979h4.4979v-4.7625h-4.4979v-8.9958h13.494v8.9958h-4.4979v9.2604h-4.4979v4.4979h-4.4979zm-82.815-39.026v-16.007h32.015v32.015h-32.015zm27.517 0v-11.509h-23.019v23.019h23.019zm-18.459-0.0661 0.0706-6.813 6.813-0.0706 6.813-0.0706v13.767h-13.767zm55.236 0.0661v-16.007h32.015v32.015h-32.015zm27.517 0v-11.509h-23.019v23.019h23.019zm-18.256-0.13676v-6.8836l6.813 0.0706 6.813 0.0706 0.0706 6.813 0.0706 6.813h-13.767z" fill="url(#radialGradient94)" stroke-width=".26458"/>
  </g>
  <g stroke-width=".26458">
   <g>
    <path d="m-98.898 189.04v-2.249h-4.4979v-4.4979h-4.4979v-13.758h13.758v-4.7625h4.4979v4.7625h9.2604v-4.7625h4.4979v-4.4979h4.7625v4.4979h-4.7625v4.7625h4.7625v8.9958h-4.7625v-8.9958h-4.4979v18.256h-4.4854l-0.0724-4.5641-0.0724-4.5641-2.3151-0.0764-2.3151-0.0765v13.779h-9.2604z"/>
    <path d="m-94.135 184.55v-2.249h-4.7625v-4.4773l2.3151-0.0764 2.3151-0.0764 0.0764-2.3151 0.0765-2.3151h-9.281v9.2604h4.4979v4.4979h4.7625z"/>
    <path d="m-52.684 168.36-0.17639-0.17639v-4.4097h-4.4979v-8.9958h8.9958v4.4979h-4.4979v4.4979h4.4979v4.7625h-4.1451z"/>
    <path d="m-107.89 157.03v-2.249h4.4979v4.4979h-4.4979z"/>
    <path d="m-98.718 159.11-0.1798-0.1798v-4.4097h-4.4979v-4.4979h-4.7625v4.4979h-27.517v-13.758h-8.9958v-4.4979h8.9958v-4.4979h13.758v4.4979h4.7625v-4.4979h4.4979v4.4979h4.7625v-18.521h4.4979v-9.2604h-4.4979v-13.494h4.4979v8.9958h4.4979v-4.4979h4.7625v-4.4979h8.9958v8.9958h-4.4979v4.4854l-4.5641 0.0724-4.5641 0.0724-0.0724 4.5537-0.0724 4.5537 2.3213 0.0765 2.3213 0.0765 0.0724 4.5641 0.0724 4.5641h4.4854v-13.758h4.4979v13.758h-4.4979v4.4979h-9.2604v-8.9958h-4.4979v18.256h-9.2604v4.7625h13.758v4.4979h9.2604v-4.4979h-4.4979v-4.7624h-4.7625v-4.4979h9.2604v-4.4979h18.521v8.9958h4.4979v13.758h-4.4979v-4.4979h-9.2479l-0.0724 4.5641-0.0724 4.5641-9.0145 0.0696-9.0145 0.0696z"/>
    <path d="m-126.41 147.77v-2.249h-4.7625v4.4979h4.7625z"/>
    <path d="m-112.66 147.77v-2.249h-9.2604v4.4979h9.2604z"/>
    <path d="m-80.377 143.14v-2.3812h-9.2604v4.7625h9.2604z"/>
    <path d="m-71.117 143.14v-2.3812h-4.7625v4.7625h4.7625z"/>
    <path d="m-121.92 138.51v-2.249h-13.758v4.4979h13.758z"/>
    <path d="m-112.66 138.51v-2.249h-4.4979v4.4979h4.4979z"/>
    <path d="m-89.637 101.73v-2.249h-4.4979v4.4979h4.4979z"/>
    <path d="m-66.619 157.03v-2.249h4.4979v4.4979h-4.4979z"/>
    <path d="m-144.67 152.27v-2.249h4.4979v4.4979h-4.4979z"/>
    <path d="m-61.856 150.02v-4.4979h4.4979v-4.7625h-4.4979v-8.9958h13.494v8.9958h-4.4979v9.2604h-4.4979v4.4979h-4.4979z"/>
   </g>
   <path d="m38.58 179.94-0.7734-0.7734v-28.392l0.7734-0.77339 0.7734-0.7734h28.392l0.77339 0.7734 0.7734 0.77339v28.392l-0.7734 0.7734-0.77339 0.7734h-28.392zm25.517-4.4221 0.69753-0.69754v-19.699l-0.69753-0.69754-0.69754-0.69754h-19.699l-0.69753 0.69754-0.69754 0.69754v19.699l0.69754 0.69754 0.69753 0.69754h19.699zm-16.521-4.5738-0.7734-0.77339v-10.4l0.7734-0.7734 0.7734-0.7734h10.4l0.7734 0.7734 0.7734 0.7734v10.4l-0.7734 0.77339-0.7734 0.7734h-10.4zm26.988 8.9958c-0.46624-0.46624-0.77339-1.0523-0.77339-1.4756s0.30715-1.0093 0.77339-1.4756c0.76236-0.76236 0.81553-0.7734 3.7245-0.7734s2.9622 0.011 3.7245 0.7734c0.46624 0.46625 0.7734 1.0523 0.7734 1.4756s-0.30716 1.0093-0.7734 1.4756c-0.76235 0.76236-0.81553 0.7734-3.7245 0.7734s-2.9622-0.011-3.7245-0.7734zm13.494 0c-0.46625-0.46624-0.7734-1.0523-0.7734-1.4756 0-0.92816 1.3208-2.249 2.249-2.249 0.92815 0 2.249 1.3208 2.249 2.249s-1.3208 2.249-2.249 2.249c-0.4233 0-1.0093-0.30716-1.4756-0.7734zm8.9958 0c-0.46624-0.46624-0.7734-1.0523-0.7734-1.4756 0-0.92816 1.3208-2.249 2.249-2.249 0.92816 0 2.249 1.3208 2.249 2.249s-1.3208 2.249-2.249 2.249c-0.4233 0-1.0093-0.30716-1.4756-0.7734zm13.494 0c-0.50413-0.50413-0.7734-1.0443-0.7734-1.5514 0-0.48785-0.26016-1.0382-0.69754-1.4756s-0.98771-0.69754-1.4756-0.69754c-1.0048 0-2.3248-1.277-2.3248-2.249 0-0.97201 1.32-2.249 2.3248-2.249 1.0359 0 2.1731-1.1372 2.1731-2.1731 0-0.50714 0.26927-1.0473 0.7734-1.5514 0.76467-0.76467 0.80755-0.77339 3.8004-0.77339 2.9178 0 3.0522-0.0252 3.7245-0.69754 0.67237-0.67237 0.69754-0.80677 0.69754-3.7245 0-2.9928 9e-3 -3.0357 0.77339-3.8004 1.0036-1.0036 1.9476-1.0036 2.9511 0l0.7734 0.7734v15.05l0.69754 0.69754c0.43738 0.43738 0.98772 0.69754 1.4756 0.69754 1.0048 0 2.3248 1.277 2.3248 2.249 0 0.4233-0.30716 1.0093-0.7734 1.4756l-0.77339 0.7734h-14.898zm7.5249-4.4221c0.46547-0.46547 0.69754-0.98161 0.69754-1.5514 0-0.56982-0.23207-1.086-0.69754-1.5514-0.46548-0.46548-0.98161-0.69754-1.5514-0.69754s-1.086 0.23206-1.5514 0.69754c-0.46548 0.46548-0.69754 0.98161-0.69754 1.5514 0 0.5698 0.23206 1.0859 0.69754 1.5514 0.46547 0.46548 0.98161 0.69754 1.5514 0.69754s1.0859-0.23206 1.5514-0.69754zm-43.508-4.5738-0.77339-0.77339v-14.898l0.77339-0.7734c0.76236-0.76235 0.81553-0.7734 3.7245-0.7734s2.9622 0.011 3.7245 0.7734c0.46624 0.46624 0.7734 1.0523 0.7734 1.4756 0 0.97201-1.32 2.249-2.3248 2.249-0.48784 0-1.0382 0.26016-1.4756 0.69754-0.67435 0.67436-0.69754 0.80066-0.69754 3.8004 0 2.9997 0.0232 3.126 0.69754 3.8004 0.43738 0.43738 0.98772 0.69754 1.4756 0.69754 1.0048 0 2.3248 1.277 2.3248 2.249 0 0.4233-0.30716 1.0093-0.7734 1.4756-0.76235 0.76236-0.81553 0.7734-3.7245 0.7734s-2.9622-0.011-3.7245-0.7734zm13.494 0c-0.46625-0.46623-0.7734-1.0523-0.7734-1.4756 0-0.92815 1.3208-2.249 2.249-2.249 0.92815 0 2.249 1.3208 2.249 2.249 0 0.92816-1.3208 2.249-2.249 2.249-0.4233 0-1.0093-0.30716-1.4756-0.7734zm8.9958 0c-0.46624-0.46623-0.7734-1.0523-0.7734-1.4756 0-0.92815 1.3208-2.249 2.249-2.249 0.92816 0 2.249 1.3208 2.249 2.249 0 0.92816-1.3208 2.249-2.249 2.249-0.4233 0-1.0093-0.30716-1.4756-0.7734zm-13.494-4.4979c-0.76236-0.76236-0.7734-0.81553-0.7734-3.7245s0.011-2.9622 0.7734-3.7245c0.46624-0.46624 1.0523-0.7734 1.4756-0.7734s1.0093 0.30716 1.4756 0.7734c0.76236 0.76235 0.7734 0.81553 0.7734 3.7245s-0.011 2.9622-0.7734 3.7245c-0.46624 0.46624-1.0523 0.7734-1.4756 0.7734s-1.0093-0.30716-1.4756-0.7734zm8.9958 0c-0.76467-0.76468-0.7734-0.80755-0.7734-3.8004 0-2.9178-0.0252-3.0522-0.69753-3.7245-0.43738-0.43738-0.98772-0.69754-1.4756-0.69754-1.0048 0-2.3248-1.277-2.3248-2.249 0-0.972 1.32-2.249 2.3248-2.249 1.076 0 2.1731-1.1354 2.1731-2.249 0-0.56981-0.23206-1.086-0.69753-1.5514l-0.69754-0.69753h-15.05l-0.7734-0.7734c-0.50412-0.50413-0.77339-1.0443-0.77339-1.5514 0-0.48785-0.26016-1.0382-0.69754-1.4756l-0.69754-0.69754h-10.552l-0.7734-0.7734c-0.76235-0.76235-0.77339-0.81553-0.77339-3.7245 0-2.909 0.011-2.9622 0.77339-3.7245 0.46624-0.46625 1.0523-0.7734 1.4756-0.7734 0.97201 0 2.249 1.32 2.249 2.3248 0 0.48785 0.26016 1.0382 0.69754 1.4756l0.69754 0.69753h15.05l0.77339 0.7734c0.50413 0.50413 0.7734 1.0443 0.7734 1.5514 0 1.076 1.1354 2.1731 2.249 2.1731s2.249-1.0971 2.249-2.1731c0-1.0048 1.277-2.3248 2.249-2.3248 0.972 0 2.249 1.32 2.249 2.3248 0 1.076 1.1354 2.1731 2.249 2.1731s2.249-1.0971 2.249-2.1731c0-1.0048 1.277-2.3248 2.249-2.3248 0.97199 0 2.249 1.32 2.249 2.3248 0 1.0359 1.1372 2.1731 2.1731 2.1731 1.0492 0 2.3248 1.2757 2.3248 2.3248 0 0.48784 0.26016 1.0382 0.69754 1.4756s0.98772 0.69754 1.4756 0.69754c1.0048 0 2.3248 1.277 2.3248 2.249 0 0.972-1.32 2.249-2.3248 2.249-0.48784 0-1.0382 0.26016-1.4756 0.69754s-0.69754 0.98772-0.69754 1.4756c0 0.50715-0.26926 1.0473-0.77339 1.5514-0.76468 0.76468-0.80755 0.7734-3.8004 0.7734-2.9177 0-3.0521 0.0252-3.7245 0.69754-0.67237 0.67237-0.69754 0.80677-0.69754 3.7245 0 2.9928-9e-3 3.0357-0.7734 3.8004-0.46624 0.46624-1.0523 0.7734-1.4756 0.7734s-1.0093-0.30716-1.4756-0.7734zm7.5249-13.418c1.4014-1.4014 0.42207-3.8004-1.5514-3.8004-1.1541 0-2.249 1.0948-2.249 2.249 0 1.1541 1.0948 2.249 2.249 2.249 0.56981 0 1.0859-0.23206 1.5514-0.69753zm5.9688 13.418c-0.76235-0.76236-0.7734-0.81553-0.7734-3.7245s0.011-2.9622 0.7734-3.7245c0.46624-0.46624 1.0523-0.7734 1.4756-0.7734s1.0093 0.30716 1.4756 0.7734c0.76236 0.76235 0.7734 0.81553 0.7734 3.7245s-0.011 2.9622-0.7734 3.7245c-0.46624 0.46624-1.0523 0.7734-1.4756 0.7734s-1.0093-0.30716-1.4756-0.7734zm8.9958-8.9958c-0.46624-0.46624-0.7734-1.0523-0.7734-1.4756 0-0.92816 1.3208-2.249 2.249-2.249 0.4233 0 1.0093 0.30717 1.4756 0.7734 0.46624 0.46624 0.7734 1.0523 0.7734 1.4756s-0.30716 1.0093-0.7734 1.4756-1.0523 0.7734-1.4756 0.7734-1.0093-0.30716-1.4756-0.7734zm13.494 0c-0.46624-0.46624-0.7734-1.0523-0.7734-1.4756 0-0.92816 1.3208-2.249 2.249-2.249 0.4233 0 1.0093 0.30717 1.4756 0.7734 0.46624 0.46624 0.7734 1.0523 0.7734 1.4756s-0.30716 1.0093-0.7734 1.4756-1.0523 0.7734-1.4756 0.7734-1.0093-0.30716-1.4756-0.7734zm-4.4979-4.4979c-0.76236-0.76236-0.7734-0.81553-0.7734-3.7245s0.011-2.9622 0.7734-3.7245c0.76236-0.76236 0.81553-0.7734 3.7245-0.7734s2.9622 0.011 3.7245 0.7734c0.46624 0.46624 0.7734 1.0523 0.7734 1.4756 0 0.972-1.32 2.249-2.3248 2.249-0.48785 0-1.0382 0.26016-1.4756 0.69753-0.43738 0.43738-0.69754 0.98772-0.69754 1.4756 0 1.0048-1.277 2.3248-2.249 2.3248-0.4233 0-1.0093-0.30715-1.4756-0.77339zm-8.9958-4.4979c-0.46624-0.46624-0.7734-1.0523-0.7734-1.4756 0-0.92816 1.3208-2.249 2.249-2.249 0.4233 0 1.0093 0.30716 1.4756 0.7734s0.7734 1.0523 0.7734 1.4756c0 0.92816-1.3208 2.249-2.249 2.249-0.4233 0-1.0093-0.30716-1.4756-0.7734zm-62.971-4.4979c-0.50413-0.50412-0.7734-1.0443-0.7734-1.5514 0-0.48784-0.26016-1.0382-0.69754-1.4756l-0.69753-0.69754h-10.552l-0.7734-0.77339c-0.76236-0.76236-0.7734-0.81554-0.7734-3.7245 0-2.909 0.011-2.9622 0.7734-3.7245 0.46624-0.46624 1.0523-0.7734 1.4756-0.7734 0.972 0 2.249 1.32 2.249 2.3248 0 1.076 1.1354 2.1731 2.249 2.1731 1.1136 0 2.249-1.0971 2.249-2.1731 0-1.0492 1.2757-2.3248 2.3248-2.3248 1.076 0 2.1731-1.1354 2.1731-2.249s-1.0971-2.249-2.1731-2.249c-1.0048 0-2.3248-1.277-2.3248-2.249 0-0.42329 0.30716-1.0093 0.7734-1.4756l0.7734-0.77339h19.396l0.77339 0.77339c0.46624 0.46625 0.7734 1.0523 0.7734 1.4756 0 0.97201-1.32 2.249-2.3248 2.249-0.48784 0-1.0382 0.26016-1.4756 0.69754s-0.69754 0.98772-0.69754 1.4756c0 1.0492-1.2757 2.3248-2.3248 2.3248-1.0359 0-2.1731 1.1372-2.1731 2.1731 0 1.0492-1.2757 2.3248-2.3248 2.3248-0.48785 0-1.0382 0.26016-1.4756 0.69753-0.67237 0.67237-0.69754 0.80677-0.69754 3.7245 0 2.9928-9e-3 3.0357-0.7734 3.8004-0.46624 0.46624-1.0523 0.7734-1.4756 0.7734s-1.0093-0.30716-1.4756-0.7734zm58.473 0c-0.50413-0.50412-0.7734-1.0443-0.7734-1.5514 0-1.0359-1.1372-2.1731-2.1731-2.1731-1.0048 0-2.3248-1.277-2.3248-2.249 0-0.97201 1.32-2.249 2.3248-2.249 1.0359 0 2.1731-1.1372 2.1731-2.1731 0-1.0048 1.277-2.3248 2.249-2.3248 0.4233 0 1.0093 0.30716 1.4756 0.7734l0.7734 0.77339v10.4l-0.7734 0.77339c-0.46624 0.46624-1.0523 0.7734-1.4756 0.7734s-1.0093-0.30716-1.4756-0.7734zm8.9958 0c-0.76235-0.76235-0.77339-0.81553-0.77339-3.7245 0-2.909 0.011-2.9622 0.77339-3.7245 0.50413-0.50413 1.0443-0.7734 1.5514-0.7734 1.076 0 2.1731-1.1354 2.1731-2.249s-1.0971-2.249-2.1731-2.249c-1.0492 0-2.3248-1.2757-2.3248-2.3248 0-0.48784-0.26016-1.0382-0.69754-1.4756-0.67436-0.67435-0.80067-0.69754-3.8004-0.69754-2.9997 0-3.126 0.0232-3.8004 0.69754-0.43738 0.43738-0.69754 0.98772-0.69754 1.4756 0 1.0048-1.277 2.3248-2.249 2.3248-0.972 0-2.249-1.32-2.249-2.3248 0-1.0359-1.1372-2.1731-2.1731-2.1731-1.0048 0-2.3248-1.277-2.3248-2.249 0-0.42329 0.30716-1.0093 0.7734-1.4756l0.77339-0.77339h19.396l0.77339 0.77339c0.50413 0.50413 0.7734 1.0443 0.7734 1.5514 0 0.48785 0.26016 1.0382 0.69754 1.4756 0.67237 0.67236 0.80677 0.69753 3.7245 0.69753 2.9928 0 3.0357 9e-3 3.8004 0.7734 0.46624 0.46624 0.7734 1.0523 0.7734 1.4756 0 0.97201-1.32 2.249-2.3248 2.249-0.48785 0-1.0382 0.26016-1.4756 0.69754-0.67237 0.67237-0.69754 0.80676-0.69754 3.7245 0 2.9928-9e-3 3.0357-0.7734 3.8004-0.50413 0.50412-1.0443 0.77339-1.5514 0.77339-1.0359 0-2.1731 1.1372-2.1731 2.1731 0 1.0048-1.277 2.3248-2.249 2.3248-0.4233 0-1.0093-0.30716-1.4756-0.7734zm-53.975-8.9958c-0.46624-0.46624-0.7734-1.0523-0.7734-1.4756s0.30716-1.0093 0.7734-1.4756c0.76467-0.76467 0.80755-0.7734 3.8004-0.7734 2.9178 0 3.0522-0.0252 3.7245-0.69754 0.43738-0.43738 0.69754-0.98771 0.69754-1.4756 0-0.50714 0.26927-1.0473 0.77339-1.5514l0.7734-0.7734h10.4l0.7734 0.7734c0.50413 0.50413 0.7734 1.0443 0.7734 1.5514 0 1.0359 1.1372 2.1731 2.1731 2.1731 1.0048 0 2.3248 1.277 2.3248 2.249 0 0.4233-0.30715 1.0093-0.77339 1.4756l-0.7734 0.7734h-23.894zm31.485 0c-0.46624-0.46624-0.7734-1.0523-0.7734-1.4756s0.30716-1.0093 0.7734-1.4756 1.0523-0.7734 1.4756-0.7734c0.92816 0 2.249 1.3208 2.249 2.249 0 0.4233-0.30716 1.0093-0.7734 1.4756-0.46624 0.46624-1.0523 0.7734-1.4756 0.7734-0.4233 0-1.0093-0.30716-1.4756-0.7734zm-53.975-4.4979c-1.0036-1.0036-1.0036-1.9476 0-2.9511 0.46625-0.46624 1.0523-0.7734 1.4756-0.7734 0.92816 0 2.249 1.3208 2.249 2.249s-1.3208 2.249-2.249 2.249c-0.4233 0-1.0093-0.30716-1.4756-0.7734zm49.477 0c-0.76467-0.76467-0.7734-0.80754-0.7734-3.8004 0-2.9178-0.0252-3.0522-0.69753-3.7245-0.67237-0.67236-0.80677-0.69753-3.7245-0.69753-2.9928 0-3.0357-9e-3 -3.8004-0.7734-0.76236-0.76236-0.7734-0.81553-0.7734-3.7245s0.011-2.9622 0.7734-3.7245c0.46624-0.46624 1.0523-0.7734 1.4756-0.7734 0.972 0 2.249 1.32 2.249 2.3248 0 1.076 1.1354 2.1731 2.249 2.1731 0.5698 0 1.0859-0.23206 1.5514-0.69754 0.67435-0.67435 0.69753-0.80066 0.69753-3.8004 0-2.9997-0.0232-3.126-0.69753-3.8004-0.43738-0.43738-0.98772-0.69753-1.4756-0.69753-1.0492 0-2.3248-1.2757-2.3248-2.3248 0-1.076-1.1354-2.1731-2.249-2.1731s-2.249 1.0971-2.249 2.1731c0 1.0492-1.2757 2.3248-2.3248 2.3248-0.48784 0-1.0382 0.26015-1.4756 0.69753l-0.69754 0.69754v10.552l-0.7734 0.7734c-0.46624 0.46624-1.0523 0.7734-1.4756 0.7734-0.42329 0-1.0093-0.30716-1.4756-0.7734l-0.77339-0.7734v-23.894l0.77339-0.7734 0.7734-0.7734h10.4l0.7734 0.7734c0.50413 0.50413 0.7734 1.0443 0.7734 1.5514 0 0.48785 0.26016 1.0382 0.69753 1.4756 0.67237 0.67237 0.80677 0.69754 3.7245 0.69754 2.9928 0 3.0357 9e-3 3.8004 0.7734l0.7734 0.77341v28.392l-0.7734 0.77339c-0.46624 0.46624-1.0523 0.7734-1.4756 0.7734s-1.0093-0.30716-1.4756-0.7734zm-53.975-4.4979c-0.46624-0.46624-0.7734-1.0523-0.7734-1.4756 0-0.92815 1.3208-2.249 2.249-2.249s2.249 1.3208 2.249 2.249c0 0.92816-1.3208 2.249-2.249 2.249-0.4233 0-1.0093-0.30715-1.4756-0.7734zm0-8.9958-0.7734-0.77339v-28.392l0.7734-0.7734 0.7734-0.7734h28.392l0.77339 0.7734 0.7734 0.7734v28.392l-0.7734 0.77339-0.77339 0.7734h-28.392zm25.517-4.422 0.69753-0.69754v-19.699l-0.69753-0.69753-0.69754-0.69754h-19.699l-0.69753 0.69754-0.69754 0.69753v19.699l0.69754 0.69754 0.69753 0.69753h19.699zm-16.521-4.5738-0.7734-0.7734v-10.4l0.7734-0.7734 0.7734-0.7734h10.4l0.7734 0.7734 0.7734 0.7734v10.4l-0.7734 0.7734-0.7734 0.7734h-10.4zm53.975 8.9958-0.7734-0.77339v-28.392l0.7734-0.7734 0.77339-0.7734h28.392l0.7734 0.7734 0.7734 0.7734v28.392l-0.7734 0.77339-0.7734 0.7734h-28.392zm25.517-4.422 0.69754-0.69754v-19.699l-0.69754-0.69753-0.69754-0.69754h-19.699l-0.69754 0.69754-0.69754 0.69753v19.699l0.69754 0.69754 0.69754 0.69753h19.699zm-16.521-4.5738-0.7734-0.7734v-10.4l0.7734-0.7734 0.7734-0.7734h10.4l0.77339 0.7734 0.7734 0.7734v10.4l-0.7734 0.7734-0.77339 0.7734h-10.4zm-22.49-13.494c-0.76236-0.76236-0.7734-0.81553-0.7734-3.7245s0.011-2.9622 0.7734-3.7245c0.76235-0.76236 0.81553-0.7734 3.7245-0.7734 2.909 0 2.9622 0.011 3.7245 0.7734 0.46624 0.46624 0.7734 1.0523 0.7734 1.4756 0 0.972-1.32 2.249-2.3248 2.249-1.0359 0-2.1731 1.1372-2.1731 2.1731 0 1.0048-1.277 2.3248-2.249 2.3248-0.4233 0-1.0093-0.30715-1.4756-0.77339zm-8.9958-4.4979c-0.46624-0.46624-0.7734-1.0523-0.7734-1.4756 0-0.92816 1.3208-2.249 2.249-2.249s2.249 1.3208 2.249 2.249-1.3208 2.249-2.249 2.249c-0.4233 0-1.0093-0.30716-1.4756-0.7734z" fill-opacity=".45968"/>
  </g>
  <g>
   <path d="m40.168 178.35-0.7734-0.7734v-28.392l0.7734-0.77339 0.7734-0.7734h28.392l0.77339 0.7734 0.7734 0.77339v28.392l-0.7734 0.7734-0.77339 0.7734h-28.392zm25.517-4.4221 0.69753-0.69754v-19.699l-0.69753-0.69754-0.69754-0.69754h-19.699l-0.69753 0.69754-0.69754 0.69754v19.699l0.69754 0.69754 0.69753 0.69754h19.699zm-16.521-4.5738-0.7734-0.77339v-10.4l0.7734-0.7734 0.7734-0.7734h10.4l0.7734 0.7734 0.7734 0.7734v10.4l-0.7734 0.77339-0.7734 0.7734h-10.4zm26.988 8.9958c-0.46624-0.46624-0.77339-1.0523-0.77339-1.4756s0.30715-1.0093 0.77339-1.4756c0.76236-0.76236 0.81553-0.7734 3.7245-0.7734s2.9622 0.011 3.7245 0.7734c0.46624 0.46624 0.7734 1.0523 0.7734 1.4756s-0.30716 1.0093-0.7734 1.4756c-0.76235 0.76236-0.81553 0.7734-3.7245 0.7734s-2.9622-0.011-3.7245-0.7734zm13.494 0c-0.46625-0.46624-0.7734-1.0523-0.7734-1.4756 0-0.92816 1.3208-2.249 2.249-2.249 0.92815 0 2.249 1.3208 2.249 2.249s-1.3208 2.249-2.249 2.249c-0.4233 0-1.0093-0.30716-1.4756-0.7734zm8.9958 0c-0.46624-0.46624-0.7734-1.0523-0.7734-1.4756 0-0.92816 1.3208-2.249 2.249-2.249 0.92816 0 2.249 1.3208 2.249 2.249s-1.3208 2.249-2.249 2.249c-0.4233 0-1.0093-0.30716-1.4756-0.7734zm13.494 0c-0.50413-0.50413-0.7734-1.0443-0.7734-1.5514 0-0.48785-0.26016-1.0382-0.69754-1.4756s-0.98771-0.69754-1.4756-0.69754c-1.0048 0-2.3248-1.277-2.3248-2.249 0-0.972 1.32-2.249 2.3248-2.249 1.0359 0 2.1731-1.1372 2.1731-2.1731 0-0.50714 0.26927-1.0473 0.7734-1.5514 0.76467-0.76467 0.80755-0.77339 3.8004-0.77339 2.9178 0 3.0522-0.0252 3.7245-0.69754 0.67237-0.67237 0.69754-0.80677 0.69754-3.7245 0-2.9928 9e-3 -3.0357 0.77339-3.8004 1.0036-1.0036 1.9476-1.0036 2.9511 0l0.7734 0.7734v15.05l0.69754 0.69754c0.43738 0.43738 0.98772 0.69754 1.4756 0.69754 1.0048 0 2.3248 1.277 2.3248 2.249 0 0.4233-0.30716 1.0093-0.7734 1.4756l-0.77339 0.7734h-14.898zm7.5249-4.4221c0.46547-0.46548 0.69754-0.98161 0.69754-1.5514s-0.23207-1.0859-0.69754-1.5514c-0.46548-0.46548-0.98161-0.69754-1.5514-0.69754s-1.086 0.23206-1.5514 0.69754c-0.46548 0.46548-0.69754 0.98161-0.69754 1.5514s0.23206 1.0859 0.69754 1.5514c0.46547 0.46548 0.98161 0.69754 1.5514 0.69754s1.0859-0.23206 1.5514-0.69754zm-43.508-4.5738-0.77339-0.77339v-14.898l0.77339-0.7734c0.76236-0.76235 0.81553-0.7734 3.7245-0.7734s2.9622 0.011 3.7245 0.7734c0.46624 0.46624 0.7734 1.0523 0.7734 1.4756 0 0.97201-1.32 2.249-2.3248 2.249-0.48784 0-1.0382 0.26016-1.4756 0.69754-0.67435 0.67436-0.69754 0.80066-0.69754 3.8004 0 2.9997 0.0232 3.126 0.69754 3.8004 0.43738 0.43738 0.98772 0.69754 1.4756 0.69754 1.0048 0 2.3248 1.277 2.3248 2.249 0 0.4233-0.30716 1.0093-0.7734 1.4756-0.76235 0.76236-0.81553 0.7734-3.7245 0.7734s-2.9622-0.011-3.7245-0.7734zm13.494 0c-0.46625-0.46624-0.7734-1.0523-0.7734-1.4756 0-0.92815 1.3208-2.249 2.249-2.249 0.92815 0 2.249 1.3208 2.249 2.249 0 0.92816-1.3208 2.249-2.249 2.249-0.4233 0-1.0093-0.30716-1.4756-0.7734zm8.9958 0c-0.46624-0.46624-0.7734-1.0523-0.7734-1.4756 0-0.92815 1.3208-2.249 2.249-2.249 0.92816 0 2.249 1.3208 2.249 2.249 0 0.92816-1.3208 2.249-2.249 2.249-0.4233 0-1.0093-0.30716-1.4756-0.7734zm-13.494-4.4979c-0.76236-0.76236-0.7734-0.81553-0.7734-3.7245s0.011-2.9622 0.7734-3.7245c0.46624-0.46624 1.0523-0.7734 1.4756-0.7734s1.0093 0.30716 1.4756 0.7734c0.76236 0.76235 0.7734 0.81553 0.7734 3.7245s-0.011 2.9622-0.7734 3.7245c-0.46624 0.46624-1.0523 0.7734-1.4756 0.7734s-1.0093-0.30716-1.4756-0.7734zm8.9958 0c-0.76467-0.76468-0.7734-0.80755-0.7734-3.8004 0-2.9178-0.0252-3.0522-0.69753-3.7245-0.43738-0.43738-0.98772-0.69754-1.4756-0.69754-1.0048 0-2.3248-1.277-2.3248-2.249 0-0.972 1.32-2.249 2.3248-2.249 1.076 0 2.1731-1.1354 2.1731-2.249 0-0.56981-0.23206-1.086-0.69753-1.5514l-0.69754-0.69753h-15.05l-0.7734-0.7734c-0.50412-0.50413-0.77339-1.0443-0.77339-1.5514 0-0.48785-0.26016-1.0382-0.69754-1.4756l-0.69754-0.69754h-10.552l-0.7734-0.7734c-0.76235-0.76235-0.77339-0.81553-0.77339-3.7245 0-2.909 0.011-2.9622 0.77339-3.7245 0.46624-0.46625 1.0523-0.7734 1.4756-0.7734 0.97201 0 2.249 1.32 2.249 2.3248 0 0.48785 0.26016 1.0382 0.69754 1.4756l0.69754 0.69753h15.05l0.77339 0.7734c0.50413 0.50413 0.7734 1.0443 0.7734 1.5514 0 1.076 1.1354 2.1731 2.249 2.1731s2.249-1.0971 2.249-2.1731c0-1.0048 1.277-2.3248 2.249-2.3248 0.972 0 2.249 1.32 2.249 2.3248 0 1.076 1.1354 2.1731 2.249 2.1731s2.249-1.0971 2.249-2.1731c0-1.0048 1.277-2.3248 2.249-2.3248 0.972 0 2.249 1.32 2.249 2.3248 0 1.0359 1.1372 2.1731 2.1731 2.1731 1.0492 0 2.3248 1.2757 2.3248 2.3248 0 0.48784 0.26016 1.0382 0.69754 1.4756s0.98772 0.69754 1.4756 0.69754c1.0048 0 2.3248 1.277 2.3248 2.249 0 0.972-1.32 2.249-2.3248 2.249-0.48784 0-1.0382 0.26016-1.4756 0.69754s-0.69754 0.98772-0.69754 1.4756c0 0.50715-0.26926 1.0473-0.77339 1.5514-0.76468 0.76468-0.80755 0.7734-3.8004 0.7734-2.9178 0-3.0522 0.0252-3.7245 0.69754-0.67237 0.67237-0.69754 0.80677-0.69754 3.7245 0 2.9928-9e-3 3.0357-0.7734 3.8004-0.46624 0.46624-1.0523 0.7734-1.4756 0.7734s-1.0093-0.30716-1.4756-0.7734zm7.5249-13.418c1.4014-1.4014 0.42207-3.8004-1.5514-3.8004-1.1541 0-2.249 1.0948-2.249 2.249 0 1.1541 1.0948 2.249 2.249 2.249 0.56981 0 1.0859-0.23206 1.5514-0.69753zm5.9688 13.418c-0.76235-0.76236-0.7734-0.81553-0.7734-3.7245s0.011-2.9622 0.7734-3.7245c0.46624-0.46624 1.0523-0.7734 1.4756-0.7734s1.0093 0.30716 1.4756 0.7734c0.76236 0.76235 0.7734 0.81553 0.7734 3.7245s-0.011 2.9622-0.7734 3.7245c-0.46624 0.46624-1.0523 0.7734-1.4756 0.7734s-1.0093-0.30716-1.4756-0.7734zm8.9958-8.9958c-0.46624-0.46624-0.7734-1.0523-0.7734-1.4756 0-0.92816 1.3208-2.249 2.249-2.249 0.4233 0 1.0093 0.30716 1.4756 0.7734s0.7734 1.0523 0.7734 1.4756-0.30716 1.0093-0.7734 1.4756-1.0523 0.7734-1.4756 0.7734-1.0093-0.30716-1.4756-0.7734zm13.494 0c-0.46624-0.46624-0.7734-1.0523-0.7734-1.4756 0-0.92816 1.3208-2.249 2.249-2.249 0.4233 0 1.0093 0.30716 1.4756 0.7734s0.7734 1.0523 0.7734 1.4756-0.30716 1.0093-0.7734 1.4756-1.0523 0.7734-1.4756 0.7734-1.0093-0.30716-1.4756-0.7734zm-4.4979-4.4979c-0.76236-0.76236-0.7734-0.81553-0.7734-3.7245s0.011-2.9622 0.7734-3.7245c0.76236-0.76236 0.81553-0.7734 3.7245-0.7734s2.9622 0.011 3.7245 0.7734c0.46624 0.46624 0.7734 1.0523 0.7734 1.4756 0 0.972-1.32 2.249-2.3248 2.249-0.48785 0-1.0382 0.26016-1.4756 0.69753-0.43738 0.43738-0.69754 0.98772-0.69754 1.4756 0 1.0048-1.277 2.3248-2.249 2.3248-0.4233 0-1.0093-0.30715-1.4756-0.77339zm-8.9958-4.4979c-0.46624-0.46624-0.7734-1.0523-0.7734-1.4756 0-0.92816 1.3208-2.249 2.249-2.249 0.4233 0 1.0093 0.30716 1.4756 0.7734s0.7734 1.0523 0.7734 1.4756c0 0.92816-1.3208 2.249-2.249 2.249-0.4233 0-1.0093-0.30716-1.4756-0.7734zm-62.971-4.4979c-0.50413-0.50412-0.7734-1.0443-0.7734-1.5514 0-0.48784-0.26016-1.0382-0.69754-1.4756l-0.69753-0.69754h-10.552l-0.7734-0.77339c-0.76236-0.76236-0.7734-0.81554-0.7734-3.7245 0-2.909 0.011-2.9622 0.7734-3.7245 0.46624-0.46624 1.0523-0.7734 1.4756-0.7734 0.972 0 2.249 1.32 2.249 2.3248 0 1.076 1.1354 2.1731 2.249 2.1731 1.1136 0 2.249-1.0971 2.249-2.1731 0-1.0492 1.2757-2.3248 2.3248-2.3248 1.076 0 2.1731-1.1354 2.1731-2.249s-1.0971-2.249-2.1731-2.249c-1.0048 0-2.3248-1.277-2.3248-2.249 0-0.42329 0.30716-1.0093 0.7734-1.4756l0.7734-0.77339h19.396l0.77339 0.77339c0.46624 0.46625 0.7734 1.0523 0.7734 1.4756 0 0.97201-1.32 2.249-2.3248 2.249-0.48784 0-1.0382 0.26016-1.4756 0.69754s-0.69754 0.98772-0.69754 1.4756c0 1.0492-1.2757 2.3248-2.3248 2.3248-1.0359 0-2.1731 1.1372-2.1731 2.1731 0 1.0492-1.2757 2.3248-2.3248 2.3248-0.48785 0-1.0382 0.26016-1.4756 0.69753-0.67237 0.67237-0.69754 0.80677-0.69754 3.7245 0 2.9928-9e-3 3.0357-0.7734 3.8004-0.46624 0.46624-1.0523 0.7734-1.4756 0.7734s-1.0093-0.30716-1.4756-0.7734zm58.473 0c-0.50413-0.50412-0.7734-1.0443-0.7734-1.5514 0-1.0359-1.1372-2.1731-2.1731-2.1731-1.0048 0-2.3248-1.277-2.3248-2.249 0-0.97201 1.32-2.249 2.3248-2.249 1.0359 0 2.1731-1.1372 2.1731-2.1731 0-1.0048 1.277-2.3248 2.249-2.3248 0.4233 0 1.0093 0.30716 1.4756 0.7734l0.7734 0.77339v10.4l-0.7734 0.77339c-0.46624 0.46624-1.0523 0.7734-1.4756 0.7734s-1.0093-0.30716-1.4756-0.7734zm8.9958 0c-0.76235-0.76235-0.77339-0.81553-0.77339-3.7245 0-2.909 0.011-2.9622 0.77339-3.7245 0.50413-0.50413 1.0443-0.7734 1.5514-0.7734 1.076 0 2.1731-1.1354 2.1731-2.249s-1.0971-2.249-2.1731-2.249c-1.0492 0-2.3248-1.2757-2.3248-2.3248 0-0.48784-0.26016-1.0382-0.69754-1.4756-0.67436-0.67435-0.80067-0.69754-3.8004-0.69754-2.9997 0-3.126 0.0232-3.8004 0.69754-0.43738 0.43738-0.69754 0.98772-0.69754 1.4756 0 1.0048-1.277 2.3248-2.249 2.3248-0.972 0-2.249-1.32-2.249-2.3248 0-1.0359-1.1372-2.1731-2.1731-2.1731-1.0048 0-2.3248-1.277-2.3248-2.249 0-0.42329 0.30716-1.0093 0.7734-1.4756l0.77339-0.77339h19.396l0.77339 0.77339c0.50413 0.50413 0.7734 1.0443 0.7734 1.5514 0 0.48785 0.26016 1.0382 0.69754 1.4756 0.67237 0.67236 0.80677 0.69753 3.7245 0.69753 2.9928 0 3.0357 9e-3 3.8004 0.7734 0.46624 0.46624 0.7734 1.0523 0.7734 1.4756 0 0.97201-1.32 2.249-2.3248 2.249-0.48785 0-1.0382 0.26016-1.4756 0.69754-0.67237 0.67237-0.69754 0.80676-0.69754 3.7245 0 2.9928-9e-3 3.0357-0.7734 3.8004-0.50413 0.50412-1.0443 0.77339-1.5514 0.77339-1.0359 0-2.1731 1.1372-2.1731 2.1731 0 1.0048-1.277 2.3248-2.249 2.3248-0.4233 0-1.0093-0.30716-1.4756-0.7734zm-53.975-8.9958c-0.46624-0.46624-0.7734-1.0523-0.7734-1.4756s0.30716-1.0093 0.7734-1.4756c0.76467-0.76467 0.80755-0.7734 3.8004-0.7734 2.9178 0 3.0522-0.0252 3.7245-0.69754 0.43738-0.43738 0.69754-0.98771 0.69754-1.4756 0-0.50714 0.26927-1.0473 0.77339-1.5514l0.7734-0.7734h10.4l0.7734 0.7734c0.50413 0.50413 0.7734 1.0443 0.7734 1.5514 0 1.0359 1.1372 2.1731 2.1731 2.1731 1.0048 0 2.3248 1.277 2.3248 2.249 0 0.4233-0.30715 1.0093-0.77339 1.4756l-0.7734 0.7734h-23.894zm31.485 0c-0.46624-0.46624-0.7734-1.0523-0.7734-1.4756s0.30716-1.0093 0.7734-1.4756 1.0523-0.7734 1.4756-0.7734c0.92816 0 2.249 1.3208 2.249 2.249 0 0.4233-0.30716 1.0093-0.7734 1.4756s-1.0523 0.7734-1.4756 0.7734c-0.4233 0-1.0093-0.30716-1.4756-0.7734zm-53.975-4.4979c-1.0036-1.0036-1.0036-1.9476 0-2.9511 0.46625-0.46624 1.0523-0.7734 1.4756-0.7734 0.92816 0 2.249 1.3208 2.249 2.249s-1.3208 2.249-2.249 2.249c-0.4233 0-1.0093-0.30716-1.4756-0.7734zm49.477 0c-0.76467-0.76467-0.7734-0.80754-0.7734-3.8004 0-2.9178-0.0252-3.0522-0.69753-3.7245-0.67237-0.67236-0.80677-0.69753-3.7245-0.69753-2.9928 0-3.0357-9e-3 -3.8004-0.7734-0.76236-0.76236-0.7734-0.81553-0.7734-3.7245s0.011-2.9622 0.7734-3.7245c0.46624-0.46624 1.0523-0.7734 1.4756-0.7734 0.972 0 2.249 1.32 2.249 2.3248 0 1.076 1.1354 2.1731 2.249 2.1731 0.5698 0 1.0859-0.23206 1.5514-0.69754 0.67435-0.67435 0.69753-0.80066 0.69753-3.8004 0-2.9997-0.0232-3.126-0.69753-3.8004-0.43738-0.43738-0.98772-0.69753-1.4756-0.69753-1.0492 0-2.3248-1.2757-2.3248-2.3248 0-1.076-1.1354-2.1731-2.249-2.1731s-2.249 1.0971-2.249 2.1731c0 1.0492-1.2757 2.3248-2.3248 2.3248-0.48784 0-1.0382 0.26015-1.4756 0.69753l-0.69754 0.69754v10.552l-0.7734 0.7734c-0.46624 0.46624-1.0523 0.7734-1.4756 0.7734-0.42329 0-1.0093-0.30716-1.4756-0.7734l-0.77339-0.7734v-23.894l0.77339-0.7734 0.7734-0.7734h10.4l0.7734 0.7734c0.50413 0.50413 0.7734 1.0443 0.7734 1.5514 0 0.48785 0.26016 1.0382 0.69753 1.4756 0.67237 0.67237 0.80677 0.69754 3.7245 0.69754 2.9928 0 3.0357 9e-3 3.8004 0.7734l0.7734 0.7734v28.392l-0.7734 0.77339c-0.46624 0.46624-1.0523 0.7734-1.4756 0.7734s-1.0093-0.30716-1.4756-0.7734zm-53.975-4.4979c-0.46624-0.46624-0.7734-1.0523-0.7734-1.4756 0-0.92815 1.3208-2.249 2.249-2.249s2.249 1.3208 2.249 2.249c0 0.92816-1.3208 2.249-2.249 2.249-0.4233 0-1.0093-0.30715-1.4756-0.7734zm0-8.9958-0.7734-0.77339v-28.392l0.7734-0.7734 0.7734-0.7734h28.392l0.77339 0.7734 0.7734 0.7734v28.392l-0.7734 0.77339-0.77339 0.7734h-28.392zm25.517-4.422 0.69753-0.69754v-19.699l-0.69753-0.69753-0.69754-0.69754h-19.699l-0.69753 0.69754-0.69754 0.69753v19.699l0.69754 0.69754 0.69753 0.69753h19.699zm-16.521-4.5738-0.7734-0.7734v-10.4l0.7734-0.7734 0.7734-0.7734h10.4l0.7734 0.7734 0.7734 0.7734v10.4l-0.7734 0.7734-0.7734 0.7734h-10.4zm53.975 8.9958-0.7734-0.77339v-28.392l0.7734-0.7734 0.77339-0.7734h28.392l0.7734 0.7734 0.7734 0.7734v28.392l-0.7734 0.77339-0.7734 0.7734h-28.392zm25.517-4.422 0.69754-0.69754v-19.699l-0.69754-0.69753-0.69754-0.69754h-19.699l-0.69754 0.69754-0.69754 0.69753v19.699l0.69754 0.69754 0.69754 0.69753h19.699zm-16.521-4.5738-0.7734-0.7734v-10.4l0.7734-0.7734 0.7734-0.7734h10.4l0.77339 0.7734 0.7734 0.7734v10.4l-0.7734 0.7734-0.77339 0.7734h-10.4zm-22.49-13.494c-0.76236-0.76236-0.7734-0.81553-0.7734-3.7245s0.011-2.9622 0.7734-3.7245c0.76235-0.76236 0.81553-0.7734 3.7245-0.7734 2.909 0 2.9622 0.011 3.7245 0.7734 0.46624 0.46624 0.7734 1.0523 0.7734 1.4756 0 0.972-1.32 2.249-2.3248 2.249-1.0359 0-2.1731 1.1372-2.1731 2.1731 0 1.0048-1.277 2.3248-2.249 2.3248-0.4233 0-1.0093-0.30715-1.4756-0.77339zm-8.9958-4.4979c-0.46624-0.46624-0.7734-1.0523-0.7734-1.4756 0-0.92816 1.3208-2.249 2.249-2.249s2.249 1.3208 2.249 2.249-1.3208 2.249-2.249 2.249c-0.4233 0-1.0093-0.30716-1.4756-0.7734z" fill="url(#radialGradient1029)" stroke-width=".26458"/>
   <path d="m40.168 178.35-0.7734-0.7734v-28.392l0.7734-0.77339 0.7734-0.7734h28.392l0.77339 0.7734 0.7734 0.77339v28.392l-0.7734 0.7734-0.77339 0.7734h-28.392zm25.517-4.4221 0.69753-0.69754v-19.699l-0.69753-0.69754-0.69754-0.69754h-19.699l-0.69753 0.69754-0.69754 0.69754v19.699l0.69754 0.69754 0.69753 0.69754h19.699zm-16.521-4.5738-0.7734-0.77339v-10.4l0.7734-0.7734 0.7734-0.7734h10.4l0.7734 0.7734 0.7734 0.7734v10.4l-0.7734 0.77339-0.7734 0.7734h-10.4zm26.988 8.9958c-0.46624-0.46624-0.77339-1.0523-0.77339-1.4756s0.30715-1.0093 0.77339-1.4756c0.76236-0.76236 0.81553-0.7734 3.7245-0.7734s2.9622 0.011 3.7245 0.7734c0.46624 0.46625 0.7734 1.0523 0.7734 1.4756s-0.30716 1.0093-0.7734 1.4756c-0.76235 0.76236-0.81553 0.7734-3.7245 0.7734s-2.9622-0.011-3.7245-0.7734zm13.494 0c-0.46625-0.46624-0.7734-1.0523-0.7734-1.4756 0-0.92816 1.3208-2.249 2.249-2.249 0.92815 0 2.249 1.3208 2.249 2.249s-1.3208 2.249-2.249 2.249c-0.4233 0-1.0093-0.30716-1.4756-0.7734zm8.9958 0c-0.46624-0.46624-0.7734-1.0523-0.7734-1.4756 0-0.92816 1.3208-2.249 2.249-2.249 0.92816 0 2.249 1.3208 2.249 2.249s-1.3208 2.249-2.249 2.249c-0.4233 0-1.0093-0.30716-1.4756-0.7734zm13.494 0c-0.50413-0.50413-0.7734-1.0443-0.7734-1.5514 0-0.48785-0.26016-1.0382-0.69754-1.4756s-0.98771-0.69754-1.4756-0.69754c-1.0048 0-2.3248-1.277-2.3248-2.249 0-0.97201 1.32-2.249 2.3248-2.249 1.0359 0 2.1731-1.1372 2.1731-2.1731 0-0.50714 0.26927-1.0473 0.7734-1.5514 0.76467-0.76467 0.80755-0.77339 3.8004-0.77339 2.9178 0 3.0522-0.0252 3.7245-0.69754 0.67237-0.67237 0.69754-0.80677 0.69754-3.7245 0-2.9928 9e-3 -3.0357 0.77339-3.8004 1.0036-1.0036 1.9476-1.0036 2.9511 0l0.7734 0.7734v15.05l0.69754 0.69754c0.43738 0.43738 0.98772 0.69754 1.4756 0.69754 1.0048 0 2.3248 1.277 2.3248 2.249 0 0.4233-0.30716 1.0093-0.7734 1.4756l-0.77339 0.7734h-14.898zm7.5249-4.4221c0.46547-0.46547 0.69754-0.98161 0.69754-1.5514 0-0.56982-0.23207-1.086-0.69754-1.5514-0.46548-0.46548-0.98161-0.69754-1.5514-0.69754s-1.086 0.23206-1.5514 0.69754c-0.46548 0.46548-0.69754 0.98161-0.69754 1.5514 0 0.5698 0.23206 1.0859 0.69754 1.5514 0.46547 0.46548 0.98161 0.69754 1.5514 0.69754s1.0859-0.23206 1.5514-0.69754zm-43.508-4.5738-0.77339-0.77339v-14.898l0.77339-0.7734c0.76236-0.76235 0.81553-0.7734 3.7245-0.7734s2.9622 0.011 3.7245 0.7734c0.46624 0.46624 0.7734 1.0523 0.7734 1.4756 0 0.97201-1.32 2.249-2.3248 2.249-0.48784 0-1.0382 0.26016-1.4756 0.69754-0.67435 0.67436-0.69754 0.80066-0.69754 3.8004 0 2.9997 0.0232 3.126 0.69754 3.8004 0.43738 0.43738 0.98772 0.69754 1.4756 0.69754 1.0048 0 2.3248 1.277 2.3248 2.249 0 0.4233-0.30716 1.0093-0.7734 1.4756-0.76235 0.76236-0.81553 0.7734-3.7245 0.7734s-2.9622-0.011-3.7245-0.7734zm13.494 0c-0.46625-0.46623-0.7734-1.0523-0.7734-1.4756 0-0.92815 1.3208-2.249 2.249-2.249 0.92815 0 2.249 1.3208 2.249 2.249 0 0.92816-1.3208 2.249-2.249 2.249-0.4233 0-1.0093-0.30716-1.4756-0.7734zm8.9958 0c-0.46624-0.46623-0.7734-1.0523-0.7734-1.4756 0-0.92815 1.3208-2.249 2.249-2.249 0.92816 0 2.249 1.3208 2.249 2.249 0 0.92816-1.3208 2.249-2.249 2.249-0.4233 0-1.0093-0.30716-1.4756-0.7734zm-13.494-4.4979c-0.76236-0.76236-0.7734-0.81553-0.7734-3.7245s0.011-2.9622 0.7734-3.7245c0.46624-0.46624 1.0523-0.7734 1.4756-0.7734s1.0093 0.30716 1.4756 0.7734c0.76236 0.76235 0.7734 0.81553 0.7734 3.7245s-0.011 2.9622-0.7734 3.7245c-0.46624 0.46624-1.0523 0.7734-1.4756 0.7734s-1.0093-0.30716-1.4756-0.7734zm8.9958 0c-0.76467-0.76468-0.7734-0.80755-0.7734-3.8004 0-2.9178-0.0252-3.0522-0.69753-3.7245-0.43738-0.43738-0.98772-0.69754-1.4756-0.69754-1.0048 0-2.3248-1.277-2.3248-2.249 0-0.972 1.32-2.249 2.3248-2.249 1.076 0 2.1731-1.1354 2.1731-2.249 0-0.56981-0.23206-1.086-0.69753-1.5514l-0.69754-0.69753h-15.05l-0.7734-0.7734c-0.50412-0.50413-0.77339-1.0443-0.77339-1.5514 0-0.48785-0.26016-1.0382-0.69754-1.4756l-0.69754-0.69754h-10.552l-0.7734-0.7734c-0.76235-0.76235-0.77339-0.81553-0.77339-3.7245 0-2.909 0.011-2.9622 0.77339-3.7245 0.46624-0.46625 1.0523-0.7734 1.4756-0.7734 0.97201 0 2.249 1.32 2.249 2.3248 0 0.48785 0.26016 1.0382 0.69754 1.4756l0.69754 0.69753h15.05l0.77339 0.7734c0.50413 0.50413 0.7734 1.0443 0.7734 1.5514 0 1.076 1.1354 2.1731 2.249 2.1731s2.249-1.0971 2.249-2.1731c0-1.0048 1.277-2.3248 2.249-2.3248 0.972 0 2.249 1.32 2.249 2.3248 0 1.076 1.1354 2.1731 2.249 2.1731s2.249-1.0971 2.249-2.1731c0-1.0048 1.277-2.3248 2.249-2.3248 0.972 0 2.249 1.32 2.249 2.3248 0 1.0359 1.1372 2.1731 2.1731 2.1731 1.0492 0 2.3248 1.2757 2.3248 2.3248 0 0.48784 0.26016 1.0382 0.69754 1.4756s0.98772 0.69754 1.4756 0.69754c1.0048 0 2.3248 1.277 2.3248 2.249 0 0.972-1.32 2.249-2.3248 2.249-0.48784 0-1.0382 0.26016-1.4756 0.69754s-0.69754 0.98772-0.69754 1.4756c0 0.50715-0.26926 1.0473-0.77339 1.5514-0.76468 0.76468-0.80755 0.7734-3.8004 0.7734-2.9178 0-3.0522 0.0252-3.7245 0.69754-0.67237 0.67237-0.69754 0.80677-0.69754 3.7245 0 2.9928-9e-3 3.0357-0.7734 3.8004-0.46624 0.46624-1.0523 0.7734-1.4756 0.7734s-1.0093-0.30716-1.4756-0.7734zm7.5249-13.418c1.4014-1.4014 0.42207-3.8004-1.5514-3.8004-1.1541 0-2.249 1.0948-2.249 2.249 0 1.1541 1.0948 2.249 2.249 2.249 0.56981 0 1.0859-0.23206 1.5514-0.69753zm5.9688 13.418c-0.76235-0.76236-0.7734-0.81553-0.7734-3.7245s0.011-2.9622 0.7734-3.7245c0.46624-0.46624 1.0523-0.7734 1.4756-0.7734s1.0093 0.30716 1.4756 0.7734c0.76236 0.76235 0.7734 0.81553 0.7734 3.7245s-0.011 2.9622-0.7734 3.7245c-0.46624 0.46624-1.0523 0.7734-1.4756 0.7734s-1.0093-0.30716-1.4756-0.7734zm8.9958-8.9958c-0.46624-0.46624-0.7734-1.0523-0.7734-1.4756 0-0.92816 1.3208-2.249 2.249-2.249 0.4233 0 1.0093 0.30717 1.4756 0.7734 0.46624 0.46624 0.7734 1.0523 0.7734 1.4756s-0.30716 1.0093-0.7734 1.4756-1.0523 0.7734-1.4756 0.7734-1.0093-0.30716-1.4756-0.7734zm13.494 0c-0.46624-0.46624-0.7734-1.0523-0.7734-1.4756 0-0.92816 1.3208-2.249 2.249-2.249 0.4233 0 1.0093 0.30717 1.4756 0.7734 0.46624 0.46624 0.7734 1.0523 0.7734 1.4756s-0.30716 1.0093-0.7734 1.4756-1.0523 0.7734-1.4756 0.7734-1.0093-0.30716-1.4756-0.7734zm-4.4979-4.4979c-0.76236-0.76236-0.7734-0.81553-0.7734-3.7245s0.011-2.9622 0.7734-3.7245c0.76236-0.76236 0.81553-0.7734 3.7245-0.7734s2.9622 0.011 3.7245 0.7734c0.46624 0.46624 0.7734 1.0523 0.7734 1.4756 0 0.972-1.32 2.249-2.3248 2.249-0.48785 0-1.0382 0.26016-1.4756 0.69753-0.43738 0.43738-0.69754 0.98772-0.69754 1.4756 0 1.0048-1.277 2.3248-2.249 2.3248-0.4233 0-1.0093-0.30715-1.4756-0.77339zm-8.9958-4.4979c-0.46624-0.46624-0.7734-1.0523-0.7734-1.4756 0-0.92816 1.3208-2.249 2.249-2.249 0.4233 0 1.0093 0.30716 1.4756 0.7734s0.7734 1.0523 0.7734 1.4756c0 0.92816-1.3208 2.249-2.249 2.249-0.4233 0-1.0093-0.30716-1.4756-0.7734zm-62.971-4.4979c-0.50413-0.50412-0.7734-1.0443-0.7734-1.5514 0-0.48784-0.26016-1.0382-0.69754-1.4756l-0.69753-0.69754h-10.552l-0.7734-0.77339c-0.76236-0.76236-0.7734-0.81554-0.7734-3.7245 0-2.909 0.011-2.9622 0.7734-3.7245 0.46624-0.46624 1.0523-0.7734 1.4756-0.7734 0.972 0 2.249 1.32 2.249 2.3248 0 1.076 1.1354 2.1731 2.249 2.1731 1.1136 0 2.249-1.0971 2.249-2.1731 0-1.0492 1.2757-2.3248 2.3248-2.3248 1.076 0 2.1731-1.1354 2.1731-2.249s-1.0971-2.249-2.1731-2.249c-1.0048 0-2.3248-1.277-2.3248-2.249 0-0.42329 0.30716-1.0093 0.7734-1.4756l0.7734-0.77339h19.396l0.77339 0.77339c0.46624 0.46625 0.7734 1.0523 0.7734 1.4756 0 0.97201-1.32 2.249-2.3248 2.249-0.48784 0-1.0382 0.26016-1.4756 0.69754s-0.69754 0.98772-0.69754 1.4756c0 1.0492-1.2757 2.3248-2.3248 2.3248-1.0359 0-2.1731 1.1372-2.1731 2.1731 0 1.0492-1.2757 2.3248-2.3248 2.3248-0.48785 0-1.0382 0.26016-1.4756 0.69753-0.67237 0.67237-0.69754 0.80677-0.69754 3.7245 0 2.9928-9e-3 3.0357-0.7734 3.8004-0.46624 0.46624-1.0523 0.7734-1.4756 0.7734s-1.0093-0.30716-1.4756-0.7734zm58.473 0c-0.50413-0.50412-0.7734-1.0443-0.7734-1.5514 0-1.0359-1.1372-2.1731-2.1731-2.1731-1.0048 0-2.3248-1.277-2.3248-2.249 0-0.97201 1.32-2.249 2.3248-2.249 1.0359 0 2.1731-1.1372 2.1731-2.1731 0-1.0048 1.277-2.3248 2.249-2.3248 0.4233 0 1.0093 0.30716 1.4756 0.7734l0.7734 0.77339v10.4l-0.7734 0.77339c-0.46624 0.46624-1.0523 0.7734-1.4756 0.7734s-1.0093-0.30716-1.4756-0.7734zm8.9958 0c-0.76235-0.76235-0.77339-0.81553-0.77339-3.7245 0-2.909 0.011-2.9622 0.77339-3.7245 0.50413-0.50413 1.0443-0.7734 1.5514-0.7734 1.076 0 2.1731-1.1354 2.1731-2.249s-1.0971-2.249-2.1731-2.249c-1.0492 0-2.3248-1.2757-2.3248-2.3248 0-0.48784-0.26016-1.0382-0.69754-1.4756-0.67436-0.67435-0.80067-0.69754-3.8004-0.69754-2.9997 0-3.126 0.0232-3.8004 0.69754-0.43738 0.43738-0.69754 0.98772-0.69754 1.4756 0 1.0048-1.277 2.3248-2.249 2.3248-0.972 0-2.249-1.32-2.249-2.3248 0-1.0359-1.1372-2.1731-2.1731-2.1731-1.0048 0-2.3248-1.277-2.3248-2.249 0-0.42329 0.30716-1.0093 0.7734-1.4756l0.77339-0.77339h19.396l0.77339 0.77339c0.50413 0.50413 0.7734 1.0443 0.7734 1.5514 0 0.48785 0.26016 1.0382 0.69754 1.4756 0.67237 0.67236 0.80677 0.69753 3.7245 0.69753 2.9928 0 3.0357 9e-3 3.8004 0.7734 0.46624 0.46624 0.7734 1.0523 0.7734 1.4756 0 0.97201-1.32 2.249-2.3248 2.249-0.48785 0-1.0382 0.26016-1.4756 0.69754-0.67237 0.67237-0.69754 0.80676-0.69754 3.7245 0 2.9928-9e-3 3.0357-0.7734 3.8004-0.50413 0.50412-1.0443 0.77339-1.5514 0.77339-1.0359 0-2.1731 1.1372-2.1731 2.1731 0 1.0048-1.277 2.3248-2.249 2.3248-0.4233 0-1.0093-0.30716-1.4756-0.7734zm-53.975-8.9958c-0.46624-0.46624-0.7734-1.0523-0.7734-1.4756s0.30716-1.0093 0.7734-1.4756c0.76467-0.76467 0.80755-0.7734 3.8004-0.7734 2.9178 0 3.0522-0.0252 3.7245-0.69754 0.43738-0.43738 0.69754-0.98771 0.69754-1.4756 0-0.50714 0.26927-1.0473 0.77339-1.5514l0.7734-0.7734h10.4l0.7734 0.7734c0.50413 0.50413 0.7734 1.0443 0.7734 1.5514 0 1.0359 1.1372 2.1731 2.1731 2.1731 1.0048 0 2.3248 1.277 2.3248 2.249 0 0.4233-0.30715 1.0093-0.77339 1.4756l-0.7734 0.7734h-23.894zm31.485 0c-0.46624-0.46624-0.7734-1.0523-0.7734-1.4756s0.30716-1.0093 0.7734-1.4756 1.0523-0.7734 1.4756-0.7734c0.92816 0 2.249 1.3208 2.249 2.249 0 0.4233-0.30716 1.0093-0.7734 1.4756s-1.0523 0.7734-1.4756 0.7734c-0.4233 0-1.0093-0.30716-1.4756-0.7734zm-53.975-4.4979c-1.0036-1.0036-1.0036-1.9476 0-2.9511 0.46625-0.46624 1.0523-0.7734 1.4756-0.7734 0.92816 0 2.249 1.3208 2.249 2.249s-1.3208 2.249-2.249 2.249c-0.4233 0-1.0093-0.30716-1.4756-0.7734zm49.477 0c-0.76467-0.76467-0.7734-0.80754-0.7734-3.8004 0-2.9178-0.0252-3.0522-0.69753-3.7245-0.67237-0.67236-0.80677-0.69753-3.7245-0.69753-2.9928 0-3.0357-9e-3 -3.8004-0.7734-0.76236-0.76236-0.7734-0.81553-0.7734-3.7245s0.011-2.9622 0.7734-3.7245c0.46624-0.46624 1.0523-0.7734 1.4756-0.7734 0.972 0 2.249 1.32 2.249 2.3248 0 1.076 1.1354 2.1731 2.249 2.1731 0.5698 0 1.0859-0.23206 1.5514-0.69754 0.67435-0.67435 0.69753-0.80066 0.69753-3.8004 0-2.9997-0.0232-3.126-0.69753-3.8004-0.43738-0.43738-0.98772-0.69753-1.4756-0.69753-1.0492 0-2.3248-1.2757-2.3248-2.3248 0-1.076-1.1354-2.1731-2.249-2.1731s-2.249 1.0971-2.249 2.1731c0 1.0492-1.2757 2.3248-2.3248 2.3248-0.48784 0-1.0382 0.26015-1.4756 0.69753l-0.69754 0.69754v10.552l-0.7734 0.7734c-0.46624 0.46624-1.0523 0.7734-1.4756 0.7734-0.42329 0-1.0093-0.30716-1.4756-0.7734l-0.77339-0.7734v-23.894l0.77339-0.7734 0.7734-0.7734h10.4l0.7734 0.7734c0.50413 0.50413 0.7734 1.0443 0.7734 1.5514 0 0.48785 0.26016 1.0382 0.69753 1.4756 0.67237 0.67237 0.80677 0.69754 3.7245 0.69754 2.9928 0 3.0357 9e-3 3.8004 0.7734l0.7734 0.7734v28.392l-0.7734 0.77339c-0.46624 0.46624-1.0523 0.7734-1.4756 0.7734s-1.0093-0.30716-1.4756-0.7734zm-53.975-4.4979c-0.46624-0.46624-0.7734-1.0523-0.7734-1.4756 0-0.92815 1.3208-2.249 2.249-2.249s2.249 1.3208 2.249 2.249c0 0.92816-1.3208 2.249-2.249 2.249-0.4233 0-1.0093-0.30715-1.4756-0.7734zm0-8.9958-0.7734-0.77339v-28.392l0.7734-0.7734 0.7734-0.7734h28.392l0.77339 0.7734 0.7734 0.7734v28.392l-0.7734 0.77339-0.77339 0.7734h-28.392zm25.517-4.422 0.69753-0.69754v-19.699l-0.69753-0.69753-0.69754-0.69754h-19.699l-0.69753 0.69754-0.69754 0.69753v19.699l0.69754 0.69754 0.69753 0.69753h19.699zm-16.521-4.5738-0.7734-0.7734v-10.4l0.7734-0.7734 0.7734-0.7734h10.4l0.7734 0.7734 0.7734 0.7734v10.4l-0.7734 0.7734-0.7734 0.7734h-10.4zm53.975 8.9958-0.7734-0.77339v-28.392l0.7734-0.7734 0.77339-0.7734h28.392l0.7734 0.7734 0.7734 0.7734v28.392l-0.7734 0.77339-0.7734 0.7734h-28.392zm25.517-4.422 0.69754-0.69754v-19.699l-0.69754-0.69753-0.69754-0.69754h-19.699l-0.69754 0.69754-0.69754 0.69753v19.699l0.69754 0.69754 0.69754 0.69753h19.699zm-16.521-4.5738-0.7734-0.7734v-10.4l0.7734-0.7734 0.7734-0.7734h10.4l0.77339 0.7734 0.7734 0.7734v10.4l-0.7734 0.7734-0.77339 0.7734h-10.4zm-22.49-13.494c-0.76236-0.76236-0.7734-0.81553-0.7734-3.7245s0.011-2.9622 0.7734-3.7245c0.76235-0.76236 0.81553-0.7734 3.7245-0.7734 2.909 0 2.9622 0.011 3.7245 0.7734 0.46624 0.46624 0.7734 1.0523 0.7734 1.4756 0 0.972-1.32 2.249-2.3248 2.249-1.0359 0-2.1731 1.1372-2.1731 2.1731 0 1.0048-1.277 2.3248-2.249 2.3248-0.4233 0-1.0093-0.30715-1.4756-0.77339zm-8.9958-4.4979c-0.46624-0.46624-0.7734-1.0523-0.7734-1.4756 0-0.92816 1.3208-2.249 2.249-2.249s2.249 1.3208 2.249 2.249-1.3208 2.249-2.249 2.249c-0.4233 0-1.0093-0.30716-1.4756-0.7734z" fill="url(#radialGradient1029-9-6)" stroke-width=".26458"/>
   <path d="m40.168 178.35-0.7734-0.7734v-28.392l0.7734-0.77339 0.7734-0.7734h28.392l0.77339 0.7734 0.7734 0.77339v28.392l-0.7734 0.7734-0.77339 0.7734h-28.392zm25.517-4.4221 0.69753-0.69754v-19.699l-0.69753-0.69754-0.69754-0.69754h-19.699l-0.69753 0.69754-0.69754 0.69754v19.699l0.69754 0.69754 0.69753 0.69754h19.699zm-16.521-4.5738-0.7734-0.77339v-10.4l0.7734-0.7734 0.7734-0.7734h10.4l0.7734 0.7734 0.7734 0.7734v10.4l-0.7734 0.77339-0.7734 0.7734h-10.4zm26.988 8.9958c-0.46624-0.46624-0.77339-1.0523-0.77339-1.4756s0.30715-1.0093 0.77339-1.4756c0.76236-0.76236 0.81553-0.7734 3.7245-0.7734s2.9622 0.011 3.7245 0.7734c0.46624 0.46624 0.7734 1.0523 0.7734 1.4756s-0.30716 1.0093-0.7734 1.4756c-0.76235 0.76236-0.81553 0.7734-3.7245 0.7734s-2.9622-0.011-3.7245-0.7734zm13.494 0c-0.46625-0.46624-0.7734-1.0523-0.7734-1.4756 0-0.92816 1.3208-2.249 2.249-2.249 0.92815 0 2.249 1.3208 2.249 2.249s-1.3208 2.249-2.249 2.249c-0.4233 0-1.0093-0.30716-1.4756-0.7734zm8.9958 0c-0.46624-0.46624-0.7734-1.0523-0.7734-1.4756 0-0.92816 1.3208-2.249 2.249-2.249 0.92816 0 2.249 1.3208 2.249 2.249s-1.3208 2.249-2.249 2.249c-0.4233 0-1.0093-0.30716-1.4756-0.7734zm13.494 0c-0.50413-0.50413-0.7734-1.0443-0.7734-1.5514 0-0.48785-0.26016-1.0382-0.69754-1.4756s-0.98771-0.69754-1.4756-0.69754c-1.0048 0-2.3248-1.277-2.3248-2.249 0-0.972 1.32-2.249 2.3248-2.249 1.0359 0 2.1731-1.1372 2.1731-2.1731 0-0.50714 0.26927-1.0473 0.7734-1.5514 0.76467-0.76467 0.80755-0.77339 3.8004-0.77339 2.9178 0 3.0522-0.0252 3.7245-0.69754 0.67237-0.67237 0.69754-0.80677 0.69754-3.7245 0-2.9928 9e-3 -3.0357 0.77339-3.8004 1.0036-1.0036 1.9476-1.0036 2.9511 0l0.7734 0.7734v15.05l0.69754 0.69754c0.43738 0.43738 0.98772 0.69754 1.4756 0.69754 1.0048 0 2.3248 1.277 2.3248 2.249 0 0.4233-0.30716 1.0093-0.7734 1.4756l-0.77339 0.7734h-14.898zm7.5249-4.4221c0.46547-0.46548 0.69754-0.98161 0.69754-1.5514s-0.23207-1.0859-0.69754-1.5514c-0.46548-0.46548-0.98161-0.69754-1.5514-0.69754s-1.086 0.23206-1.5514 0.69754c-0.46548 0.46548-0.69754 0.98161-0.69754 1.5514s0.23206 1.0859 0.69754 1.5514c0.46547 0.46548 0.98161 0.69754 1.5514 0.69754s1.0859-0.23206 1.5514-0.69754zm-43.508-4.5738-0.77339-0.77339v-14.898l0.77339-0.7734c0.76236-0.76235 0.81553-0.7734 3.7245-0.7734s2.9622 0.011 3.7245 0.7734c0.46624 0.46624 0.7734 1.0523 0.7734 1.4756 0 0.97201-1.32 2.249-2.3248 2.249-0.48784 0-1.0382 0.26016-1.4756 0.69754-0.67435 0.67436-0.69754 0.80066-0.69754 3.8004 0 2.9997 0.0232 3.126 0.69754 3.8004 0.43738 0.43738 0.98772 0.69754 1.4756 0.69754 1.0048 0 2.3248 1.277 2.3248 2.249 0 0.4233-0.30716 1.0093-0.7734 1.4756-0.76235 0.76236-0.81553 0.7734-3.7245 0.7734s-2.9622-0.011-3.7245-0.7734zm13.494 0c-0.46625-0.46624-0.7734-1.0523-0.7734-1.4756 0-0.92815 1.3208-2.249 2.249-2.249 0.92815 0 2.249 1.3208 2.249 2.249 0 0.92816-1.3208 2.249-2.249 2.249-0.4233 0-1.0093-0.30716-1.4756-0.7734zm8.9958 0c-0.46624-0.46624-0.7734-1.0523-0.7734-1.4756 0-0.92815 1.3208-2.249 2.249-2.249 0.92816 0 2.249 1.3208 2.249 2.249 0 0.92816-1.3208 2.249-2.249 2.249-0.4233 0-1.0093-0.30716-1.4756-0.7734zm-13.494-4.4979c-0.76236-0.76236-0.7734-0.81553-0.7734-3.7245s0.011-2.9622 0.7734-3.7245c0.46624-0.46624 1.0523-0.7734 1.4756-0.7734s1.0093 0.30716 1.4756 0.7734c0.76236 0.76235 0.7734 0.81553 0.7734 3.7245s-0.011 2.9622-0.7734 3.7245c-0.46624 0.46624-1.0523 0.7734-1.4756 0.7734s-1.0093-0.30716-1.4756-0.7734zm8.9958 0c-0.76467-0.76468-0.7734-0.80755-0.7734-3.8004 0-2.9178-0.0252-3.0522-0.69753-3.7245-0.43738-0.43738-0.98772-0.69754-1.4756-0.69754-1.0048 0-2.3248-1.277-2.3248-2.249 0-0.972 1.32-2.249 2.3248-2.249 1.076 0 2.1731-1.1354 2.1731-2.249 0-0.56981-0.23206-1.086-0.69753-1.5514l-0.69754-0.69753h-15.05l-0.7734-0.7734c-0.50412-0.50413-0.77339-1.0443-0.77339-1.5514 0-0.48785-0.26016-1.0382-0.69754-1.4756l-0.69754-0.69754h-10.552l-0.7734-0.7734c-0.76235-0.76235-0.77339-0.81553-0.77339-3.7245 0-2.909 0.011-2.9622 0.77339-3.7245 0.46624-0.46625 1.0523-0.7734 1.4756-0.7734 0.97201 0 2.249 1.32 2.249 2.3248 0 0.48785 0.26016 1.0382 0.69754 1.4756l0.69754 0.69753h15.05l0.77339 0.7734c0.50413 0.50413 0.7734 1.0443 0.7734 1.5514 0 1.076 1.1354 2.1731 2.249 2.1731s2.249-1.0971 2.249-2.1731c0-1.0048 1.277-2.3248 2.249-2.3248 0.972 0 2.249 1.32 2.249 2.3248 0 1.076 1.1354 2.1731 2.249 2.1731s2.249-1.0971 2.249-2.1731c0-1.0048 1.277-2.3248 2.249-2.3248 0.972 0 2.249 1.32 2.249 2.3248 0 1.0359 1.1372 2.1731 2.1731 2.1731 1.0492 0 2.3248 1.2757 2.3248 2.3248 0 0.48784 0.26016 1.0382 0.69754 1.4756s0.98772 0.69754 1.4756 0.69754c1.0048 0 2.3248 1.277 2.3248 2.249 0 0.972-1.32 2.249-2.3248 2.249-0.48784 0-1.0382 0.26016-1.4756 0.69754s-0.69754 0.98772-0.69754 1.4756c0 0.50715-0.26926 1.0473-0.77339 1.5514-0.76468 0.76468-0.80755 0.7734-3.8004 0.7734-2.9178 0-3.0522 0.0252-3.7245 0.69754-0.67237 0.67237-0.69754 0.80677-0.69754 3.7245 0 2.9928-9e-3 3.0357-0.7734 3.8004-0.46624 0.46624-1.0523 0.7734-1.4756 0.7734s-1.0093-0.30716-1.4756-0.7734zm7.5249-13.418c1.4014-1.4014 0.42207-3.8004-1.5514-3.8004-1.1541 0-2.249 1.0948-2.249 2.249 0 1.1541 1.0948 2.249 2.249 2.249 0.56981 0 1.0859-0.23206 1.5514-0.69753zm5.9688 13.418c-0.76235-0.76236-0.7734-0.81553-0.7734-3.7245s0.011-2.9622 0.7734-3.7245c0.46624-0.46624 1.0523-0.7734 1.4756-0.7734s1.0093 0.30716 1.4756 0.7734c0.76236 0.76235 0.7734 0.81553 0.7734 3.7245s-0.011 2.9622-0.7734 3.7245c-0.46624 0.46624-1.0523 0.7734-1.4756 0.7734s-1.0093-0.30716-1.4756-0.7734zm8.9958-8.9958c-0.46624-0.46624-0.7734-1.0523-0.7734-1.4756 0-0.92816 1.3208-2.249 2.249-2.249 0.4233 0 1.0093 0.30716 1.4756 0.7734s0.7734 1.0523 0.7734 1.4756-0.30716 1.0093-0.7734 1.4756-1.0523 0.7734-1.4756 0.7734-1.0093-0.30716-1.4756-0.7734zm13.494 0c-0.46624-0.46624-0.7734-1.0523-0.7734-1.4756 0-0.92816 1.3208-2.249 2.249-2.249 0.4233 0 1.0093 0.30716 1.4756 0.7734s0.7734 1.0523 0.7734 1.4756-0.30716 1.0093-0.7734 1.4756-1.0523 0.7734-1.4756 0.7734-1.0093-0.30716-1.4756-0.7734zm-4.4979-4.4979c-0.76236-0.76236-0.7734-0.81553-0.7734-3.7245s0.011-2.9622 0.7734-3.7245c0.76236-0.76236 0.81553-0.7734 3.7245-0.7734s2.9622 0.011 3.7245 0.7734c0.46624 0.46624 0.7734 1.0523 0.7734 1.4756 0 0.972-1.32 2.249-2.3248 2.249-0.48785 0-1.0382 0.26016-1.4756 0.69753-0.43738 0.43738-0.69754 0.98772-0.69754 1.4756 0 1.0048-1.277 2.3248-2.249 2.3248-0.4233 0-1.0093-0.30715-1.4756-0.77339zm-8.9958-4.4979c-0.46624-0.46624-0.7734-1.0523-0.7734-1.4756 0-0.92816 1.3208-2.249 2.249-2.249 0.4233 0 1.0093 0.30716 1.4756 0.7734s0.7734 1.0523 0.7734 1.4756c0 0.92816-1.3208 2.249-2.249 2.249-0.4233 0-1.0093-0.30716-1.4756-0.7734zm-62.971-4.4979c-0.50413-0.50412-0.7734-1.0443-0.7734-1.5514 0-0.48784-0.26016-1.0382-0.69754-1.4756l-0.69753-0.69754h-10.552l-0.7734-0.77339c-0.76236-0.76236-0.7734-0.81554-0.7734-3.7245 0-2.909 0.011-2.9622 0.7734-3.7245 0.46624-0.46624 1.0523-0.7734 1.4756-0.7734 0.972 0 2.249 1.32 2.249 2.3248 0 1.076 1.1354 2.1731 2.249 2.1731 1.1136 0 2.249-1.0971 2.249-2.1731 0-1.0492 1.2757-2.3248 2.3248-2.3248 1.076 0 2.1731-1.1354 2.1731-2.249s-1.0971-2.249-2.1731-2.249c-1.0048 0-2.3248-1.277-2.3248-2.249 0-0.42329 0.30716-1.0093 0.7734-1.4756l0.7734-0.77339h19.396l0.77339 0.77339c0.46624 0.46625 0.7734 1.0523 0.7734 1.4756 0 0.97201-1.32 2.249-2.3248 2.249-0.48784 0-1.0382 0.26016-1.4756 0.69754s-0.69754 0.98772-0.69754 1.4756c0 1.0492-1.2757 2.3248-2.3248 2.3248-1.0359 0-2.1731 1.1372-2.1731 2.1731 0 1.0492-1.2757 2.3248-2.3248 2.3248-0.48785 0-1.0382 0.26016-1.4756 0.69753-0.67237 0.67237-0.69754 0.80677-0.69754 3.7245 0 2.9928-9e-3 3.0357-0.7734 3.8004-0.46624 0.46624-1.0523 0.7734-1.4756 0.7734s-1.0093-0.30716-1.4756-0.7734zm58.473 0c-0.50413-0.50412-0.7734-1.0443-0.7734-1.5514 0-1.0359-1.1372-2.1731-2.1731-2.1731-1.0048 0-2.3248-1.277-2.3248-2.249 0-0.97201 1.32-2.249 2.3248-2.249 1.0359 0 2.1731-1.1372 2.1731-2.1731 0-1.0048 1.277-2.3248 2.249-2.3248 0.4233 0 1.0093 0.30716 1.4756 0.7734l0.7734 0.77339v10.4l-0.7734 0.77339c-0.46624 0.46624-1.0523 0.7734-1.4756 0.7734s-1.0093-0.30716-1.4756-0.7734zm8.9958 0c-0.76235-0.76235-0.77339-0.81553-0.77339-3.7245 0-2.909 0.011-2.9622 0.77339-3.7245 0.50413-0.50413 1.0443-0.7734 1.5514-0.7734 1.076 0 2.1731-1.1354 2.1731-2.249s-1.0971-2.249-2.1731-2.249c-1.0492 0-2.3248-1.2757-2.3248-2.3248 0-0.48784-0.26016-1.0382-0.69754-1.4756-0.67436-0.67435-0.80067-0.69754-3.8004-0.69754-2.9997 0-3.126 0.0232-3.8004 0.69754-0.43738 0.43738-0.69754 0.98772-0.69754 1.4756 0 1.0048-1.277 2.3248-2.249 2.3248-0.972 0-2.249-1.32-2.249-2.3248 0-1.0359-1.1372-2.1731-2.1731-2.1731-1.0048 0-2.3248-1.277-2.3248-2.249 0-0.42329 0.30716-1.0093 0.7734-1.4756l0.77339-0.77339h19.396l0.77339 0.77339c0.50413 0.50413 0.7734 1.0443 0.7734 1.5514 0 0.48785 0.26016 1.0382 0.69754 1.4756 0.67237 0.67236 0.80677 0.69753 3.7245 0.69753 2.9928 0 3.0357 9e-3 3.8004 0.7734 0.46624 0.46624 0.7734 1.0523 0.7734 1.4756 0 0.97201-1.32 2.249-2.3248 2.249-0.48785 0-1.0382 0.26016-1.4756 0.69754-0.67237 0.67237-0.69754 0.80676-0.69754 3.7245 0 2.9928-9e-3 3.0357-0.7734 3.8004-0.50413 0.50412-1.0443 0.77339-1.5514 0.77339-1.0359 0-2.1731 1.1372-2.1731 2.1731 0 1.0048-1.277 2.3248-2.249 2.3248-0.4233 0-1.0093-0.30716-1.4756-0.7734zm-53.975-8.9958c-0.46624-0.46624-0.7734-1.0523-0.7734-1.4756s0.30716-1.0093 0.7734-1.4756c0.76467-0.76467 0.80755-0.7734 3.8004-0.7734 2.9178 0 3.0522-0.0252 3.7245-0.69754 0.43738-0.43738 0.69754-0.98771 0.69754-1.4756 0-0.50714 0.26927-1.0473 0.77339-1.5514l0.7734-0.7734h10.4l0.7734 0.7734c0.50413 0.50413 0.7734 1.0443 0.7734 1.5514 0 1.0359 1.1372 2.1731 2.1731 2.1731 1.0048 0 2.3248 1.277 2.3248 2.249 0 0.4233-0.30715 1.0093-0.77339 1.4756l-0.7734 0.7734h-23.894zm31.485 0c-0.46624-0.46624-0.7734-1.0523-0.7734-1.4756s0.30716-1.0093 0.7734-1.4756 1.0523-0.7734 1.4756-0.7734c0.92816 0 2.249 1.3208 2.249 2.249 0 0.4233-0.30716 1.0093-0.7734 1.4756s-1.0523 0.7734-1.4756 0.7734c-0.4233 0-1.0093-0.30716-1.4756-0.7734zm-53.975-4.4979c-1.0036-1.0036-1.0036-1.9476 0-2.9511 0.46625-0.46624 1.0523-0.7734 1.4756-0.7734 0.92816 0 2.249 1.3208 2.249 2.249s-1.3208 2.249-2.249 2.249c-0.4233 0-1.0093-0.30716-1.4756-0.7734zm49.477 0c-0.76467-0.76467-0.7734-0.80754-0.7734-3.8004 0-2.9178-0.0252-3.0522-0.69753-3.7245-0.67237-0.67236-0.80677-0.69753-3.7245-0.69753-2.9928 0-3.0357-9e-3 -3.8004-0.7734-0.76236-0.76236-0.7734-0.81553-0.7734-3.7245s0.011-2.9622 0.7734-3.7245c0.46624-0.46624 1.0523-0.7734 1.4756-0.7734 0.972 0 2.249 1.32 2.249 2.3248 0 1.076 1.1354 2.1731 2.249 2.1731 0.5698 0 1.0859-0.23206 1.5514-0.69754 0.67435-0.67435 0.69753-0.80066 0.69753-3.8004 0-2.9997-0.0232-3.126-0.69753-3.8004-0.43738-0.43738-0.98772-0.69753-1.4756-0.69753-1.0492 0-2.3248-1.2757-2.3248-2.3248 0-1.076-1.1354-2.1731-2.249-2.1731s-2.249 1.0971-2.249 2.1731c0 1.0492-1.2757 2.3248-2.3248 2.3248-0.48784 0-1.0382 0.26015-1.4756 0.69753l-0.69754 0.69754v10.552l-0.7734 0.7734c-0.46624 0.46624-1.0523 0.7734-1.4756 0.7734-0.42329 0-1.0093-0.30716-1.4756-0.7734l-0.77339-0.7734v-23.894l0.77339-0.7734 0.7734-0.7734h10.4l0.7734 0.7734c0.50413 0.50413 0.7734 1.0443 0.7734 1.5514 0 0.48785 0.26016 1.0382 0.69753 1.4756 0.67237 0.67237 0.80677 0.69754 3.7245 0.69754 2.9928 0 3.0357 9e-3 3.8004 0.7734l0.7734 0.7734v28.392l-0.7734 0.77339c-0.46624 0.46624-1.0523 0.7734-1.4756 0.7734s-1.0093-0.30716-1.4756-0.7734zm-53.975-4.4979c-0.46624-0.46624-0.7734-1.0523-0.7734-1.4756 0-0.92815 1.3208-2.249 2.249-2.249s2.249 1.3208 2.249 2.249c0 0.92816-1.3208 2.249-2.249 2.249-0.4233 0-1.0093-0.30715-1.4756-0.7734zm0-8.9958-0.7734-0.77339v-28.392l0.7734-0.7734 0.7734-0.7734h28.392l0.77339 0.7734 0.7734 0.7734v28.392l-0.7734 0.77339-0.77339 0.7734h-28.392zm25.517-4.422 0.69753-0.69754v-19.699l-0.69753-0.69753-0.69754-0.69754h-19.699l-0.69753 0.69754-0.69754 0.69753v19.699l0.69754 0.69754 0.69753 0.69753h19.699zm-16.521-4.5738-0.7734-0.7734v-10.4l0.7734-0.7734 0.7734-0.7734h10.4l0.7734 0.7734 0.7734 0.7734v10.4l-0.7734 0.7734-0.7734 0.7734h-10.4zm53.975 8.9958-0.7734-0.77339v-28.392l0.7734-0.7734 0.77339-0.7734h28.392l0.7734 0.7734 0.7734 0.7734v28.392l-0.7734 0.77339-0.7734 0.7734h-28.392zm25.517-4.422 0.69754-0.69754v-19.699l-0.69754-0.69753-0.69754-0.69754h-19.699l-0.69754 0.69754-0.69754 0.69753v19.699l0.69754 0.69754 0.69754 0.69753h19.699zm-16.521-4.5738-0.7734-0.7734v-10.4l0.7734-0.7734 0.7734-0.7734h10.4l0.77339 0.7734 0.7734 0.7734v10.4l-0.7734 0.7734-0.77339 0.7734h-10.4zm-22.49-13.494c-0.76236-0.76236-0.7734-0.81553-0.7734-3.7245s0.011-2.9622 0.7734-3.7245c0.76235-0.76236 0.81553-0.7734 3.7245-0.7734 2.909 0 2.9622 0.011 3.7245 0.7734 0.46624 0.46624 0.7734 1.0523 0.7734 1.4756 0 0.972-1.32 2.249-2.3248 2.249-1.0359 0-2.1731 1.1372-2.1731 2.1731 0 1.0048-1.277 2.3248-2.249 2.3248-0.4233 0-1.0093-0.30715-1.4756-0.77339zm-8.9958-4.4979c-0.46624-0.46624-0.7734-1.0523-0.7734-1.4756 0-0.92816 1.3208-2.249 2.249-2.249s2.249 1.3208 2.249 2.249-1.3208 2.249-2.249 2.249c-0.4233 0-1.0093-0.30716-1.4756-0.7734z" fill="url(#radialGradient1029-9)" stroke-width=".26458"/>
  </g>
  <g transform="translate(20.249 -104.4)" opacity=".5" stroke-width=".26458">
   <path d="m-83.817 177.55v-16.007h32.015v32.015h-32.015z"/>
   <path d="m-56.3 177.55v-11.509h-23.019v23.019h23.019z" fill="#fff"/>
   <path d="m-74.644 184.39-0.17639-0.17638v-13.406h13.758v13.758h-13.406z"/>
   <path d="m-83.817 113.26v-16.007h32.015v32.015h-32.015z"/>
   <path d="m-56.3 113.26v-11.509h-23.019v23.019h23.019z" fill="#fff"/>
   <path d="m-74.759 113.19 0.0706-6.813 6.813-0.0706 6.813-0.0706v13.767h-13.767z"/>
   <path d="m-19.523 113.26v-16.007h32.015v32.015h-32.015z"/>
   <path d="m7.9938 113.26v-11.509h-23.019v23.019h23.019z" fill="#fff"/>
   <path d="m-10.262 113.12v-6.8836l6.813 0.0706 6.813 0.0706 0.0706 6.813 0.0706 6.813h-13.767z"/>
  </g>
  <g transform="translate(-67.479 112.07)" opacity=".5">
   <path transform="matrix(.26458 0 0 .26458 39.395 82.82)" d="m969.82 277.77-2.9238 2.9238-2.9219 2.9219v107.31l2.9219 2.9219 2.9238 2.9238h107.31l2.9219-2.9238 2.9238-2.9219v-107.31l-2.9238-2.9219-2.9219-2.9238h-53.654zm16.426 17h74.455l2.6367 2.6367 2.6367 2.6367v74.453l-2.6367 2.6367-2.6367 2.6367h-74.455l-2.6348-2.6367-2.6367-2.6367v-74.453l2.6367-2.6367zm17.574 17-2.9238 2.9238-2.9219 2.9219v39.309l2.9219 2.9219 2.9238 2.9238h39.307l2.9238-2.9238 2.9238-2.9219v-39.309l-2.9238-2.9219-2.9238-2.9238h-19.652z"/>
   <path transform="matrix(.26458 0 0 .26458 39.395 82.82)" d="m969.82 39.77-2.9238 2.9238-2.9219 2.9219v107.31l2.9219 2.9219 2.9238 2.9238h107.31l2.9219-2.9238 2.9238-2.9219v-107.31l-2.9238-2.9219-2.9219-2.9238h-53.654zm16.426 17h74.455l2.6367 2.6367 2.6367 2.6367v74.453l-2.6367 2.6367-2.6367 2.6367h-74.455l-2.6348-2.6367-2.6367-2.6367v-74.453l2.6367-2.6367zm17.574 17-2.9238 2.9219-2.9219 2.9238v39.309l2.9219 2.9219 2.9238 2.9238h39.307l2.9238-2.9238 2.9238-2.9219v-39.309l-2.9238-2.9238-2.9238-2.9219h-19.652z"/>
   <path transform="matrix(.26458 0 0 .26458 39.395 82.82)" d="m1207.8 39.77-2.9238 2.9238-2.9219 2.9219v107.31l2.9219 2.9219 2.9238 2.9238h107.31l2.9219-2.9238 2.9238-2.9219v-107.31l-2.9238-2.9219-2.9219-2.9238h-53.654zm16.426 17h74.455l2.6367 2.6367 2.6367 2.6367v74.453l-2.6367 2.6367-2.6367 2.6367h-74.455l-2.6348-2.6367-2.6367-2.6367v-74.453l2.6367-2.6367zm17.574 17-2.9238 2.9219-2.9219 2.9238v39.309l2.9219 2.9219 2.9238 2.9238h39.309l2.9219-2.9238 2.9238-2.9219v-39.309l-2.9238-2.9238-2.9219-2.9219h-19.654z"/>
  </g>
  <g stroke-width=".26458">
   <path d="m40.941 147.64-0.77359 0.7736-0.77308 0.77308v28.392l0.77308 0.77308 0.77359 0.7736h28.392l0.77308-0.7736 0.77359-0.77308v-28.392l-0.77359-0.77308-0.77308-0.7736h-14.196zm4.346 4.4979h19.7l0.69763 0.69763 0.69763 0.69763v19.699l-0.69763 0.69763-0.69763 0.69763h-19.7l-0.69711-0.69763-0.69764-0.69763v-19.699l0.69764-0.69763zm4.6498 4.4979-0.77359 0.77359-0.77308 0.77308v10.4l0.77308 0.77308 0.77359 0.7736h10.4l0.77359-0.7736 0.77359-0.77308v-10.4l-0.77359-0.77308-0.77359-0.77359h-5.1997z" fill="#ff0039" opacity=".8"/>
   <path d="m103.91 84.672-0.77359 0.7736-0.77308 0.77308v28.392l0.77308 0.77308 0.77359 0.7736h28.392l0.77308-0.7736 0.77359-0.77308v-28.392l-0.77359-0.77308-0.77308-0.7736h-14.196zm4.346 4.4979h19.7l0.69763 0.69763 0.69763 0.69763v19.699l-0.69763 0.69763-0.69763 0.69763h-19.7l-0.69711-0.69763-0.69764-0.69763v-19.699l0.69764-0.69763zm4.6498 4.4979-0.77359 0.77308-0.77308 0.7736v10.4l0.77308 0.77308 0.77359 0.77359h10.4l0.77359-0.77359 0.77359-0.77308v-10.4l-0.77359-0.7736-0.77359-0.77308h-5.1997z" fill="#00feff" opacity=".8"/>
   <path d="m40.941 84.672-0.77359 0.7736-0.77308 0.77308v28.392l0.77308 0.77308 0.77359 0.7736h28.392l0.77309-0.7736 0.77358-0.77308v-28.392l-0.77358-0.77308-0.77309-0.7736h-14.196zm4.346 4.4979h19.7l0.69763 0.69763 0.69763 0.69763v19.699l-0.69763 0.69763-0.69763 0.69763h-19.7l-0.69713-0.69763-0.69763-0.69763v-19.699l0.69763-0.69763zm4.6498 4.4979-0.77359 0.77308-0.77309 0.7736v10.4l0.77309 0.77308 0.77359 0.77359h10.4l0.77308-0.77359 0.77359-0.77308v-10.4l-0.77359-0.7736-0.77308-0.77308h-5.2002z" fill="#30e60b" opacity=".8"/>
  </g>
 </g>
</svg>
