<svg width="363.999" height="363.999" viewBox="0 0 96.308 96.308" xmlns="http://www.w3.org/2000/svg"><path d="M0 80.3V64.293h32.015v32.015H0zm27.517 0V68.791H4.498V91.81h23.019zM9.173 87.135l-.176-.176V73.553h13.758V87.31H9.349zm36.601 6.923V91.81h-4.498v-4.497h-4.498V73.554h13.758V68.79h4.498v4.763h9.26V68.79h4.498v-4.498h4.763v4.498h-4.763v4.763h4.763v8.995h-4.763v-8.995h-4.498V91.81H59.81l-.072-4.565-.073-4.564-2.315-.076-2.315-.077v13.78h-9.26zm4.763-4.498v-2.248h-4.763v-4.478l2.315-.076 2.315-.077.077-2.315.076-2.315h-9.28v9.26h4.497v4.498h4.763zm23.019 4.498V91.81h-4.763v-4.497h4.762v-4.486l4.565-.072 4.564-.073.072-4.564.072-4.564h4.486V91.81h4.498v4.498H73.556zm9.26-4.498v-2.248h-4.763v4.497h4.763zm-4.763-18.388V68.79h4.498v4.763h-4.498zm13.935 2.204l-.176-.176v-4.41h-4.498v-8.995h8.996v4.497h-4.498v4.498h4.498v4.763h-4.145zm-55.21-11.333v-2.249h4.498v4.498h-4.498zm9.176 2.076l-.18-.18v-4.41h-4.498v-4.497h-4.762v4.498H8.997V45.772H0v-4.498h8.996v-4.498h13.758v4.498h4.762v-4.498h4.498v4.498h4.763V22.753h4.498v-9.26h-4.498V-.001h4.498v8.995h4.497V4.496h4.763V0h8.996v8.995h-4.498v4.486l-4.564.072-4.564.073-.073 4.553-.072 4.554 2.321.076 2.322.077.072 4.564.072 4.564h4.486V18.255h4.498v13.758h-4.498v4.498h-9.26v-8.996h-4.499v18.256h-9.26v4.763h13.758v4.498h9.26v-4.498h-4.497V45.77h-4.763v-4.498h9.26v-4.497h18.521v8.995h4.498V59.53h-4.498v-4.498h-9.247l-.073 4.565-.072 4.564-9.015.07-9.014.069zM18.258 52.783v-2.249h-4.763v4.498h4.763zm13.758 0v-2.249h-9.26v4.498h9.26zm32.279-4.63v-2.381h-9.26v4.763h9.26zm9.26 0v-2.381h-4.762v4.763h4.762zm-50.8-4.63v-2.249H8.997v4.498h13.758zm9.26 0v-2.249h-4.497v4.498h4.498zm23.02-36.777V4.497h-4.498v4.498h4.498zm23.019 55.298v-2.249h4.498v4.498h-4.498zM.002 57.281v-2.249H4.5v4.498H.002zm82.815-2.249v-4.497h4.498v-4.763h-4.498v-8.996H96.31v8.996h-4.498v9.26h-4.498v4.498h-4.498zM.002 16.006V0h32.015v32.015H.002zm27.517 0V4.497H4.499v23.02h23.02zm-18.46-.066l.071-6.813 6.813-.07 6.813-.07v13.766H8.99zm55.237.066V0H96.31v32.015H64.296zm27.517 0V4.497h-23.02v23.02h23.02zm-18.256-.136V8.986l6.813.07 6.813.071.07 6.813.071 6.813H73.557z" fill-opacity=".504"/></svg>